<svg id="hormone1" class="draggable" data-product="hormone" version="1.1" xmlns="http://www.w3.org/2000/svg" xmlns:xlink="http://www.w3.org/1999/xlink" x="0px" y="0px"
	 viewBox="0 0 960 560" enable-background="new 0 0 960 560" xml:space="preserve">
<g>
	<path fill="#FFD394" d="M584.4,196.3c0,0,15.2,0,15.2-18.2l12.2-3v39.5c0,0,6.1,15.2-9.1,21.3c-15.2,6.1-33.4-3-27.3-15.2
		C581.4,208.4,584.4,196.3,584.4,196.3z"/>
	<path fill="#FFD394" d="M611.7,214.5c0,0,12.2,18.2,54.7,30.4c42.5,12.2,71.5,14.2,85.1,14.3c19.4,0.1,33.4,5.4,33.4,5.4
		s8.5,21.4-6.1,16.1c-24.7-9-48.6-8.5-69.9-11.5s-94.2-27.3-94.2-27.3L611.7,214.5z"/>
	<path fill="#73D7F2" d="M329.2,336c0,0-33.4,45.6-91.1,39.5s-129.5-69.7-139.8-85.1c-12.2-18.2-27.3-54.7-36.5-48.6
		c-9.1,6.1,3,42.5,15.2,54.7c12.2,12.2,79,69.9,103.3,85.1c24.3,15.2,91.1,18.2,106.3,12.2c15.2-6.1,51.6-42.5,51.6-42.5L329.2,336z
		"/>
	<path fill="#73D7F2" d="M286.7,293.5c0,0-115.4-79-133.7-100.3s-33.4-63.8-42.5-51.6c-9.1,12.2-3,24.3,9.1,39.5
		c12.2,15.2,148.9,127.6,164.1,133.7c15.2,6.1,15.2-18.2,15.2-18.2L286.7,293.5z"/>
	<path fill="#A4FF55" d="M344.4,147.7c0,0,85.1-54.7,130.6,21.3s72.9,127.6,82,173.2c9.1,45.6,6.1,100.3-33.4,127.6
		c-39.5,27.3-112.4,33.4-170.1-21.3s-67.8-59.2-79-100.3C265.4,314.8,210.7,211.5,344.4,147.7z"/>
	<path fill="#53D82E" d="M511.5,254l72.9-57.7c0,0-12.2,30.4,0,36.5c12.2,6.1,24.3-9.1,27.3-18.2c3-9.1,15.2-6.1,3,27.3
		c-12.2,33.4-18.2,48.6-54.7,48.6C523.6,290.5,508.4,287.4,511.5,254z"/>
	<path fill="#53D82E" d="M404.1,138.5c17.2-1,29.8,7.5,54.7,32.4c33.4,33.4,52.7,83,52.7,83s0,25.3,9.1,31.4
		c9.1,6.1,20.3,40.5,17.2,73.9c-3,33.4-8.1,82-29.4,85.1s-31.4-55.7-22.3-77c9.1-21.3,7.1-58.7,7.1-58.7s-34.4,92.2-61.8,101.3
		c-27.3,9.1-54.7-43.5-48.6-49.6c17.3-17.3,73.9-57.7,92.2-54.7c18.2,3-45.6-12.2-72.9,3c-27.3,15.2-75.8-11.9-54.7-27.3
		c20.1-14.7,53.8-12.9,100.3-6.1c28.4,4.2-114.4-52.7-102.3-67.9s47.6-2,71.9,10.1c24.3,12.2,36.5,45.6,36.5,45.6
		s-5.5-22.7-19.2-40.5c-18.5-24-40.1-50.9-43.5-60.8C386.3,148.6,401.2,138.7,404.1,138.5z"/>
	<path fill="#FFE000" d="M560.1,222.1c0,0-29.6-35.7-62.3-71s-68.4-70.3-80.5-68.7c-24.3,3,3,97.2,36.5,118.5
		S560.1,222.1,560.1,222.1z"/>
	<path fill="#FFE000" d="M490.2,64.1c12.2-15.2,45.6-15.2,45.6,6.1s24.3,151.9,24.3,151.9s-76-79.6-79-109.4
		C478.1,82.3,490.2,64.1,490.2,64.1z"/>
	<path fill="#FFD394" d="M563.1,226.7c0,0-14,6.7-9.1,18.2c9.1,21.3,33.4,82,60.8,85.1c0,0,91.1-3,109.4-18.2
		c18.2-15.2,0-15.2-18.2-9.1c-18.2,6.1-66.8,12.2-91.1,9.1C590.5,308.7,563.1,226.7,563.1,226.7z"/>
	<path fill="#FFD394" d="M578.3,147.6c-6.4-32.2,25.8-59.3,55.9-46.4c3.9,1.7,7.6,3.9,11,7c27.3,24.3,9.1,57.7-9.1,72.9
		c-18.2,15.2-39.5,12.2-48.6-3C583.9,172.1,580.7,160,578.3,147.6z"/>
	<path fill="#33922D" d="M615.8,77.8c-7.2,1.2-47.6,8.1-47.6,44.6c0,16-12.7,33.9-21.8,48.1c-3.9,6.1,25.7,6.9,32.7,5.2v0
		c4.7-1.2,7.9-5.6,7.6-10.4c-1-15.8-1.7-42.5,9.8-51.7c15.2-12.2,35.7-8.7,42.6,2.3c9.8,15.9,15.2,24.3,6.1,42.5
		c-8.3,16.6,21.2,8,26.5,6.3c0.5-0.2,1-0.4,1.5-0.6l2.3-1.1c4.9-2.5,30.5-11,16.8-15.3c-6.9-2.1-22.7-25.8-22.7-25.8
		S653.6,71.6,615.8,77.8z"/>
	<g>
		<polygon fill="#7F43A8" points="836.7,170.1 762,290.8 770.2,294.8 845.8,172.1 		"/>
		<polygon fill="#7F43A8" points="854.1,186.3 842,172.7 823.9,175 833.1,159.2 825.3,142.7 843.1,146.6 856.4,134.2 858.2,152.3 
			874.2,161.1 857.5,168.4 		"/>
	</g>
</g>
</svg>
