<svg id="brain_svg" version="1.1" xmlns="http://www.w3.org/2000/svg" xmlns:xlink="http://www.w3.org/1999/xlink" x="0px" y="0px"
	 viewBox="0 0 611.3 679.5" enable-background="new 0 0 611.3 679.5" xml:space="preserve">
<g id="brain">
	<path fill="#FFF3A9" d="M611.3,174.9c-0.9-26.3-15.5-47.9-34.6-54.1c1.6-5.9,2.3-12.2,2.1-18.9c-1-28.9-20.1-51.7-42.7-50.9
		c-10.2,0.3-19.4,5.4-26.3,13.5c-7.1-17.8-21.7-29.8-38.3-29.3c-10.2,0.3-19.4,5.4-26.3,13.5c-8.4-23.6-27.2-39.8-48.6-39.1
		c-14.5,0.5-27.2,8.6-36.1,21.3c-7.4-6-16.2-9.3-25.5-9c-8.3,0.3-16,3.4-22.6,8.7c-6.2-6.3-14-10-22.5-9.8
		c-7.4,0.2-14.2,3.5-19.6,8.9C260.5,11.3,243.8-0.6,225.2,0c-19.5,0.7-36.1,15-44.3,35.6c-4.9-2.1-10.2-3.2-15.6-3
		c-11.1,0.4-21,5.8-28.6,14.5c-4.7-5.8-11.2-9.4-18.3-9.1C105.3,38.5,95,51.8,94.5,68.2c-6-3-12.5-4.6-19.2-4.4
		c-26.5,0.9-47.1,29-45.9,62.8c0.1,3.4,0.4,6.7,1,9.9C11.3,150.8-1,177.7,0.1,208c1.4,40.7,26.1,73.5,57,77.8
		c4.3,33,27.4,57.7,54.2,56.4c3.9-0.2,7.6-0.9,11.2-2.1c7.3,18.1,22.2,30.4,39.1,29.8c5.5-0.2,10.8-1.7,15.6-4.4
		c7.7,6.2,16.9,9.7,26.6,9.4c9.6-0.3,18.3-4.3,25.5-10.8c9.6,17.9,26,29.5,44.1,28.9c8.5-0.3,16.4-3.2,23.2-8.1
		c6.3,6,14.3,9.4,22.8,9.1c5.3-0.2,10.3-1.8,14.8-4.5c9.6,9.4,21.7,14.8,34.6,14.3c14.1-0.5,26.7-7.8,35.9-19.4
		c5.3,3.3,11.3,5.1,17.6,4.8c10.3-0.3,19.5-5.9,26.1-14.7c2.8,0.6,5.6,0.8,8.5,0.7c4.8-0.2,9.3-1.3,13.6-3.2
		c4.9,1.6,10.1,2.4,15.4,2.2c20.8-0.7,38.5-15.8,47.4-37.6c4.9,1.7,10.1,2.5,15.5,2.3c29.8-1,52.9-32.6,51.7-70.7
		c-0.5-15.7-5.1-30-12.4-41.3C602.5,217.2,612,197.4,611.3,174.9z M438.5,116.4c0.2-0.3,0.4-0.6,0.6-0.9c0.1,0.1,0.1,0.3,0.2,0.4
		C439,116.1,438.7,116.3,438.5,116.4z"/>
</g>
<g id="yum">
	<path fill="none" stroke="#70E4CE" stroke-width="5" stroke-miterlimit="10" d="M518.2,142.5c0,0,23.1,23.5,12.3,42.5
		c-10.8,19-21.4,16.8-21.4,16.8"/>
	<path id="SVGID_x5F_1_x5F_" fill="none" d="M520.7,131c0,0,37,23.9,30.5,48.8S530.8,204,530.8,204"/>
	<text>	<textPath  xlink:href="#SVGID_x5F_1_x5F_" startOffset="13.1835%">
<tspan  fill="#70E4CE" font-family="'MarkerFelt-Wide'" font-size="44">YUM</tspan>	</textPath>
</text>
	<path fill="none" stroke="#70E4CE" stroke-width="5" stroke-miterlimit="10" d="M505.1,153.2c0,0,15.5,15.8,7.2,29.6
		c-8.3,13.8-15.7,12.6-15.7,12.6"/>
	<path fill="none" stroke="#70E4CE" stroke-width="5" stroke-miterlimit="10" d="M495.2,160.6c0,0,8.1,8.3,2.3,17
		c-5.8,8.7-10.1,8.5-10.1,8.5"/>
</g>
<g id="phone">
	<g>
		<g>
			<g>
				
					<rect x="370.7" y="652.7" transform="matrix(0.764 0.6453 -0.6453 0.764 521.0548 -88.0522)" fill="none" width="20.4" height="31.1"/>
				<path fill="#53D82E" d="M369.4,666l-6.3,7.5c3.3-3.9,18.5,9.7,22.5,5.1l0,0l6.3-7.5l0,0c3.3-3.9-12.7-16.6-8.8-21.3l-6.3,7.5
					c-2.2,2.6,1.7,7.6,5.1,12.3C376.7,667,371.2,663.8,369.4,666z"/>
			</g>
			<g>
				
					<rect x="384.3" y="636.5" transform="matrix(0.764 0.6453 -0.6453 0.764 513.8544 -100.6642)" fill="none" width="20.4" height="31.1"/>
				<path fill="#53D82E" d="M383,649.8l-6.3,7.5c3.3-3.9,18.5,9.7,22.5,5.1l0,0l6.3-7.5l0,0c3.3-3.9-12.7-16.6-8.8-21.3l-6.3,7.5
					c-2.2,2.6,1.7,7.6,5.1,12.3C390.3,650.8,384.9,647.6,383,649.8z"/>
			</g>
			<g>
				
					<rect x="396.7" y="619.5" transform="matrix(0.9026 0.4305 -0.4305 0.9026 313.0409 -113.3045)" fill="none" width="20.4" height="31.1"/>
				<path fill="#53D82E" d="M395.2,635.8l-4.2,8.9c2.2-4.7,20.4,4.7,23-0.8l0,0l4.2-8.9l0,0c2.2-4.7-16.5-12.9-13.9-18.4l-4.2,8.9
					c-1.5,3.1,3.6,6.9,8.1,10.6C402.5,635,396.4,633.3,395.2,635.8z"/>
			</g>
			<g>
				
					<rect x="405.8" y="600.5" transform="matrix(0.9026 0.4305 -0.4305 0.9026 305.7141 -119.0804)" fill="none" width="20.4" height="31.1"/>
				<path fill="#53D82E" d="M404.3,616.8l-4.2,8.9c2.2-4.7,20.4,4.7,23-0.8l0,0l4.2-8.9l0,0c2.2-4.7-16.5-12.9-13.9-18.4l-4.2,8.9
					c-1.5,3.1,3.6,6.9,8.1,10.6C411.6,615.9,405.5,614.2,404.3,616.8z"/>
			</g>
			<g>
				
					<rect x="412.9" y="580.7" transform="matrix(0.9737 0.228 -0.228 0.9737 147.076 -80.7705)" fill="none" width="20.4" height="31.1"/>
				<path fill="#53D82E" d="M411.9,599.5l-2.2,9.6c1.2-5,20.9,0.3,22.3-5.7l0,0l2.2-9.6l0,0c1.2-5-18.9-9-17.5-15l-2.2,9.6
					c-0.8,3.3,5,6,10.1,8.6C418.9,597.1,412.6,596.7,411.9,599.5z"/>
			</g>
			<g>
				
					<rect x="417.8" y="560.1" transform="matrix(0.9737 0.228 -0.228 0.9737 142.5109 -82.4111)" fill="none" width="20.4" height="31.1"/>
				<path fill="#53D82E" d="M416.7,578.9l-2.2,9.6c1.2-5,20.9,0.3,22.3-5.7l0,0l2.2-9.6l0,0c1.2-5-18.9-9-17.5-15l-2.2,9.6
					c-0.8,3.3,5,6,10.1,8.6C423.7,576.5,417.4,576.1,416.7,578.9z"/>
			</g>
			<g>
				
					<rect x="420.3" y="539.2" transform="matrix(0.999 4.387770e-02 -4.387770e-02 0.999 24.7562 -18.3537)" fill="none" width="20.4" height="31.1"/>
				<path fill="#53D82E" d="M420,560l-0.4,9.8c0.2-5.2,20.6-3.6,20.9-9.7l0,0l0.4-9.8l0,0c0.2-5.2-20.2-5.4-20-11.5l-0.4,9.8
					c-0.1,3.4,6,5,11.6,6.6C426.4,556.4,420.1,557.2,420,560z"/>
			</g>
			<g>
				
					<rect x="421.2" y="518.1" transform="matrix(0.999 4.387770e-02 -4.387770e-02 0.999 23.8305 -18.4148)" fill="none" width="20.4" height="31.1"/>
				<path fill="#53D82E" d="M420.9,538.9l-0.4,9.8c0.2-5.2,20.6-3.6,20.9-9.7l0,0l0.4-9.8l0,0c0.2-5.2-20.2-5.4-20-11.5l-0.4,9.8
					c-0.1,3.4,6,5,11.6,6.6C427.3,535.2,421.1,536,420.9,538.9z"/>
			</g>
			<g>
				
					<rect x="419.3" y="497.1" transform="matrix(0.9908 -0.1351 0.1351 0.9908 -65.3273 62.734)" fill="none" width="20.4" height="31.1"/>
				<path fill="#53D82E" d="M420.2,519.7l1.3,9.7c-0.7-5.1,19.6-7.2,18.8-13.3l0,0l-1.3-9.7l0,0c-0.7-5.1-20.9-1.7-21.7-7.8l1.3,9.7
					c0.5,3.4,6.8,3.8,12.5,4.4C425.8,515,419.8,516.9,420.2,519.7z"/>
			</g>
			<g>
				
					<rect x="416.4" y="476.2" transform="matrix(0.9908 -0.1351 0.1351 0.9908 -62.5238 62.1561)" fill="none" width="20.4" height="31.1"/>
				<path fill="#53D82E" d="M417.3,498.7l1.3,9.7c-0.7-5.1,19.6-7.2,18.8-13.3l0,0l-1.3-9.7l0,0c-0.7-5.1-20.9-1.7-21.7-7.8l1.3,9.7
					c0.5,3.4,6.8,3.8,12.5,4.4C423,494,416.9,495.9,417.3,498.7z"/>
			</g>
			<g>
				
					<rect x="412.7" y="455.4" transform="matrix(0.9617 -0.274 0.274 0.9617 -112.8384 133.8869)" fill="none" width="20.4" height="31.1"/>
				<path fill="#53D82E" d="M414.7,479.2l2.7,9.5c-1.4-5,18.4-9.9,16.7-15.8l0,0l-2.7-9.5l0,0c-1.4-5-20.9,1.3-22.6-4.6l2.7,9.5
					c0.9,3.3,7.3,2.8,13,2.6C419.6,473.7,413.9,476.5,414.7,479.2z"/>
			</g>
			<g>
				
					<rect x="406.9" y="435.1" transform="matrix(0.9617 -0.274 0.274 0.9617 -107.4908 131.5228)" fill="none" width="20.4" height="31.1"/>
				<path fill="#53D82E" d="M408.9,458.9l2.7,9.5c-1.4-5,18.4-9.9,16.7-15.8l0,0l-2.7-9.5l0,0c-1.4-5-20.9,1.3-22.6-4.6l2.7,9.5
					c0.9,3.3,7.3,2.8,13,2.6C413.8,453.4,408.1,456.2,408.9,458.9z"/>
			</g>
			<g>
				
					<rect x="401.1" y="414.7" transform="matrix(0.9617 -0.274 0.274 0.9617 -102.1432 129.1587)" fill="none" width="20.4" height="31.1"/>
				<path fill="#53D82E" d="M403.1,438.6l2.7,9.5c-1.4-5,18.4-9.9,16.7-15.8l0,0l-2.7-9.5l0,0c-1.4-5-20.9,1.3-22.6-4.6l2.7,9.5
					c0.9,3.3,7.3,2.8,13,2.6C408,433.1,402.3,435.8,403.1,438.6z"/>
			</g>
			<g>
				
					<rect x="394" y="394.9" transform="matrix(0.9367 -0.3502 0.3502 0.9367 -118.1263 167.554)" fill="none" width="20.4" height="31.1"/>
				<path fill="#53D82E" d="M396.7,419.3l3.4,9.2c-1.8-4.8,17.6-11.4,15.4-17.1l0,0l-3.4-9.2l0,0c-1.8-4.8-20.7,2.9-22.9-2.8
					l3.4,9.2c1.2,3.2,7.5,2.2,13.2,1.5C401.1,413.5,395.7,416.7,396.7,419.3z"/>
			</g>
			<g>
				
					<rect x="386.6" y="375.1" transform="matrix(0.9367 -0.3502 0.3502 0.9367 -111.6615 163.7079)" fill="none" width="20.4" height="31.1"/>
				<path fill="#53D82E" d="M389.3,399.5l3.4,9.2c-1.8-4.8,17.6-11.4,15.4-17.1l0,0l-3.4-9.2l0,0c-1.8-4.8-20.7,2.9-22.9-2.8
					l3.4,9.2c1.2,3.2,7.5,2.2,13.2,1.5C393.7,393.7,388.3,396.9,389.3,399.5z"/>
			</g>
			<g>
				
					<rect x="379.3" y="355.2" transform="matrix(0.9403 -0.3404 0.3404 0.9403 -102.9478 154.7202)" fill="none" width="20.4" height="31.1"/>
				<path fill="#53D82E" d="M381.8,379.6l3.3,9.2c-1.8-4.9,17.7-11.2,15.6-16.9l0,0l-3.3-9.2l0,0c-1.8-4.9-20.7,2.7-22.8-3l3.3,9.2
					c1.2,3.2,7.5,2.3,13.2,1.7C386.4,373.8,380.9,376.9,381.8,379.6z"/>
			</g>
			<g>
				
					<rect x="374.3" y="334.8" transform="matrix(0.9879 -0.1552 0.1552 0.9879 -49.716 63.9289)" fill="none" width="20.4" height="31.1"/>
				<path fill="#53D82E" d="M375.3,357.6l1.5,9.7c-0.8-5.1,19.5-7.6,18.5-13.7l0,0l-1.5-9.7l0,0c-0.8-5.1-20.9-1.3-21.8-7.3l1.5,9.7
					c0.5,3.3,6.9,3.7,12.6,4.2C380.9,352.7,374.9,354.7,375.3,357.6z"/>
			</g>
			<g>
				
					<rect x="375.7" y="313.9" transform="matrix(0.9837 0.1798 -0.1798 0.9837 65.5141 -64.0198)" fill="none" width="20.4" height="31.1"/>
				<path fill="#53D82E" d="M374.8,333.2l-1.8,9.7c0.9-5.1,20.9-0.8,22-6.8l0,0l1.8-9.7l0,0c0.9-5.1-19.3-8.1-18.2-14.1l-1.8,9.7
					c-0.6,3.3,5.3,5.7,10.5,8.1C381.7,330.4,375.4,330.4,374.8,333.2z"/>
			</g>
			<g>
				
					<rect x="379.9" y="293.1" transform="matrix(0.9718 0.2359 -0.2359 0.9718 83.8295 -83.3149)" fill="none" width="20.4" height="31.1"/>
				<path fill="#53D82E" d="M378.8,311.8l-2.3,9.6c1.2-5,20.9,0.4,22.4-5.5l0,0l2.3-9.6l0,0c1.2-5-18.8-9.2-17.4-15.1l-2.3,9.6
					c-0.8,3.3,5,6,10.1,8.7C385.8,309.5,379.5,309.1,378.8,311.8z"/>
			</g>
			<g>
				
					<rect x="385.5" y="272.8" transform="matrix(0.9446 0.3281 -0.3281 0.9446 116.5235 -113.8942)" fill="none" width="20.4" height="31.1"/>
				<path fill="#53D82E" d="M384.2,290.4l-3.2,9.3c1.7-4.9,20.8,2.5,22.8-3.3l0,0l3.2-9.3l0,0c1.7-4.9-17.8-11-15.8-16.7l-3.2,9.3
					c-1.1,3.2,4.4,6.5,9.2,9.6C391.4,288.7,385.2,287.7,384.2,290.4z"/>
			</g>
			<g>
				
					<rect x="395.3" y="254.3" transform="matrix(0.8043 0.5942 -0.5942 0.8043 239.7093 -188.1422)" fill="none" width="20.4" height="31.1"/>
				<path fill="#53D82E" d="M393.9,268.4l-5.8,7.9c3.1-4.2,19.1,8.5,22.8,3.6l0,0l5.8-7.9l0,0c3.1-4.2-13.8-15.8-10.1-20.7l-5.8,7.9
					c-2,2.7,2.2,7.5,5.9,11.9C401.2,268.9,395.6,266.1,393.9,268.4z"/>
			</g>
		</g>
	</g>
	<path fill="#53D82E" d="M419.6,264c0,0-17-10.1-20.9-20c-3.9-9.9,1.9-26.5,5.6-33.9s20.2-36,28.5-44.3c8.3-8.3,24.3-21.4,28.1-22.1
		c3.8-0.7,24.7,2.7,28,9.5c3.3,6.9,3.5,9.6,1.5,13.6c-2,4-5.1,8.5-9.8,10.6c-4.7,2.1-8.4,3.6-13,2.5c-2.7-0.6-9.1-8.1-12.9-7.4
		c-3.8,0.7-16.9,8.5-21.7,16.5c-4.8,8-16.7,25.8-15,30.2c1.7,4.4,7.6,8.4,10.6,11.8c3,3.4,7.4,3.7,7.1,10.1
		c-0.3,6.4-3.9,14.6-8.6,18.7C422.4,263.8,419.6,264,419.6,264z"/>
	<path fill="#53D82E" d="M519.6,294.7c-1.6-4.4-22.5-29.6-22.5-29.6l-0.5-12.6h-15.9l-0.5,9.3h-18.7l-1.1-10.4l-15.4,0.5v12.6
		c0,0-14.3,18.7-22,26.9s-2.2,25.2-2.2,25.2l101-1.1C521.8,315.5,521.2,299.1,519.6,294.7z M458.6,273.9c1.7-1.4,4.3-1.2,5.7,0.5
		s1.2,4.3-0.5,5.7c-1.7,1.4-4.3,1.2-5.7-0.5S456.9,275.4,458.6,273.9z M451.5,286.9c0.4-2.2,2.5-3.7,4.7-3.3
		c2.2,0.4,3.7,2.5,3.3,4.7s-2.5,3.7-4.7,3.3C452.6,291.2,451.1,289.1,451.5,286.9z M460,302.8c-2,1.1-4.4,0.5-5.6-1.5
		c-1.1-2-0.5-4.4,1.5-5.6c2-1.1,4.4-0.5,5.6,1.5S461.9,301.7,460,302.8z M471.1,308.1c-0.8,2.1-3.1,3.2-5.2,2.4s-3.2-3.1-2.4-5.2
		c0.8-2.1,3.1-3.2,5.2-2.4C470.8,303.6,471.9,306,471.1,308.1z M468.2,272.6c0-2.3,1.8-4.1,4.1-4.1c2.3,0,4.1,1.8,4.1,4.1
		c0,2.3-1.8,4.1-4.1,4.1C470.1,276.7,468.2,274.9,468.2,272.6z M480.6,310.2c-2.1,0.8-4.5-0.3-5.2-2.4c-0.8-2.1,0.3-4.5,2.4-5.2
		c2.1-0.8,4.5,0.3,5.2,2.4C483.8,307.1,482.8,309.4,480.6,310.2z M481,279.5c-1.7-1.4-2-4-0.5-5.7s4-2,5.7-0.5s2,4,0.5,5.7
		C485.3,280.8,482.8,281,481,279.5z M491.7,300.5c-1.1,2-3.6,2.6-5.6,1.5c-2-1.1-2.6-3.6-1.5-5.6s3.6-2.6,5.6-1.5
		C492.2,296,492.8,298.5,491.7,300.5z M490.6,290.6c-2.2,0.4-4.3-1.1-4.7-3.3s1.1-4.3,3.3-4.7c2.2-0.4,4.3,1.1,4.7,3.3
		C494.3,288.1,492.9,290.2,490.6,290.6z"/>
</g>
</svg>
