<svg id="epiglottisSvg" version="1.1"  xmlns="http://www.w3.org/2000/svg" xmlns:xlink="http://www.w3.org/1999/xlink" x="0px" y="0px"
	 viewBox="0 0 200 300" enable-background="new 0 0 200 300" xml:space="preserve">
<g id="epiglottis">
	<path fill="#53D82E" d="M80.9,120.1c-0.3,0.2-0.6,0.3-1,0.4c-2.3,0.4-11.7,1.8-22.6-0.2c-12.5-2.4-26.9-9.3-34.5-27.7
		s-1.3-32.8,6.9-42.6c7.3-8.7,16.1-13.8,17.9-14.8c0.2-0.1,0.4-0.2,0.7-0.3c2-0.5,11.9-3,23.4-1.7c12.8,1.5,27.6,7.8,35.5,26.9
		s1.2,34.2-7.4,44.5C92.1,113.6,83,118.9,80.9,120.1z"/>
	<g>
		<g>
			<path fill="#53D82E" d="M73.5,122.2c-1.1-1.6-0.5-3.7,1.1-4.6l0.6-0.3l0.9-0.5c1.6-0.8,3.6-0.2,4.4,1.4l1.2,2.5l1.2,2.5
				c0.8,1.6,0.1,3.6-1.6,4.3l-0.1,0l-0.7,0.3c-1.4,0.6-3,0.1-3.9-1.1l-1.9-2.7L73.5,122.2z"/>
			<path fill="#53D82E" d="M42.7,34.4c1.5,1.2,1.6,3.4,0.3,4.8l-0.5,0.5l-0.7,0.7c-1.3,1.3-3.3,1.2-4.6-0.1l-2-2.1l-1.9-2
				c-1.2-1.3-1.1-3.4,0.3-4.6l0,0l0.6-0.5c1.2-1,2.8-1,4-0.1l2.6,2.1L42.7,34.4z"/>
			<path fill="#53D82E" d="M111.3,81.5c-1.9,0.1-3.5-1.5-3.3-3.4l0-0.6l0.1-1c0.1-1.8,1.7-3.1,3.5-2.9l2.9,0.3l2.8,0.3
				c1.8,0.2,3.1,1.8,2.8,3.6l0,0l-0.1,0.8c-0.2,1.5-1.5,2.6-3,2.7l-3.4,0.2L111.3,81.5z"/>
			<path fill="#53D82E" d="M103.9,100.6c-1.8-0.6-2.8-2.6-2-4.4l0.3-0.6l0.4-0.9c0.7-1.6,2.6-2.3,4.3-1.6l2.7,1.2l2.5,1.2
				c1.7,0.8,2.3,2.8,1.4,4.4l0,0l-0.4,0.7c-0.7,1.3-2.3,2-3.7,1.5l-3.2-1L103.9,100.6z"/>
			<path fill="#53D82E" d="M91.2,112.9c-1.7-1-2.1-3.2-0.9-4.7l0.4-0.5l0.6-0.8c1.1-1.4,3.1-1.7,4.5-0.6l2.3,1.8l2.2,1.7
				c1.4,1.1,1.6,3.2,0.4,4.6l0,0l-0.5,0.6c-1,1.1-2.7,1.4-4,0.6l-2.9-1.7L91.2,112.9z"/>
			<path fill="#53D82E" d="M55.9,121.3c0.1-1.9,1.7-3.3,3.6-3.1l0.8,0.1l0.9,0.1c1.8,0.2,3.1,1.9,2.7,3.7l-0.5,2.7l-0.5,2.9
				c-0.3,1.8-2,2.9-3.8,2.5l-0.1,0l-0.7-0.1c-1.5-0.3-2.6-1.7-2.5-3.2l0.1-3.2L55.9,121.3z"/>
			<path fill="#53D82E" d="M38.5,113.8c0.9-1.6,3-2.2,4.6-1.1l0.6,0.4l0.7,0.5c1.5,1,1.9,3.1,0.8,4.6l-1.7,2.3l-1.8,2.4
				c-1.1,1.4-3.1,1.7-4.5,0.6l-0.1-0.1l-0.5-0.4c-1.2-1-1.6-2.7-0.8-4l1.6-2.9L38.5,113.8z"/>
			<path fill="#53D82E" d="M25.3,98.6c1.6-1,3.7-0.3,4.5,1.4l0.3,0.6l0.4,0.8c0.8,1.6,0,3.6-1.7,4.3l-2.7,1.1l-2.7,1.1
				c-1.7,0.7-3.6-0.1-4.2-1.8l0,0l-0.2-0.7c-0.5-1.4,0-3,1.4-3.8l2.9-1.7L25.3,98.6z"/>
			<path fill="#53D82E" d="M18.6,80c1.8-0.7,3.7,0.4,4.2,2.2l0.2,0.6l0.2,0.9c0.4,1.7-0.7,3.5-2.4,3.9l-2.9,0.6L15,88.9
				c-1.8,0.4-3.5-0.8-3.8-2.6l0,0l-0.1-0.7c-0.3-1.5,0.6-3,2-3.5l3.2-1.2L18.6,80z"/>
			<path fill="#53D82E" d="M19.3,62.6c1.9-0.1,3.5,1.5,3.4,3.4l0,0.6l-0.1,1c-0.1,1.8-1.7,3.1-3.4,3l-3-0.2l-2.8-0.2
				c-1.8-0.2-3.1-1.8-2.9-3.6l0,0l0.1-0.8c0.2-1.5,1.4-2.6,3-2.7l3.4-0.2L19.3,62.6z"/>
			<path fill="#53D82E" d="M29.5,46.4c1.8,0.6,2.8,2.6,2,4.4l-0.3,0.6l-0.4,0.9c-0.7,1.6-2.7,2.3-4.3,1.6l-2.6-1.3l-2.5-1.2
				c-1.7-0.8-2.3-2.8-1.4-4.4l0,0l0.4-0.7c0.7-1.3,2.3-2,3.7-1.5l3.2,1L29.5,46.4z"/>
			<path fill="#53D82E" d="M66.5,30c0.6,1.8-0.4,3.7-2.3,4.2l-0.7,0.2l-0.9,0.2c-1.8,0.4-3.5-0.7-3.9-2.5l-0.5-2.7l-0.5-2.8
				c-0.3-1.8,0.9-3.5,2.6-3.7l0.1,0l0.8-0.1c1.5-0.2,3,0.6,3.5,2.1l1.1,3.1L66.5,30z"/>
			<path fill="#53D82E" d="M109.7,61.2c-1.5,1.1-3.7,0.7-4.6-1l-0.4-0.6l-0.5-0.8c-0.9-1.6-0.3-3.6,1.3-4.4l2.6-1.4l2.6-1.4
				c1.6-0.8,3.6-0.2,4.4,1.4l0,0l0.3,0.6c0.7,1.4,0.2,3-1,4l-2.7,2L109.7,61.2z"/>
			<path fill="#53D82E" d="M100.6,47.2c-1.3,1.4-3.5,1.3-4.7-0.1l-0.5-0.5l-0.6-0.7c-1.2-1.4-1-3.5,0.4-4.6l2.3-1.8l2.3-1.8
				c1.4-1.1,3.5-0.8,4.5,0.6l0,0.1l0.4,0.5c0.9,1.2,0.8,3-0.2,4.1l-2.3,2.4L100.6,47.2z"/>
			<path fill="#53D82E" d="M86.9,35.5c-0.7,1.7-2.7,2.5-4.4,1.6l-0.7-0.4L81,36.4c-1.6-0.8-2.2-2.9-1.3-4.4l1.4-2.4l1.5-2.5
				c0.9-1.5,2.9-2,4.4-1.1l0.1,0.1l0.6,0.4c1.3,0.8,1.9,2.5,1.3,3.9l-1.2,3L86.9,35.5z"/>
		</g>
		<path fill="#FDE92B" d="M77.3,109.7c-0.3,0.2-0.7,0.3-1,0.4c-2,0.3-9,1.3-17-0.2c-9.5-1.8-20.5-7.1-26.2-21.1s-1-24.9,5.2-32.3
			c5.4-6.5,11.9-10.3,13.5-11.2c0.2-0.1,0.5-0.2,0.7-0.3c1.7-0.5,9.1-2.2,17.7-1.2c9.8,1.1,21,5.9,26.9,20.4s0.9,26-5.7,33.8
			C85.8,104.6,79.2,108.7,77.3,109.7z"/>
		<path fill="#FF4D72" d="M57.9,94.9c-1.3,0-2.5-0.8-3-2l-4.2-10.2l-4.1-10c-0.5-1.3-0.1-2.8,1-3.7l5.9-4.7l6.9-5.5
			c0.5-0.4,1.2-0.7,1.9-0.7l6.8-0.2l5.6-0.2c1.3,0,2.5,0.7,3,2L81.8,70L86,80.2c0.5,1.2,0.2,2.6-0.8,3.5l-5,4.7l-5.7,5.3
			c-0.6,0.5-1.3,0.8-2.1,0.9l-7.8,0.2L57.9,94.9z"/>
	</g>
</g>
</svg>

