
<svg id="handleSVG" version="1.1" xmlns="http://www.w3.org/2000/svg" xmlns:xlink="http://www.w3.org/1999/xlink" x="0px" y="0px"
	 viewBox="0 0 97 121" enable-background="new 0 0 97 121" xml:space="preserve">
<g id="Layer_1">
	<path fill="#F47A8A" d="M48.8,60c-2.9-2.5-7.4-1.4-8.8,2.1c-0.9,2.2-0.1,7.6,1.7,9.1c4.2,3.5,8.5-1,10.4-3.7
		C52.9,66.3,50.5,61.6,48.8,60z"/>
</g>
<g id="handle">
	<g>
		<polygon fill="#ED6F86" points="44.5,64.6 45.6,93.4 52.3,93.4 52,89.3 49.3,89.3 48.4,65.4 		"/>
		<path fill="#FF4D72" d="M53.5,96.4c0,0,0.9-1,2.3-1c1.4,0,6.7,0.1,8.4,0.6c1.7,0.5,7.2,1.7,8.2-0.2c0,0,0.8-1,0.8-2.5
			c0.1-1.6,0.1-4.3-0.1-4.8c-0.2-0.5-1-1.8-2.5-2s-5.8,1.1-7.8,1.3c-2,0.2-7.2,1-8.1,0.7c-0.8-0.2-1.4-1.3-2.1-1.1s-1-0.2-1.1,1.5
			c-0.2,1.7-0.2,5.8-0.2,5.8S51.9,97.3,53.5,96.4z"/>
	</g>
</g>
</svg>
