<svg id="hormone1" class="hormone" version="1.1" xmlns="http://www.w3.org/2000/svg" xmlns:xlink="http://www.w3.org/1999/xlink" x="0px" y="0px"
	 viewBox="0 0 960 560" enable-background="new 0 0 960 560" xml:space="preserve">
<g>
	<path fill="#FFD394" d="M584.4,196.3c0,0,15.2,0,15.2-18.2l12.2-3v39.5c0,0,6.1,15.2-9.1,21.3c-15.2,6.1-33.4-3-27.3-15.2
		C581.4,208.4,584.4,196.3,584.4,196.3z"/>
	<path fill="#FFD394" d="M611.7,214.5c0,0,12.2,18.2,54.7,30.4c42.5,12.2,71.5,14.2,85.1,14.3c19.4,0.1,33.4,5.4,33.4,5.4
		s8.5,21.4-6.1,16.1c-24.7-9-48.6-8.5-69.9-11.5s-94.2-27.3-94.2-27.3L611.7,214.5z"/>
	<path fill="#73D7F2" d="M329.2,336c0,0-33.4,45.6-91.1,39.5s-129.5-69.7-139.8-85.1c-12.2-18.2-27.3-54.7-36.5-48.6
		c-9.1,6.1,3,42.5,15.2,54.7c12.2,12.2,79,69.9,103.3,85.1c24.3,15.2,91.1,18.2,106.3,12.2c15.2-6.1,51.6-42.5,51.6-42.5L329.2,336z
		"/>
	<path fill="#73D7F2" d="M286.7,293.5c0,0-115.4-79-133.7-100.3s-33.4-63.8-42.5-51.6c-9.1,12.2-3,24.3,9.1,39.5
		c12.2,15.2,148.9,127.6,164.1,133.7c15.2,6.1,15.2-18.2,15.2-18.2L286.7,293.5z"/>
	<path fill="#A4FF55" d="M344.4,147.7c0,0,85.1-54.7,130.6,21.3s72.9,127.6,82,173.2c9.1,45.6,6.1,100.3-33.4,127.6
		c-39.5,27.3-112.4,33.4-170.1-21.3s-67.8-59.2-79-100.3C265.4,314.8,210.7,211.5,344.4,147.7z"/>
	<path fill="#53D82E" d="M511.5,254l72.9-57.7c0,0-12.2,30.4,0,36.5c12.2,6.1,24.3-9.1,27.3-18.2c3-9.1,15.2-6.1,3,27.3
		c-12.2,33.4-18.2,48.6-54.7,48.6C523.6,290.5,508.4,287.4,511.5,254z"/>
	<path fill="#53D82E" d="M404.1,138.5c17.2-1,29.8,7.5,54.7,32.4c33.4,33.4,52.7,83,52.7,83s0,25.3,9.1,31.4
		c9.1,6.1,20.3,40.5,17.2,73.9c-3,33.4-8.1,82-29.4,85.1s-31.4-55.7-22.3-77c9.1-21.3,7.1-58.7,7.1-58.7s-34.4,92.2-61.8,101.3
		c-27.3,9.1-54.7-43.5-48.6-49.6c17.3-17.3,73.9-57.7,92.2-54.7c18.2,3-45.6-12.2-72.9,3c-27.3,15.2-75.8-11.9-54.7-27.3
		c20.1-14.7,53.8-12.9,100.3-6.1c28.4,4.2-114.4-52.7-102.3-67.9s47.6-2,71.9,10.1c24.3,12.2,36.5,45.6,36.5,45.6
		s-5.5-22.7-19.2-40.5c-18.5-24-40.1-50.9-43.5-60.8C386.3,148.6,401.2,138.7,404.1,138.5z"/>
	<path fill="#FFE000" d="M560.1,222.1c0,0-29.6-35.7-62.3-71s-68.4-70.3-80.5-68.7c-24.3,3,3,97.2,36.5,118.5
		S560.1,222.1,560.1,222.1z"/>
	<path fill="#FFE000" d="M490.2,64.1c12.2-15.2,45.6-15.2,45.6,6.1s24.3,151.9,24.3,151.9s-76-79.6-79-109.4
		C478.1,82.3,490.2,64.1,490.2,64.1z"/>
	<path fill="#FFD394" d="M563.1,226.7c0,0-14,6.7-9.1,18.2c9.1,21.3,33.4,82,60.8,85.1c0,0,91.1-3,109.4-18.2
		c18.2-15.2,0-15.2-18.2-9.1c-18.2,6.1-66.8,12.2-91.1,9.1C590.5,308.7,563.1,226.7,563.1,226.7z"/>
	<path fill="#FFD394" d="M578.3,147.6c-6.4-32.2,25.8-59.3,55.9-46.4c3.9,1.7,7.6,3.9,11,7c27.3,24.3,9.1,57.7-9.1,72.9
		c-18.2,15.2-39.5,12.2-48.6-3C583.9,172.1,580.7,160,578.3,147.6z"/>
	<path fill="#33922D" d="M615.8,77.8c-7.2,1.2-47.6,8.1-47.6,44.6c0,16-12.7,33.9-21.8,48.1c-3.9,6.1,25.7,6.9,32.7,5.2v0
		c4.7-1.2,7.9-5.6,7.6-10.4c-1-15.8-1.7-42.5,9.8-51.7c15.2-12.2,35.7-8.7,42.6,2.3c9.8,15.9,15.2,24.3,6.1,42.5
		c-8.3,16.6,21.2,8,26.5,6.3c0.5-0.2,1-0.4,1.5-0.6l2.3-1.1c4.9-2.5,30.5-11,16.8-15.3c-6.9-2.1-22.7-25.8-22.7-25.8
		S653.6,71.6,615.8,77.8z"/>
	<g>
		<polygon fill="#7F43A8" points="836.7,170.1 762,290.8 770.2,294.8 845.8,172.1 		"/>
		<polygon fill="#7F43A8" points="854.1,186.3 842,172.7 823.9,175 833.1,159.2 825.3,142.7 843.1,146.6 856.4,134.2 858.2,152.3 
			874.2,161.1 857.5,168.4 		"/>
	</g>
</g>
</svg>

<svg id="hormone2" class="hormone" version="1.1" xmlns="http://www.w3.org/2000/svg" xmlns:xlink="http://www.w3.org/1999/xlink" x="0px" y="0px"
	 viewBox="0 0 184 112" enable-background="new 0 0 184 112" xml:space="preserve">
<g>
	<path fill="#FFD394" d="M61.2,39.9c0,0-3.3,0-3.3-3.9l-2.6-0.6l0,8.5c0,0-1.3,3.3,2,4.6s7.2-0.7,5.9-3.3
		C61.9,42.5,61.2,39.9,61.2,39.9z"/>
	<path fill="#FFD394" d="M55.4,43.9c0,0-2.6,3.9-11.7,6.6s-15.6,3.3-18.3,2s-7.2-3.2-7.2-3.2s-1.9,3.9,1.3,4.6s10.4,2.6,15,1.9
		s20.2-6,20.2-6L55.4,43.9z"/>
	<path fill="#73D7F2" d="M116.1,69.7c0,0,7.2,9.8,19.6,8.4s27.7-15.1,29.9-18.4c2.6-3.9,5.8-11.8,7.8-10.5c2,1.3-0.6,9.1-3.2,11.8
		c-2.6,2.6-16.9,15.1-22.1,18.4c-5.2,3.3-19.6,4-22.8,2.7c-3.3-1.3-11.1-9.1-11.1-9.1L116.1,69.7z"/>
	<path fill="#73D7F2" d="M125.2,60.6c0,0,24.7-17.1,28.6-21.6s7.1-13.7,9.1-11.1s0.7,5.2-1.9,8.5s-31.9,27.5-35.1,28.8
		c-3.3,1.3-3.3-3.9-3.3-3.9L125.2,60.6z"/>
	<path fill="#A4FF55" d="M112.7,29.3c0,0-18.3-11.7-28,4.7S69.1,61.4,67.2,71.2C65.3,81,66,92.8,74.5,98.6
		c8.5,5.8,24.2,7.1,36.5-4.7s14.5-12.8,16.9-21.6C129.8,65.1,141.5,42.9,112.7,29.3z"/>
	<path fill="#53D82E" d="M76.9,52.3L61.2,39.9c0,0,2.6,6.5,0,7.8c-2.6,1.3-5.2-1.9-5.9-3.9c-0.7-2-3.3-1.3-0.6,5.9
		c2.6,7.2,4,10.4,11.8,10.4C74.3,60.1,77.6,59.4,76.9,52.3z"/>
	<path fill="#53D82E" d="M99.9,27.4c-3.7-0.2-6.4,1.6-11.7,7C81,41.6,76.9,52.3,76.9,52.3s0,5.4-1.9,6.7c-2,1.3-4.3,8.7-3.6,15.9
		c0.7,7.2,1.8,17.6,6.4,18.2c4.6,0.6,6.7-12,4.7-16.5C80.5,72,80.9,64,80.9,64s7.5,19.8,13.4,21.7c5.9,1.9,11.7-9.4,10.4-10.7
		c-3.7-3.7-15.9-12.3-19.8-11.7c-3.9,0.7,9.8-2.6,15.7,0.6s16.3-2.6,11.7-5.9c-4.3-3.1-11.6-2.7-21.5-1.2
		c-6.1,0.9,24.5-11.4,21.9-14.7c-2.6-3.3-10.2-0.4-15.4,2.2c-5.2,2.6-7.8,9.8-7.8,9.8s1.2-4.9,4.1-8.7c4-5.2,8.6-11,9.3-13.1
		C103.7,29.5,100.5,27.4,99.9,27.4z"/>
	<path fill="#FFE000" d="M66.5,45.5c0,0,6.3-7.7,13.3-15.3c7-7.6,14.6-15.1,17.2-14.8c5.2,0.6-0.6,20.9-7.7,25.5
		C82.1,45.4,66.5,45.5,66.5,45.5z"/>
	<path fill="#FFE000" d="M81.3,11.5c-2.6-3.3-9.8-3.2-9.8,1.3c0,4.6-5.1,32.6-5.1,32.6s16.3-17.2,16.9-23.6
		C84,15.4,81.3,11.5,81.3,11.5z"/>
	<path fill="#FFD394" d="M65.8,46.4c0,0,3,1.4,2,3.9c-1.9,4.6-7.1,17.6-13,18.3c0,0-19.6-0.6-23.5-3.8c-3.9-3.2,0-3.3,3.9-2
		s14.4,2.6,19.6,1.9C60,64.1,65.8,46.4,65.8,46.4z"/>
	<path fill="#FFD394" d="M62.5,29.5c1.3-6.9-5.6-12.7-12-9.9c-0.8,0.4-1.6,0.9-2.4,1.5c-5.9,5.2-1.9,12.4,2,15.6
		C54,40,58.6,39.3,60.5,36C61.3,34.7,62,32.1,62.5,29.5z"/>
	<path fill="#7F43A8" d="M54.4,14.5c1.5,0.2,10.2,1.7,10.3,9.5c0,3.4,2.8,7.3,4.7,10.3c0.8,1.3-5.5,1.5-7,1.1h0
		c-1-0.2-1.7-1.2-1.6-2.2c0.2-3.4,0.3-9.1-2.1-11.1c-3.3-2.6-7.7-1.8-9.1,0.5c-2.1,3.4-3.2,5.2-1.3,9.1c1.8,3.6-4.5,1.7-5.7,1.4
		c-0.1,0-0.2-0.1-0.3-0.1l-0.5-0.2c-1.1-0.5-6.6-2.3-3.6-3.3c1.5-0.5,4.9-5.6,4.9-5.6S46.2,13.2,54.4,14.5z"/>
	<polygon fill="#7F43A8" points="16,29.2 19.1,59.5 17.1,59.5 14,28.7 	"/>
	<polygon fill="#7F43A8" points="11.1,30.7 14.7,29.2 18,31.3 17.7,27.4 20.8,25 17,24 15.6,20.4 13.5,23.7 9.6,23.9 12.1,26.9 	"/>
</g>
</svg>



