<?xml version="1.0" encoding="utf-8"?>
<!-- Generator: Adobe Illustrator 18.1.1, SVG Export Plug-In . SVG Version: 6.00 Build 0)  -->
<!DOCTYPE svg PUBLIC "-//W3C//DTD SVG 1.1//EN" "http://www.w3.org/Graphics/SVG/1.1/DTD/svg11.dtd">
<svg version="1.1" id="Layer_1" xmlns="http://www.w3.org/2000/svg" xmlns:xlink="http://www.w3.org/1999/xlink" x="0px" y="0px"
	 viewBox="0 0 394 576" enable-background="new 0 0 394 576" xml:space="preserve">
<g>
	<polygon fill="#FF4D72" points="173.9,234.8 172.3,204.8 227.2,209.9 222.6,232.9 	"/>
	<g>
		<g>
			<ellipse fill="#447EAD" cx="213.4" cy="218.7" rx="9.6" ry="9.2"/>
			<g>
				<g>
					<polygon fill="#FF4D72" points="174.4,273.8 4.3,256.4 49,8.6 100.4,16.7 180.3,29.2 					"/>
					<polygon fill="#FF4D72" points="172.9,207.2 173.3,170.4 227.2,170.7 225,200.8 					"/>
					<polygon fill="#FF4D72" points="175.3,161 175.7,124.2 229.6,124.5 227.4,154.6 					"/>
					<polygon fill="#FF4D72" points="175.7,113.6 176.1,76.8 230,77.1 227.8,107.2 					"/>
					<polygon fill="#FF4D72" points="178.1,66.5 178.5,29.8 232.4,30 230.2,60.1 					"/>
					<polygon fill="#FF4D72" points="167.4,275.4 167.8,238.6 221.7,238.9 219.5,268.9 					"/>
					<path fill="#447EAD" d="M225.6,99.4c-2.8,4.8-9.1,6.6-14.1,3.9c-5-2.7-6.8-8.7-4.1-13.5c2.8-4.8,9.1-6.6,14.1-3.9
						C226.5,88.5,228.3,94.6,225.6,99.4z"/>
					<path fill="#447EAD" d="M229.7,142.2c-2.8,4.8-9.1,6.6-14.1,3.9c-5-2.7-6.8-8.7-4.1-13.5c2.8-4.8,9.1-6.6,14.1-3.9
						C230.6,131.3,232.5,137.4,229.7,142.2z"/>
					<path fill="#447EAD" d="M225.9,184.1c-2.8,4.8-9.1,6.6-14.1,3.9c-5-2.7-6.8-8.7-4.1-13.5c2.8-4.8,9.1-6.6,14.1-3.9
						C226.8,173.2,228.6,179.2,225.9,184.1z"/>
				</g>
				<ellipse fill="#447EAD" cx="217" cy="258.3" rx="9.6" ry="9.2"/>
				<ellipse fill="#447EAD" cx="220.7" cy="38.5" rx="9.6" ry="9.2"/>
			</g>
		</g>
		<polygon fill="#63AFFF" points="121.7,27.1 85.4,265.1 4.3,256.4 49,8.6 100.4,16.7 		"/>
	</g>
</g>
<g>
	<polygon fill="#FF4D72" points="361.8,489.1 191.9,567.6 72.8,343.3 125.9,321.9 208.6,288.5 	"/>
	<polygon fill="#FF4D72" points="317.2,436.1 293.7,406.3 344.1,377.1 361.6,402.6 	"/>
	<polygon fill="#FF4D72" points="289.4,397.5 265.9,367.7 316.4,338.5 333.8,364 	"/>
	<polygon fill="#FF4D72" points="259,359.1 235.5,329.2 285.9,300.1 303.4,325.6 	"/>
	<polygon fill="#FF4D72" points="230.7,319.8 207.2,289.9 257.6,260.8 275.1,286.3 	"/>
	<polygon fill="#FF4D72" points="349.6,488.3 326.1,458.5 376.5,429.3 394,454.8 	"/>
	<path fill="#447EAD" d="M296.3,320.5c0.5,5.4-4.2,10.2-10.6,10.8s-12-3.3-12.6-8.7c-0.5-5.4,4.2-10.2,10.6-10.8
		C290.1,311.2,295.7,315.1,296.3,320.5z"/>
	<path fill="#447EAD" d="M327.9,352.8c0.5,5.4-4.2,10.2-10.6,10.8c-6.4,0.6-12-3.3-12.6-8.7s4.2-10.2,10.6-10.8
		S327.4,347.4,327.9,352.8z"/>
	<path fill="#447EAD" d="M355.5,393.3c0.5,5.4-4.2,10.2-10.6,10.8s-12-3.3-12.6-8.7c-0.5-5.4,4.2-10.2,10.6-10.8
		S355,387.9,355.5,393.3z"/>
	<path fill="#447EAD" d="M382.8,445.4c3.3,4.1,2,9.8-3,12.7s-11.7,1.9-15-2.2c-3.3-4.1-2-9.8,3-12.7
		C372.8,440.3,379.5,441.3,382.8,445.4z"/>
	<path fill="#447EAD" d="M261.2,268.7c3.3,4.1,2,9.8-3,12.7c-5,2.9-11.7,1.9-15-2.2c-3.3-4.1-2-9.8,3-12.7
		C251.2,263.6,257.9,264.6,261.2,268.7z"/>
	<polygon fill="#FF8C00" points="155.2,310.3 271.9,532.2 191.9,567.6 72.5,343.9 123,321.1 	"/>
</g>
</svg>
