<?xml version="1.0" encoding="utf-8"?>
<!-- Generator: Adobe Illustrator 18.1.1, SVG Export Plug-In . SVG Version: 6.00 Build 0)  -->
<!DOCTYPE svg PUBLIC "-//W3C//DTD SVG 1.1//EN" "http://www.w3.org/Graphics/SVG/1.1/DTD/svg11.dtd">
<svg version="1.1" id="Layer_1" xmlns="http://www.w3.org/2000/svg" xmlns:xlink="http://www.w3.org/1999/xlink" x="0px" y="0px"
	 viewBox="442.7 8 396.7 712" enable-background="new 442.7 8 396.7 712" xml:space="preserve">
<g id="layer1_1_">
	<g id="g2859_1_">
		<path id="path2841_2_" d="M578.4,17.7C475.6,50.8,419.1,161,452.1,263.8c29.4,91.3,119.5,146.1,211.3,134.1
			c4,14.4,82.4,303.4,82.5,303.9c4.1,12.8,28.7,16.5,54.9,8.1c26.1-8.4,44-25.7,39.9-38.5l-109.9-295
			c81.6-43.7,123.1-140.8,93.7-232.1C791.4,41.4,681.2-15.3,578.4,17.7L578.4,17.7z M587.4,45.9c87.3-28,180.8,20,208.8,107.3
			c28,87.3-20,180.8-107.3,208.8S508,342,480.1,254.7C452.1,167.5,500.2,74,587.4,45.9z"/>
	</g>
</g>
<path fill="none" stroke="#000000" stroke-miterlimit="10" d="M832,206"/>
<path fill="#FFFFFF" fill-opacity="0.65" d="M638.9,345.7c-84.7,0-153.3-64.2-153.3-143.5c0-0.5,0-1,0-1.6c-0.7,5.4-1,11-1,16.6
	c0,79.3,68.6,143.5,153.3,143.5c84.1,0,152.4-63.4,153.3-141.9C782.4,290.2,717.6,345.7,638.9,345.7z"/>
<path fill="#FFFFFF" fill-opacity="0.55" d="M621,74.4l3.8-19C570,58.5,524.7,86.5,510,124C531.9,97,572.9,77.8,621,74.4z"/>
<path fill="#FFFFFF" fill-opacity="0.55" d="M637.4,55L634,75.5c1.4,0,2.8,0,4.2,0c55,0,103.4,18.5,131.8,46.6
	C749.6,83.1,698,55.3,637.4,55z"/>
</svg>
