
<svg version="1.1" id="Layer_1" xmlns="http://www.w3.org/2000/svg" xmlns:xlink="http://www.w3.org/1999/xlink" x="0px" y="0px"
	 viewBox="0 0 404 452" enable-background="new 0 0 404 452" xml:space="preserve">
<g>
	<g>
		<path id="path2839_2_" fill="#EDD9B7" stroke="#FFD394" stroke-width="6" stroke-miterlimit="10" d="M380.1,95.9
			c15.3,53.4-15.5,109.2-68.9,124.7c-53.4,15.3-109.2-15.5-124.7-68.9C171.3,98.3,202,42.5,255.4,27
			C309.1,11.5,364.8,42.3,380.1,95.9z"/>
		<g>
			<g>
				<defs>
					<circle id="SVGID_1_" cx="281.2" cy="123.1" r="117.5"/>
				</defs>
				<clipPath id="SVGID_2_">
					<use xlink:href="#SVGID_1_"  overflow="visible"/>
				</clipPath>
				<polygon clip-path="url(#SVGID_2_)" fill="#FF4D72" points="343.1,232 207.3,253.2 188.2,43.5 294.8,33 				"/>
			</g>
			<g>
				<defs>
					<circle id="SVGID_3_" cx="281.2" cy="123.1" r="117.5"/>
				</defs>
				<clipPath id="SVGID_4_">
					<use xlink:href="#SVGID_3_"  overflow="visible"/>
				</clipPath>
				<polygon clip-path="url(#SVGID_4_)" fill="#FF4D72" points="327.6,178.4 319.8,148.6 361.7,137.6 366.5,162.4 				"/>
			</g>
			<g>
				<defs>
					<circle id="SVGID_5_" cx="281.2" cy="123.1" r="117.5"/>
				</defs>
				<clipPath id="SVGID_6_">
					<use xlink:href="#SVGID_5_"  overflow="visible"/>
				</clipPath>
				<polygon clip-path="url(#SVGID_6_)" fill="#FF4D72" points="337.4,215.8 329.8,185.8 371.7,174.8 376.5,199.6 				"/>
			</g>
			<g>
				<defs>
					<circle id="SVGID_7_" cx="281.2" cy="123.1" r="117.5"/>
				</defs>
				<clipPath id="SVGID_8_">
					<use xlink:href="#SVGID_7_"  overflow="visible"/>
				</clipPath>
				<polygon clip-path="url(#SVGID_8_)" fill="#FF4D72" points="319.3,140.5 311.7,110.7 353.6,99.7 358.4,124.5 				"/>
			</g>
			<g>
				<defs>
					<circle id="SVGID_9_" cx="281.2" cy="123.1" r="117.5"/>
				</defs>
				<clipPath id="SVGID_10_">
					<use xlink:href="#SVGID_9_"  overflow="visible"/>
				</clipPath>
				<polygon clip-path="url(#SVGID_10_)" fill="#FF4D72" points="309.3,102.1 301.7,72.3 343.6,61.3 348.4,86.1 				"/>
			</g>
			<g>
				<defs>
					<circle id="SVGID_11_" cx="281.2" cy="123.1" r="117.5"/>
				</defs>
				<clipPath id="SVGID_12_">
					<use xlink:href="#SVGID_11_"  overflow="visible"/>
				</clipPath>
				<polygon clip-path="url(#SVGID_12_)" fill="#FF4D72" points="300.9,63.5 293.3,33.7 335.3,22.7 340,47.5 				"/>
			</g>
			<g>
				<defs>
					<circle id="SVGID_13_" cx="281.2" cy="123.1" r="117.5"/>
				</defs>
				<clipPath id="SVGID_14_">
					<use xlink:href="#SVGID_13_"  overflow="visible"/>
				</clipPath>
				<polygon clip-path="url(#SVGID_14_)" fill="#FF4D72" points="338.1,234.9 330.3,204.8 372.2,193.9 377,218.7 				"/>
			</g>
		</g>
		<g id="layer1">
			<g id="g2859">
				<path id="path2841" d="M274.3,4.9c-65.3,4.3-114.7,61-110.4,126.3c3.8,57.9,48.9,103.4,104.6,109.9c0.2,9.1,4.1,190.7,4.1,190.9
					c0.5,8.1,14.5,13.8,31.2,12.9c16.7-1,29.8-8.6,29.1-16.9l-21.5-189.7c54.3-13.8,93-64.8,89.1-122.8
					C396.1,49.9,339.6,0.3,274.3,4.9L274.3,4.9z M275.4,22.7c55.5-3.8,103.4,38.1,107.3,93.7S344.6,219.9,289,223.7
					c-55.5,3.8-103.4-38.1-107.3-93.7C178.2,74.5,220.1,26.3,275.4,22.7z"/>
			</g>
		</g>
	</g>
	<circle fill="#447EAD" cx="336.9" cy="78.3" r="8.3"/>
	<circle fill="#447EAD" cx="349.3" cy="112.1" r="8.3"/>
	<circle fill="#447EAD" cx="355.5" cy="146.7" r="8.3"/>
</g>
<g>
	<g>
		<g>
			<g>
				<g>
					<path fill="#5C8EB7" d="M318.8,94.5c0-0.2-0.3-0.5-0.6-0.1l0.1,0.7L318.8,94.5z"/>
					<path fill="#5C8EB7" d="M315.4,95.7c-0.3,0.6-0.4,1.5,0.2,1.7c0.1-0.9,0.3-0.7,0.4-1.7c0.3-0.4,0.8-0.4,0.9-0.1
						c0-0.2,0.7-0.4,0.7-0.9c-0.8,0-1.5,0.5-1.9,1.4C315.4,96.1,315.4,95.8,315.4,95.7z"/>
					<path fill="#5C8EB7" d="M277.9,127.8l0.3-0.2C278.1,127.6,278,127.7,277.9,127.8z"/>
					<path fill="#5C8EB7" d="M255.6,148.6c0.2-0.2,0.2-0.3,0.2-0.3C255.7,148.4,255.6,148.5,255.6,148.6z"/>
					<path fill="#5C8EB7" d="M251.3,151.5c0.1-0.1,0.2-0.1,0.3-0.2C251.5,151.4,251.4,151.5,251.3,151.5z"/>
					<path fill="#5C8EB7" d="M277.9,127.8l-0.7,0.4C277.3,128.4,277.6,128,277.9,127.8z"/>
					<path fill="#5C8EB7" d="M311.1,101.2c0.1-0.1,0.2-0.3,0.2-0.4C311.2,100.9,311.2,101,311.1,101.2
						C311.1,101.1,311.1,101.2,311.1,101.2z"/>
					<path fill="#5C8EB7" d="M287.3,118.1l0.2-0.2c0-0.1,0-0.2,0-0.3L287.3,118.1z"/>
					<path fill="#5C8EB7" d="M294.9,111c-0.2,0.1,0.1,0.6,0.2,0.9c-0.1-0.3,0-0.5,0.1-0.6C295.2,111.1,295.1,111.1,294.9,111z"/>
					<path fill="#5C8EB7" d="M307.9,100.9l0.2-0.2C308,100.7,307.9,100.8,307.9,100.9z"/>
					<path fill="#5C8EB7" d="M281.9,123.1c-0.1,0-0.1-0.1-0.2-0.1C281.7,123.1,281.8,123.1,281.9,123.1z"/>
					<path fill="#5C8EB7" d="M21.7,210.9C21.7,210.9,21.7,210.8,21.7,210.9C21.7,210.8,21.6,210.9,21.7,210.9z"/>
					<path fill="#5C8EB7" d="M10.5,205.8l0.2,0c0-0.1,0.1-0.2,0.1-0.3L10.5,205.8z"/>
					<path fill="#5C8EB7" d="M243.8,157.3C243.8,157.3,243.8,157.3,243.8,157.3C244,157.1,243.9,157.2,243.8,157.3z"/>
					<path fill="#5C8EB7" d="M169.5,200.9c1.1,0.2-1.3,1.1,0.3,1.2C169.6,202,170.8,200.9,169.5,200.9z"/>
					<path fill="#5C8EB7" d="M310.9,101.3c-0.1,0.1-0.2,0.2-0.3,0.3C310.7,101.5,310.8,101.4,310.9,101.3z"/>
					<path fill="#5C8EB7" d="M169.8,202.1L169.8,202.1l0.2,0C169.9,202.1,169.8,202.1,169.8,202.1z"/>
					<path fill="#5C8EB7" d="M226.9,170.9c0.1,0.1,0.2,0.1,0.3,0.1C227.2,170.9,227.1,170.9,226.9,170.9z"/>
					<path fill="#5C8EB7" d="M240.3,161.8l-0.4,0.2C240.1,161.9,240.2,161.8,240.3,161.8z"/>
					<path fill="#5C8EB7" d="M220.3,176.1c-0.2,0.1-0.3,0.1-0.5,0.3c0,0,0.1,0,0.1,0C219.9,176.3,220,176.2,220.3,176.1z"/>
					<path fill="#5C8EB7" d="M212.8,180.8c0.1,0,0.1,0,0.2,0c0.1-0.1,0.2-0.1,0.2-0.2L212.8,180.8z"/>
					<path fill="#5C8EB7" d="M48.4,215c-0.2-0.2-0.3-0.4-0.3-0.6C48.2,214.8,46.9,214.8,48.4,215z"/>
					<path fill="#5C8EB7" d="M310.9,100.9c0.1,0.1,0,0.2,0,0.4c0.1-0.1,0.1-0.1,0.2-0.2C311,101,311,100.9,310.9,100.9z"/>
					<path fill="#5C8EB7" d="M222.3,180.1l-1.2,0.7C221.5,180.6,221.9,180.4,222.3,180.1z"/>
					<path fill="#5C8EB7" d="M112.2,217.2l-0.3,0.1C112,217.3,112.1,217.2,112.2,217.2z"/>
					<path fill="#5C8EB7" d="M217.6,183.1c-0.3,0-0.6,0-0.9,0.1c0,0.1-0.1,0.1-0.1,0.2L217.6,183.1z"/>
					<path fill="#5C8EB7" d="M48.1,214.4L48.1,214.4L48.1,214.4z"/>
					<path fill="#5C8EB7" d="M38.7,214.4c1.3,0.2,0.7-0.6,1.1-1c1.6,0,0.7,0.6,1.1,1.1c1,0,1.9-0.6,2.6-0.5c0,0.1,0.2,0.2,0,0.3
						c1.1-0.4,3.1,0.4,4.4-0.1c0.1,0.1,0.1,0.1,0.1,0.2c-0.1-0.4-0.1-0.8-0.1-1c0.6,0.1,1.2-0.3,1.3,0.2c-0.4-0.1-0.4,0.1-0.6,0.3
						l0.7-0.1c0.5,0.8-0.9,0.1-1,0.6c1.3-0.1,2.7-0.5,3.7-0.2c0.1,0.7-2.2,0-1,0.7l-1.4-0.4c1,1.2-0.9-0.2,0,1.1
						c1.9,0.4,2.2-0.1,4.1,0.4c0.5-0.3-0.1-0.6,0.4-0.9c2.8-0.3,1.9,2,4,1.3c0.6-0.4,0.9-1.2,2.2-0.6l-0.6,0.7
						c1.8,0.3,1.2-1,3.1-0.3c-0.4,0.3-1.5,0.1-1.2,0.2c1.2,0.7,0.9-0.3,1.9-0.2l0.1,0.7c2,0.1,4.2-0.3,6.4-0.2
						c-0.1,0.2-0.5,0.4,0,0.6c1.4-0.1,2.9,0.1,4.3,0.3c1.5,0.2,2.9,0.5,4.2,0.7l1-0.5c0.2,0,0.4,0.3,0.2,0.4c1,0.3,0.1-0.4,0.6-0.6
						c0.6,0,0.8,0.4,0.4,0.5c1.9-0.4,5.3-0.9,7.2-0.3l-0.4,0.2c1.5,0.3,1.7-1.2,3.1-0.6l-0.3,0.1c1.6,0.2,3.4,0.1,5,0
						c1.6,0,3.2,0,4.4,0.5c0.2-0.4,1-0.3,1.8-0.3c0.8,0,1.5,0,1.6-0.6c1.9,0.5,1.4,0.7,4,1c0.7,0,1-0.8,1.9-1l0.1,0.6l1.1-0.7
						l0.7,0.7l0.8-0.2c-0.3,0-0.7-0.2-0.7-0.4c1.2-0.4,3.1,0.2,3.2,0.5l3-0.8c0,0.3-0.5,0.4-0.9,0.6c1.5-0.8,0.4,0.6,1.8-0.1
						c-0.2-0.1,0.1-0.4,0.1-0.5c0.4,0.2,1,0.2,1.7,0.2c0.7-0.1,1.4-0.2,2-0.3l-0.2,0.5c2.2-0.2,4.7-0.8,7.2-1.1
						c-0.9-0.1-0.8-0.8-0.1-1l0.4,0.6c0.4-0.5-0.8-0.1,0.1-0.8c0.9-0.1,0.7,0.6,0.2,0.9l1.1-0.4c0.1,0.2-0.2,0.3-0.2,0.6
						c0.4-0.5,2.1,0.3,2.6-0.5l0.1,0.2c2.5-0.4,3.6-0.8,5.6-1.2c-0.1-0.6,0.7-0.6,1.3-1.2c1.5-0.1,3.2,0,5-0.4
						c1.2-0.5,0.3-0.5,0.8-1c0.2,0.5,2,0.1,1.1,0.6c2.1-0.5,2.7-0.7,5.3-1.8c-0.3-0.1-0.7-0.1-0.6-0.4c0.5-0.2,1.2-0.1,1.1,0.2
						l-0.1,0.1c1.4-0.8,3.2-0.8,5-0.9c1.7-0.1,3.4-0.3,4.4-1.1l-0.1,0.1l2.3-1.3c1.2-0.3-0.6,0.6,0.4,0.6c2.4-1.6,4.2-1.3,6.2-2.5
						c2.2,0.8,5.8-2.2,8.4-2.3l-0.3-0.3c0.4-0.6,0.8-0.1,1.2-0.2c-0.2-0.2-0.7,0-0.5-0.4c4.6-2.4,10.1-3.8,15-5.9
						c1.8-0.8,0.2-2.1,2.7-2.5l-0.3,0.9c3.1-2.5,7.1-3.7,10.2-6.2c-0.1,0.2,0,0.4-0.4,0.6c0.9,0,2.6-1.5,2.4-1.8
						c0.5-0.3,0.3,0.2,0.7,0.2c0.8-0.2,1.5-1.6,2.1-1.4c0.1,0-0.1,0.2-0.2,0.4c0.3-0.5,2.2-1.2,1.4-1.4c1.4-0.5,2.2-1.6,3.4-1.9
						c0.3-0.9,2.3-1,2-1.9c0.4,0.8,2.5-0.7,3.1-1.6c-0.1,0.4,0.8-0.2,0.7,0.3c0.9-0.6,1.6-1.2,1.2-1.5c2.2-0.1,2.8-2.8,4.4-2.2
						c1.2-1,2.3-2.1,3.4-3c1.1-1,2.2-1.9,3.2-2.8c0.5,0.8-2.5,1.9-1.8,2.6c2-1.8,2.7-3.4,4.9-4.8c0.6-0.3-0.1,0.5-0.2,0.8
						c1.9-1.9,4-3.1,5.5-5c0,0.1-0.1,0.3-0.2,0.5c0.3-0.3,0.9-0.6,0.6-0.9l-0.3,0.4c-1,0,0.6-2.1,0.5-2.4c0.2,1.4,1.9-1.3,2,0.7
						c0.2-0.3,0.3-0.7,0.1-0.8c0.4-0.2,0.6-0.2,0.5,0.3c1.1-1.3,0.4-1.2,1.5-2.2c0.1,0.2,0,0.4,0,0.7c0.3-0.8,0.6-1.6,1.7-2.3
						c0,0.1,0.2,0.2,0,0.4c1.6-1.5,2-3.2,4.1-4.6c0.1,1.1,0.8-0.3,1.4,0.1l0.8-1L255,153c0.8-0.8,1.2-1.8,2-2.3l-0.4,0.8l1.4-1.5
						l-1.1,0.6c0.6-1.1-0.7-0.6,0.5-1.5c-0.2,0.3,0.8-0.8,1.5-0.8l0,0c0.2-0.5,0.5-1.1,1.2-1.6c0.3,0,0.4,0.7,0.7,0.7
						c0-0.8,1.8-1.9,1.8-2.9c-0.1,0.3,0.2,0.6,0.3,0.6l0-0.7c0.5-0.2,0.6-0.2,0.8,0.1c1.2-1-1-0.3,0.6-1.3c-0.1,0.1,0,0.1-0.1,0.4
						c1.5-1.1,2.4-2.7,3.8-3.7c0.9,0.2-0.9,1.2-0.1,1.2c1.7-1.8,3-4.2,4.9-5.7l-0.4,0.2c-0.5-1,1.6-0.8,2.2-2
						c-0.2,0.3,0.1,0.7,0.1,0.6c1.3-1,2.2-2.5,3.8-4.4l0,0.4c0.9-0.5,1.9-1.6,2.7-2.3c0-0.4,0.5-0.8,0-0.8c3.4-1.1,3.8-4.8,6.8-5.8
						c-0.2,0.2-0.4,0.7-0.2,0.5l1.6-1.8c-0.5-0.2-0.4,0-1,0.1c0-0.4,0.4-1,0.8-1.4c-0.6,1,0.5,0.5,1,0.4c-0.2-0.1-0.1-0.3-0.3-0.4
						c1.5-0.3-0.5-0.8,1.2-1.6l0.1,0.2c0.4-0.5,0.6-1.2,1.2-1.6c0.6,0.2-0.3,0.6-0.1,1c0.7-0.7,0.7-2.1,1.7-2.3
						c-0.2,0.4-0.6,0.8-0.8,1.2c1.1-0.2,1.1-0.4,1.7-0.8l-0.1,0l1.4-0.9l-0.4,0.2c0-1.8,1.7-1.9,2.3-3.6c-0.6,1.7,0.1,0.5,0.5,1.1
						c0.4-0.2,1-0.4,1-0.2c0.3-0.9,1.2-0.6,1.6-1.8c0.2,0.1,0.6-0.5,0.8,0c0.7-0.8-0.4-0.1-0.5-0.3c0.7-1.5,3.3-1.8,4.4-4
						c1.2-1.6,1.1-2.3,2.2-3.7c0.7-0.1,0.1,0.9,0.1,0.9c0.9-0.4,1.5-0.9,2-1.7c0,0.3,0.2,0.2,0.6,0.2c0.5-0.5-0.1-0.9,0.9-1.3
						c0,0.3,0.1,0.7-0.1,1.1c0.6-0.7,1-1.5,1.6-2.2c0.4,0.1-0.1,0.7-0.2,1.1c0.7-0.7,1.8-1.9,1.8-2.5l-0.6,0.3
						c0.3-0.2,0.4,0.2,0.3,0.5c-0.4,0.9-1.1,0.6-1.3,0.5l0.4-0.5c-1.2-0.5-1.9,1.8-2.9,2.5l-0.1-1l-0.6,1.4c-0.4,0-0.8-0.2-0.4-0.7
						c-1,0.3-0.4,0.8-1.3,0.9c-0.1,0-0.1-0.1-0.1-0.1l-0.5,0.8c0-0.2-0.5-0.4,0-0.6c-1.6,0.7-1.6,2.2-2.5,2.1l0.1-0.1
						c-1.5,1.7,0.2,0.6-0.6,2.3l-1.8-0.4l0.2,0.6c-0.2,0.1-0.6,0.4-0.7,0.2c-0.4,0.9,0.3,0.1,0.2,0.7c-1.2,0.3-2.1,2.2-3,1.7
						c0,0.6,1-0.4,0.4,0.6c-1-0.6-0.9,1.1-2,1.4c-0.1-0.6,0.8-1.1-0.3-0.7c0.2,1.1-1.6,1.2-2.1,1.9c0.5,0.6-1.2,1.5-2.1,2.6
						c-0.1-0.2-2.3,1.6-3.4,2.3l-0.1-0.1c0.3,0.7-0.8,1.6-1.4,2.4c-0.3-0.3-0.3-0.6,0-1.1l-0.7,0.7c0,0.3-0.1,0.6-0.5,1.1l-0.2-0.6
						c-0.9,0.9-1.4,2.2-2.8,3.1c0.3,0.4,1.9,0.1,0.9,1.6c-0.2-0.2-0.6-0.5-0.4-0.8c-0.1,0.1-0.2,0.5-0.5,0.6l0.2-0.8
						c-0.7,0.4,0,0.5-0.5,0.9c-0.3-0.3-0.5,0.1-0.7-0.2c0.1-0.1,0.5-0.2,0.5-0.5c-0.5,0.4-1.3,0.8-1.7,0.8c0.2,0.1,0.4,0.4,0,0.8
						c-0.9,0.9-0.6,0-1.3,0.3c0,0.4-0.8,0.8-0.4,1.2c-0.3,0.3-0.5,0.1-0.7,0.1c-0.3,0.6-2.2,2.2-1.2,2.1l0.1-0.1c0,0,0,0.1-0.1,0.1
						c0,0,0,0,0,0l0,0c-1.1,1.9-3.4,2.8-4.8,4.5l-0.1-0.1c-0.8,1-1.9,2.1-2.3,3c-0.3,0.3-0.9,0.4-0.9,0.1c-0.6,0.8-0.5,1-1.8,1.8
						c0.5-0.9-0.5,0,0.5-0.9c-1,0.8-1.5,0.7-2.1,2c0-0.7-1.1,0.2-1.5,0.7l0.9-0.4c-0.4,0.5-0.9,0.9-1.4,1.3l-0.2-0.7
						c-2.4,1.2-2.4,4.2-4.8,4.6c-0.2,0.8,1.2-0.7,1.2,0.1c-0.9,0.8-2.5,0.9-2.7,1.2c-1.4,0.9-0.4,1.7-1.8,2.7c0.3,0,0.9,0.3,0.1,1.4
						c-0.9,0.7-1.7,0.3-1.3-0.4c0.2-0.2,0.3-0.2,0.4-0.2c0.2-0.3,0.5-0.7,0-0.6l0,0.3c-0.6,0.2-1.8,1.4-1.8,0.8
						c-0.5,0.8,0,0.5,0.6,0.2c-1.3,0.8-1.7,1.6-3.1,2.5c0.3-0.1,0.6,0,0.4,0.1c-1.9,1.3-0.4,1-1.5,2.1c-0.9,0.3-0.3-0.9-1.3,0.4
						c-0.9,0.5-0.6-0.3-0.4-0.7c-0.7,1.3-2.2,1.6-2.8,2l0.4-0.6c-0.3,0.4-0.5,0.6-0.8,0.9l0.6,0.1c-0.4,0.2-0.7,0.5-0.8,0.3
						c-0.1,0.5,0.8,0.4,0.4,1.3c-0.6,0.2-1.2,1.4-1.7,1c1.5-1-0.6-0.3,0.5-1.4c-0.2,0.3-0.5,0.5-0.8,0.7c-0.1,0,0-0.1,0-0.2
						c-1.7,0.7-0.1,1.1-1.5,2.3c-0.1-0.4-0.8-0.2-0.9,0c0.6-0.5,0.7,0.2,0.3,0.9c-1.1,0.5-0.8,1-1.3,1.3l0.6-0.3
						c0,0.4-0.4,0.8-1,1.4c-0.2-0.2,0.5-0.6,0.1-0.5c-0.3,1.1-2,0.8-2.7,1.9c-0.6,0.2-0.5-0.5-1-0.3c-0.8,1.2-1.5,0.5-2.4,1.7
						c0.6,0.1,0.6,0,0.1,1l1.7-1.8l-0.8,1.5c0.6-0.4,1-1.2,1.4-1.4c-0.4,0.8-0.4,0.6,0.2,0.7c-1.2,0.1-1.3,1.6-2.6,1.9l-0.7-1
						c-1.7,0.7-2.1,2.3-4.2,3.4l0.7-0.2c0,0.6-1.1,0.9-1.6,1.4c-0.2-0.4-0.6-0.2-1-0.2c0.2,0.2-1.4,0.9-1.2,1.7l-1.1,0.1
						c-1.7,0.8-1.1,2.1-2.7,2.9c0.2-0.6-0.6-0.5,0.2-1.3c-0.5,0.3-1,0.5-0.8,0.8c-0.4,0-1.1,1.3-1.8,1.3c-0.1,0.3,0,0.7-0.5,1
						c-0.1,0-0.1-0.2-0.1-0.2c0.1,0.2-0.7,0.8,0,0.8c-2.2-0.1-4.3,2.8-6.2,2.7c-1,0.8-2.3,1.7-3.3,2.3c0-0.1-0.1-0.2,0.1-0.2
						c-1.6,0.5-0.3,1.5-2.1,2.1c-1.1-0.1,0.7-0.8,0-0.7c-0.9-1-1.8,1.3-3.3,1.2l0.2-0.2c-1,0.1-1.8,1.6-3.2,2.2c0,0,0-0.1-0.1-0.2
						c-0.6,1.1-2.3,2.2-3.5,3.1c0.2-0.7,0.5-0.6,0-0.9c-0.6,0.4,0.6,0.6-0.6,1.4c-0.5,0-1.5,0.2-1.8-0.3l1.1-0.6
						c-0.9-0.3-1.4,0.8-2.1,0.9l-0.1-0.3c-1.7,1-1.3,1.7-3.2,2.5l0.3,0.1c-0.7,1.2-1,0-1.8,1l-0.6-0.6c-0.6,0.5-2,1.8-3.2,2.5
						c0.4-0.9,1.7-1.8,2.5-2.5c-0.7,0.3-2.3,1.1-2.4,1.6c0.2-0.2,0.5-0.5,0.8-0.5c-0.6,0.9-1.5,1.7-2.9,2.3
						c-0.4-1.5-3.7,1.2-5.1,0.5c-1.1,0.7-2.3,1.2-3.6,1.6c-1.3,0.4-2.7,0.7-4.1,1.3c1.4,0.7-0.8,0.3-0.2,1.4c-0.6,0.3-0.9,0.4-1,0.3
						l-2.3,0c-0.6-0.2,0.5-0.5,0.4-0.7c-1.5,0.4-0.8-0.3-1.8-0.3c0.3,0.3-0.3,0.8-1.2,0.9l1.3,0.1c-1.8,1.3-2.1-0.4-3.9,0.9l0.5-0.6
						c-0.5,0.3-1.5,0.6-2.4,1c-1,0.4-1.9,0.8-2.3,1.4c-0.2-0.1-0.6-0.3-0.1-0.6c-2.6,0.6-5.5,2.5-7.6,2.4l0.1-0.3
						c-0.5,0.2-0.7,0.8-1.4,0.6c0-0.1,0.1-0.3-0.1-0.3c-0.2,0.2-1.2,0.8-1.8,0.8l0.5-0.5c-2.6,0.2-3.7,1.6-5.8,2.3
						c-0.2-0.9-2.2-0.7-3.3-0.7l0-0.1c-3,0.5-4.9,1.6-7.6,2.4c-1.9-0.6-5.9,0.4-8.7,0.2c0.4,0.1,0,0.7-0.5,0.8
						c-0.7-0.1-1.7,0.8-1.7,0l0.2,0c-0.6-0.7-1.9-0.4-2.9-0.3l-0.1,1.1c-2.9-1.3-7.2,1.2-8.8-0.1c-0.6,0.3-1.5,0.3-2.1,0.6l0-0.6
						c-1.8-0.1-2.8-0.1-5,0.2l0.4-0.4c-1.3,0-1.6,1.7-2.8,1.7l-0.4-0.8c-2.2,0-4.5-0.6-6.7,0.1c0-0.1,0.1-0.4,0.5-0.4
						c-1.1,0-4.1-0.6-3.7,0.5c0-0.8-2.3-0.1-3.5,0.2l0.2-0.6c-1,0.7-1.1,0.9-2.5,1c-0.3-0.1-0.3-0.5,0.2-0.3
						c-1.1-0.3-0.9,0.5-2.3,0.1l0.5-0.3c-1.2-0.1-1.1,0.1-1.7,0.5c-0.7,0.2-2.2-0.2-2.3-0.7c-0.2,0.3-0.8,0.7-1.5,0.5
						c-0.1-0.2,0.2-0.3,0.3-0.4c-1.9-0.4-2.9,0.5-4.2-0.2c0-0.2-0.1-0.3-0.2-0.3c1.5,0.1,2.8,0.2,2.7,0.3c0-0.5-1.2-0.7-0.2-1.3
						c-1,0.3-2.8,1-4,0.7c-0.1-0.1-0.1-0.1-0.1-0.2l0.1,0c-0.3-0.1-0.5,0-0.8,0c-0.4-0.1-0.6-0.2-1-0.2c-0.1-0.4-1.4-0.3-2-0.4
						c0,0.6-0.8,0.4-0.1,0.9c-0.1,0,0.1-0.1,0.5-0.1c0.1,0,0.2,0,0.3,0c0,0,0,0,0,0c0.4,0,0.9,0,1.5,0.1c-0.5,0.2-1,0.5-1.7,0.1
						c-0.3,0.3-0.7,0.7-0.9,0.8c-0.8-0.9-2.4-1.4-2.6-1.9c-1.9,0.1-4.5-0.2-5.8,0.7c-0.6,0.1-0.6-0.4-0.8-0.5c0.3-0.1,0.7,0,0.9-0.2
						c-1.1,0.2-3.2-0.3-3.5,0.4c-1.3-0.5,0.8-0.6-1-0.7l0.3-0.2c-3.5-1.6-6.2,1.1-10-1c0.3,0.1,0.4,0.2,0.4,0.3
						c-4.5-1.3-9.6-0.9-14-2.7c-1.3-0.4-1.5,0-2.3,0.2l-0.2-0.6l-1.5,0.4c-2,0.1-3-2.1-5.6-1.6l0.2,0.5c-0.9-0.2-2.8-0.3-2.6-0.7
						c-0.1,0.1-0.4,0.4-0.7,0.1l0-0.3l-2.2,0.1c-1.6-0.6,0.5-1.2-1.9-1.7c-0.9-0.1-2.7,0.4-2.4,0.7c0.4,0.1,0.9,0.4,0.8,0.7l-0.9,0
						c-0.3,0.9-1.2,1.7,0.7,2.7l1.5-0.3l0.4,0.5l-1.2-0.2c0.6,0.6,1.1,0.3,1.6,0.1c0.1,0.3,0.2,0.5,0.5,0.6l1.6-0.6
						c0.1,0.4-0.8,0.6,0.1,1c0.7-0.3-0.5-0.9,0.7-1c0.6,0.5,0.3,0.8,1.2,0.7c0.1,0.3-0.1,0.4-0.5,0.4c0.8-0.1,1.9,0.3,2.3-0.2
						c0.6,0.6,2.4,0.3,2.2,1.2c0.3-0.2,1.4-0.5,2-0.4c-1.4,0.8,2.4,0.5,1.9,1.6c1-0.8,3.2,0.2,4.9-0.1c-0.1,0.1-0.3,0.2-0.4,0.1
						c0.9,0.2,1.1,0.5,1.6,0.8c0.2-0.8,1.6-0.7,2.4-1.1c0.9,0.9-0.8,0.8-0.6,1.6c0.1-0.6,2-0.3,1.7-0.9c0.7,0.6,0.7,0.3,1,1.1
						c0.3-0.9,0.8,0,1.6-0.5c1.1,0.7,0.2,1,1.5,0.9C39.9,214.2,38.7,214.4,38.7,214.4z M70.1,216.3
						C70.1,216.3,70.1,216.3,70.1,216.3c-0.3,0-0.5,0-0.7,0C69.6,216.3,69.8,216.3,70.1,216.3z M72.8,216.5c-0.3,0-0.7-0.1-1.1-0.1
						c-0.1-0.2,0-0.4,0.3-0.4C71.8,216.1,72.4,216.3,72.8,216.5z M67.5,212.2c0.4,0,0.5,0.1,0.6,0.2c-0.2,0-0.4,0-0.7,0
						c0,0,0,0-0.1,0.1C67.4,212.4,67.4,212.3,67.5,212.2z"/>
					<path fill="#5C8EB7" d="M66.7,212.9c-0.1,0-0.1,0-0.2,0c0.1,0.1,0.2,0.1,0.2,0.1c0.1-0.1,0.1-0.1,0.2-0.2
						C66.9,212.9,66.8,212.9,66.7,212.9z"/>
					<path fill="#5C8EB7" d="M278.3,127.6L278.3,127.6C278.3,127.6,278.3,127.6,278.3,127.6C278.3,127.6,278.3,127.6,278.3,127.6z"
						/>
					<polygon fill="#5C8EB7" points="109.3,217.6 109.3,217.5 109.1,217.6 					"/>
					<path fill="#5C8EB7" d="M290.1,119c0.1,0,0.1,0,0.2,0C290.3,119,290.2,119,290.1,119z"/>
					<path fill="#5C8EB7" d="M294.8,114.9l0.8-0.4C295.2,114.6,295,114.7,294.8,114.9z"/>
					<path fill="#5C8EB7" d="M298.5,111.8c0-0.1-0.1-0.2-0.1-0.2l0,0L298.5,111.8z"/>
					<path fill="#5C8EB7" d="M242.9,164.5c0,0-0.1,0.1-0.1,0.1C242.6,165,242.8,164.7,242.9,164.5z"/>
					<path fill="#5C8EB7" d="M259.1,148.3c-0.1,0.2-0.2,0.5-0.4,0.7C259.1,148.7,259.3,148.5,259.1,148.3z"/>
					<path fill="#5C8EB7" d="M222.5,180C222.5,180,222.5,180,222.5,180c0,0-0.1,0-0.1,0.1L222.5,180z"/>
					<path fill="#5C8EB7" d="M258,149.7c0.4-0.2,0.6-0.4,0.8-0.7C258.5,149.1,258.2,149.4,258,149.7z"/>
					<path fill="#5C8EB7" d="M314.4,98.5l0.2-0.1c0,0,0-0.1,0-0.1L314.4,98.5z"/>
					<path fill="#5C8EB7" d="M314.6,98.3l0.2-0.2C314.7,98.2,314.6,98.2,314.6,98.3z"/>
					<path fill="#5C8EB7" d="M315.1,97.7l-0.3,0.4C314.9,98,315.1,97.9,315.1,97.7z"/>
					<path fill="#5C8EB7" d="M309.4,102.4l0.1,0.2C309.5,102.5,309.4,102.4,309.4,102.4z"/>
					<path fill="#5C8EB7" d="M308,103.6c0.4-0.3,1.2-0.4,1.6-0.9l-0.1-0.2C309.4,103,308.1,103.1,308,103.6z"/>
					<path fill="#5C8EB7" d="M300.2,107l1.3-0.9c-0.4,0-0.8,0.1-0.3-0.5C299.3,106.5,301.9,105.7,300.2,107z"/>
					<path fill="#5C8EB7" d="M296.2,110.1c0.6-0.7-0.2-0.2-0.3-0.3C295.7,110.3,295.6,110.4,296.2,110.1z"/>
					<path fill="#5C8EB7" d="M269.8,135.1l-0.3-0.4C269.1,135.2,269.6,134.8,269.8,135.1z"/>
					<polygon fill="#5C8EB7" points="266.6,141.8 267.3,141.6 267.2,141 					"/>
					<polygon fill="#5C8EB7" points="261.1,142 261.3,141.8 260.6,142.7 					"/>
					<path fill="#5C8EB7" d="M213.9,179.5l0.5,0.4C214.7,179.6,214.4,179,213.9,179.5z"/>
					<path fill="#5C8EB7" d="M191.2,192.7c-0.4-0.2-1.1,0-1.4,0.5C190.4,192.9,191,192.9,191.2,192.7z"/>
					<polygon fill="#5C8EB7" points="115.9,212.1 116.4,211.8 115.4,212.1 					"/>
				</g>
			</g>
		</g>
	</g>
</g>
<g>
	<g>
		<g>
			<g>
				<g>
					<path fill="#5C8EB7" d="M319.2,111c0.2,0,0.5-0.2,0.4-0.2l-0.6,0.1L319.2,111z"/>
					<path fill="#5C8EB7" d="M320.2,110c-0.3,0-0.9-0.1-1.5,0c0.7,0,0.4,0.1,1.2,0.1c0.1,0.1-0.2,0.2-0.4,0.2c0.2,0-0.1,0.2,0.3,0.1
						c0.5-0.3,0.5-0.4,0-0.4C319.9,110,320.1,110,320.2,110z"/>
					<path fill="#5C8EB7" d="M321.9,102.9L321.9,102.9C321.9,102.9,321.9,102.9,321.9,102.9z"/>
					<path fill="#5C8EB7" d="M323.1,98.5c0,0,0.1,0.1,0.1,0.1C323.2,98.5,323.1,98.5,323.1,98.5z"/>
					<path fill="#5C8EB7" d="M323.9,97.8C323.9,97.9,323.9,97.9,323.9,97.8C323.9,97.9,324,97.9,323.9,97.8z"/>
					<path fill="#5C8EB7" d="M321.9,102.9l0.2-0.1C322,102.8,322,102.8,321.9,102.9z"/>
					<path fill="#5C8EB7" d="M318.6,109c0,0,0.1,0.1,0.2,0.1c0,0-0.1,0-0.1-0.1C318.7,109,318.6,109,318.6,109z"/>
					<path fill="#5C8EB7" d="M322.2,104.9L322.2,104.9c0.1,0.1,0.2,0.1,0.3,0.1L322.2,104.9z"/>
					<path fill="#5C8EB7" d="M322.1,106.4c0,0-0.5-0.1-0.8-0.2c0.2,0,0.3,0.1,0.4,0.1C321.8,106.4,321.9,106.4,322.1,106.4z"/>
					<path fill="#5C8EB7" d="M320.9,108.7L320.9,108.7C320.9,108.7,320.9,108.7,320.9,108.7z"/>
					<path fill="#5C8EB7" d="M322.5,103.9c0.1,0,0.2,0,0.2,0C322.6,103.9,322.5,103.9,322.5,103.9z"/>
					<path fill="#5C8EB7" d="M297.5,94.2C297.5,94.2,297.5,94.1,297.5,94.2C297.5,94.2,297.5,94.2,297.5,94.2z"/>
					<polygon fill="#5C8EB7" points="295.2,91.9 295.2,91.9 295.1,91.5 					"/>
					<path fill="#5C8EB7" d="M324.9,96.5C324.9,96.5,324.9,96.5,324.9,96.5C324.9,96.6,324.9,96.6,324.9,96.5z"/>
					<path fill="#5C8EB7" d="M318.1,84.3c0.3,0.5-0.1,0.7,0.3,1.2C318.3,85.2,318.4,84.6,318.1,84.3z"/>
					<path fill="#5C8EB7" d="M318.7,108.9C318.7,108.9,318.6,108.9,318.7,108.9C318.6,108.9,318.6,108.9,318.7,108.9z"/>
					<path fill="#5C8EB7" d="M318.4,85.5L318.4,85.5L318.4,85.5C318.4,85.5,318.4,85.5,318.4,85.5z"/>
					<path fill="#5C8EB7" d="M325,93.2c-0.1,0-0.2,0-0.2,0C324.9,93.2,324.9,93.2,325,93.2z"/>
					<path fill="#5C8EB7" d="M323.9,95.5L323.9,95.5C323.9,95.5,323.9,95.5,323.9,95.5z"/>
					<path fill="#5C8EB7" d="M324.4,91.8C324.4,91.7,324.5,91.7,324.4,91.8C324.4,91.7,324.4,91.7,324.4,91.8
						C324.5,91.7,324.5,91.7,324.4,91.8z"/>
					<path fill="#5C8EB7" d="M324.5,90.4c0,0-0.1,0-0.1,0L324.5,90.4L324.5,90.4z"/>
					<path fill="#5C8EB7" d="M301.4,93c-0.1-0.1-0.1-0.3-0.2-0.5C301.3,92.9,301.2,93.1,301.4,93z"/>
					<path fill="#5C8EB7" d="M318.9,109c-0.1,0-0.2,0-0.2,0c0,0,0,0,0,0.1C318.8,109,318.9,109,318.9,109z"/>
					<path fill="#5C8EB7" d="M320,91.3l0.1-0.2C320,91.2,320,91.2,320,91.3z"/>
					<path fill="#5C8EB7" d="M310.5,90.8L310.5,90.8C310.5,90.9,310.5,90.9,310.5,90.8z"/>
					<path fill="#5C8EB7" d="M320,90.6c0.2,0,0.3,0,0.4-0.1c0,0-0.1,0-0.1,0L320,90.6z"/>
					<path fill="#5C8EB7" d="M301.2,92.5L301.2,92.5L301.2,92.5z"/>
					<path fill="#5C8EB7" d="M300.2,94.1c0.2,0-0.1-0.7-0.1-1.1c0.2-0.3,0.2,0.5,0.4,0.9c0.1-0.2,0.1-0.9,0.2-0.9
						c0,0.1,0.1,0.2,0.1,0.3c0-0.6,0.4-0.1,0.5-0.9c0,0.1,0,0.1,0.1,0.2c-0.1-0.4-0.2-0.7-0.3-1c0.1,0,0.1-0.5,0.2,0
						c-0.1,0,0,0.2,0,0.3l0-0.2c0.2,0.7-0.1,0.3,0,0.8c0.1-0.3,0.2-0.9,0.4-0.7c0.2,0.7-0.3,0.3,0.1,0.8l-0.3-0.2c0.4,1-0.1,0,0.3,1
						c0.3,0.1,0.2-0.4,0.6-0.3c0-0.4-0.1-0.5-0.2-0.9c0.2-0.8,0.7,1.6,0.8,0.6c0-0.5-0.2-1.3,0.1-0.9l0.1,0.8c0.3,0-0.1-1.1,0.3-0.7
						c0,0.3-0.2,0.3-0.1,0.4c0.3,0.5,0-0.5,0.2-0.5l0.2,0.7c0.3-0.2,0.5-0.7,0.8-0.9c0,0.2,0,0.4,0.1,0.6c0.3-0.4,0.9-0.1,1.3,0.2
						l0-0.6c0,0,0.1,0.2,0.1,0.4c0.2,0.2-0.1-0.4-0.1-0.6c0.1-0.1,0.2,0.3,0.2,0.5c0.2-0.5,0.5-1.2,0.9-0.7l0,0.2
						c0.3,0.2,0-1.2,0.3-0.7l0,0.1c0.5,0.1,0.9-0.5,1.5,0.3c-0.1-0.8,0.6,0.3,0.3-0.9c0.4,0.5,0.4,0.7,0.8,1c0.1,0,0-0.8,0.1-0.9
						l0.1,0.6l0-0.7l0.3,0.7l0.1-0.2c-0.1,0-0.2-0.2-0.2-0.4c0.1-0.3,0.5,0.3,0.6,0.6l0.3-0.6c0,0.2,0,0.3,0,0.5
						c0.1-0.7,0.2,0.6,0.3,0c-0.1-0.1-0.1-0.4-0.1-0.5c0.2,0.3,0.4,0.3,0.6,0.1L312,91c0.3,0,0.6-0.4,1-0.4c-0.2-0.2-0.3-0.9-0.2-1
						l0.2,0.6c0-0.4-0.2-0.2-0.1-0.7c0.2,0,0.3,0.7,0.2,0.9l0.1-0.3c0.1,0.2,0,0.3,0.1,0.5c0-0.4,0.4,0.6,0.4-0.1l0.1,0.2
						c0.4-0.1,0.5-0.3,0.8-0.4c-0.1-0.5,0-0.5,0-0.9c0.3,0.1,0.6,0.5,0.8,0.4c0.1-0.3-0.1-0.5,0-0.8c0.1,0.5,0.4,0.4,0.3,0.8
						c0.3-0.2,0.4-0.2,0.7-0.7c-0.1-0.2-0.2-0.3-0.2-0.4c0.1-0.1,0.2,0.2,0.3,0.4l0,0.1c0.3-0.9,1.4,1.2,1.5,0.1l0,0.1l0.2-0.6
						c0.2,0,0,0.4,0.2,0.7c0.2-0.9,0.7,0,0.8-0.7c0.1,0.4,0.3,0.5,0.4,0.6c0.1,0,0.1,0,0.1,0c0-0.1,0.1-0.3,0.1,0.2l0-0.4
						c0-0.4,0,0.2,0,0.3c0-0.3,0-0.3,0-0.5c0.1-0.2,0.3-0.1,0.2,0.2c0,0.3-0.2,0.6-0.3,0.7c-0.1,0.1,1.4-1.4,0.8-0.7
						c0,0-0.1,0.1-0.3,0.2c-0.1,0.1-0.3,0.2-0.3,0.2c0.3-0.2,0.4-0.1,0.4-0.1c0,0.1,0,0.1,0.3,0.1c-0.2,0-0.3,0.1-0.3,0
						c-0.5,0.1,0,0.1,0.4,0.1c0,0-0.4,0-0.6,0.1c-0.3,0,0.6,0.2,0.1,0.2c-0.1,0-0.2,0-0.2,0c0.2,0,0,0.2,0.5,0.2
						c-0.3,0.2,0.2,0.4-0.1,0.5c0.6,0.1-0.3,0.3,0.6,0.4c-0.9-0.1-0.7,0.3-0.3,0.4c-0.3-0.1-0.3,0.1-0.7,0c0,0.1,0.2,0.3,0.6,0.3
						c-1.1,0.1,0.8,0.6-0.6,0.6c0.4,0.5,0.7,0.9,0.9,1.4c-0.9-0.1,0-0.4-1-0.6c0.3,0.4,1.1,0.7,0.8,1.1c-0.1,0.1-0.4-0.1-0.5-0.2
						c0.3,0.4-0.2,0.7,0.2,1.1c-0.1,0-0.2-0.1-0.2-0.1c0,0.1-0.2,0.1,0.3,0.2l-0.1-0.1c0.6,0,1.2,0.5,1.5,0.5
						c-1.1-0.3-0.3,0.3-1.8-0.1c0.1,0.1,0.3,0.1,0.5,0.2c-0.1,0.1-0.3,0-0.5-0.1c0.2,0.3,0.6,0.3,0.6,0.5c-0.2,0-0.3-0.1-0.5-0.2
						c0.4,0.2,0.7,0.3,0.5,0.5c-0.1,0-0.3,0-0.3-0.1c0,0.3,0.9,0.7,0.5,1c-0.8-0.2-0.3,0.1-1,0l0.2,0.2l0.4,0c0,0.2,0.5,0.4,0.2,0.5
						l-0.3-0.2l0.1,0.3l0.3-0.1c0.4,0.2,0.9,0.1,0.7,0.3c-0.1-0.1,0,0.2-0.5,0.2l0,0c0.2,0.1,0.5,0.2,0.2,0.3c-0.2,0-0.8-0.2-1-0.2
						c0.6,0.2,0.1,0.4,0.7,0.6c-0.1-0.1-0.5-0.1-0.6-0.1l0.5,0.2c-0.2,0-0.3,0-0.6,0c-0.1,0.2,0.9,0.1,0.5,0.3c0,0-0.1,0-0.2-0.1
						c-0.3,0.2,0.2,0.6-0.1,0.8c-0.8-0.1-0.1-0.2-0.8-0.3c0.1,0.4,0.8,0.9,0.5,1.2l0.1-0.1c1,0.2-0.6,0.2-0.1,0.4
						c-0.1-0.1-0.6-0.2-0.5-0.1c-0.2,0.2,0.2,0.5,0.4,1l-0.3-0.1c-0.3,0.1-0.2,0.3-0.3,0.5c0.3,0.1,0.2,0.2,0.6,0.2
						c-1.6,0.2,0.7,1-0.7,1.2c0-0.1-0.2-0.2-0.2-0.1l0.2,0.4c0.5,0,0.3,0,0.7,0c0.3,0.1,0.5,0.2,0.4,0.3c-0.3-0.2-0.7-0.1-1-0.1
						c0.1,0,0.3,0.1,0.4,0.1c-0.8,0.1,0.9,0.2,0.3,0.3l-0.2,0c0.1,0.1,0.4,0.2,0.3,0.3c-0.5,0-0.2-0.1-0.7-0.2c0,0.2,1,0.4,0.4,0.5
						c-0.1-0.1-0.1-0.2-0.3-0.3c-0.6,0.1-0.5,0.1-0.6,0.2l0,0l-0.3,0.2l0.2,0c1.4,0.4,0.2,0.4,1.1,0.8c-0.8-0.3-0.5-0.1-1.1-0.2
						c-0.2,0-0.4,0.1-0.5,0.1c0.5,0.2-0.4,0.2,0.3,0.4c-0.2,0,0,0.1-0.5,0c0.1,0.2,0.3,0,0.6,0c0.6,0.3-0.9,0.5,0,0.9
						c0.4,0.3,1,0.4,1.3,0.7c-0.3,0.1-0.7-0.1-0.7-0.1c-0.3,0.1-0.3,0.3,0,0.4c-0.2,0-0.3,0-0.5,0c0.1,0.1,0.7,0.1,0.4,0.2
						c-0.2,0-0.6-0.1-0.8-0.1c0.2,0.2,0.6,0.3,0.7,0.4c-0.3,0.1-0.5-0.1-0.7-0.1c0.2,0.2,0.3,0.4,0.9,0.4l0.2-0.1
						c0,0.1-0.5,0.1-0.6,0c-0.4-0.1,0.2-0.2,0.4-0.2l0.1,0.1c1.1-0.2-0.2-0.4-0.1-0.6l0.8,0.1l-0.7-0.2c0.2,0,0.7-0.1,0.8,0
						c0.4-0.1-0.3-0.1,0.2-0.2c0.1,0,0.1,0,0.1,0l-0.2-0.1c0.2,0,0.6,0,0.5,0.1c0.5-0.2-0.6-0.4,0-0.5l0,0c-0.3-0.3-0.6-0.1-1.3-0.4
						l1.5,0l-0.6-0.1c0,0,0.1-0.1,0.3-0.1c-0.4-0.2-0.3,0-0.7-0.1c0.6-0.1-0.2-0.5,0.8-0.4c-0.5-0.1-0.4,0.1-0.7-0.1
						c1,0.1-0.2-0.2,0.3-0.3c0.5,0.1,0.2,0.2,0.7,0.1c-0.9-0.2,0.2-0.3,0.1-0.4c-0.7-0.1-0.3-0.3-0.5-0.6c0.2,0,0.5-0.3,0.7-0.5
						l0.1,0c-0.7-0.1-0.6-0.3-0.7-0.5c0.4,0.1,0.6,0.1,0.8,0.2l0-0.1c-0.2-0.1-0.3-0.1-0.4-0.2l0.5,0.1c0-0.2-0.6-0.5-0.2-0.6
						c-0.5-0.1-1.4,0-1.7-0.3c0.3,0,0.7,0.1,0.8,0.2c0,0-0.2-0.1-0.1-0.1l0.4,0.2c0.2-0.1-0.4-0.1-0.3-0.2c0.4,0.1,0.3,0,0.6,0
						c0,0-0.2,0,0,0.1c0.1-0.1,0.3-0.2,0.6-0.2c-0.2,0-0.5-0.1-0.6-0.2c0-0.2,0.5,0,0.7-0.1c-0.3-0.1,0-0.2-0.5-0.3
						c0-0.1,0.3,0,0.4,0c-0.2-0.1,0-0.5-0.6-0.5l0,0c0,0,0,0,0,0l0,0l0,0c-0.5-0.4,0.4-0.6,0.2-0.9l0.2,0c-0.2-0.2-0.1-0.4-0.5-0.6
						c0-0.1,0.4-0.1,0.6,0c-0.1-0.2-0.3-0.2,0-0.4c0.3,0.2,0.3,0,0.2,0.2c0.2-0.2,0.5-0.1,0-0.4c0.5,0.2,0.7,0,0.5-0.1l-0.4,0.1
						c-0.1-0.1,0-0.2,0.1-0.3l0.6,0.2c0.9-0.2-1.2-0.9,0.1-1c-0.4-0.2-0.4,0.1-0.9,0c0.1-0.2,1.1-0.2,1.1-0.2
						c0.4-0.2-0.9-0.4-0.6-0.6c-0.2,0-0.9-0.1-1.1-0.3c0.1-0.2,1,0,1.2,0.1c0,0-0.1,0.1-0.1,0c0.1,0.1,0.2,0.2,0.4,0.1l-0.2-0.1
						c0.3,0,0.3-0.3,0.6-0.2c-0.2-0.2-0.4-0.1-0.5,0c0.4-0.2,0.1-0.3,0.3-0.5c-0.1,0-0.4,0-0.4,0c0.3-0.3-0.4-0.2-0.5-0.5
						c0.4-0.1,0.8,0.2,0.6-0.1c0.3-0.1,0.6,0.1,0.8,0.2c-0.4-0.3,0.4-0.3,0.5-0.5l0.2,0.1c-0.1-0.1-0.1-0.1-0.1-0.2l-0.5,0
						c0.1-0.1,0.1-0.1,0.3-0.1c-0.3-0.1-0.8-0.1-1.2-0.3c0.3,0-0.2-0.3,0.4-0.2c-0.3,0.2,0.6,0.1,0.7,0.3c-0.1-0.1-0.1-0.1,0-0.2
						c0.1,0,0.1,0,0.2,0.1c0.6-0.2-0.7-0.2-0.6-0.5c0.3,0.1,0.7,0,0.6,0c0,0.1-0.6,0-0.8-0.2c0.3-0.1-0.2-0.2-0.1-0.3l-0.1,0.1
						c-0.3-0.1-0.3-0.2-0.4-0.3c0.3,0,0.2,0.1,0.3,0.1c-0.6-0.2,0.7-0.2,0.3-0.5c0.3-0.1,0.7,0.1,0.8,0c-0.4-0.3,0.5-0.2,0.2-0.4
						c-0.5,0-0.4,0-0.8-0.2l0.3,0.4l-0.6-0.3c0,0.1,0.3,0.3,0.2,0.3c-0.4-0.2-0.3-0.1-0.7-0.1c0.7,0-0.4-0.4,0.1-0.5l1.2,0.2
						c0.6-0.2-0.5-0.6-0.2-0.9l-0.2,0.1c-0.5-0.1,0-0.2-0.2-0.4c0.4,0.1,0.5,0,0.8,0c-0.3,0,0.1-0.3-0.7-0.4l0.5-0.1
						c0.2-0.3-1.1-0.5-0.9-0.7c0.4,0.1,0.7,0,1,0.2c0-0.1,0.1-0.2-0.2-0.2c0.3,0-0.5-0.3-0.1-0.4c-0.2-0.1-0.6-0.1-0.5-0.2
						c0.1,0,0.2,0,0.2,0c-0.2,0-0.2-0.2-0.7-0.1c1.2-0.2,0-0.8,1-1c-0.1-0.2-0.2-0.5-0.3-0.7c0.1,0,0.2,0,0.2,0
						c0.4-0.3-1.1-0.1-0.7-0.5c0.6-0.2,0.3,0.2,0.6,0c1.3-0.2-0.2-0.4,0.5-0.8l0.1,0.1c0.4-0.3-0.6-0.4-0.6-0.7c0,0,0.1,0,0.2-0.1
						c-0.7,0-1-0.2-1.3-0.3c0.5-0.2,0.3,0,0.7-0.4c-0.1-0.1-0.7,0.5-0.9,0.4c0.2-0.2,0.3-0.5,0.7-0.9l0.2,0.2
						c0.5-0.6-0.2-0.3-0.2-0.5l0.2-0.2c-0.3-0.3-0.9,0.3-1.1,0l-0.1,0.2c-0.6,0.5,0.1-0.5-0.4-0.1l0.4-0.7c-0.2,0.1-0.8,0.4-1.1,0.4
						c0.4-0.5,0.8-0.6,1.2-0.8c-0.1-0.1-0.5-0.2-0.8,0.1c0.1,0,0.2-0.2,0.3-0.1c-0.5,0.5-0.8,0.7-1,0.6c0.3-0.7,0.1-0.9-0.1-0.9
						c-0.2-0.1-0.5-0.1-0.5-0.7c-0.3,0.3-0.6,0.3-1,0.2c-0.3-0.1-0.8-0.2-1,0c0.4,1.1-0.1,0.1,0.2,1.2c-0.1,0.1-0.1,0.1-0.2,0
						l-0.5-0.6c-0.2-0.3,0-0.3,0-0.6c-0.2,0-0.2-0.5-0.4-0.8c0.1,0.4,0.1,0.6-0.1,0.5l0.3,0.5c-0.2,0.7-0.5-0.9-0.7-0.2l0-0.4
						c-0.1,0.3-0.6,0.1-0.5,1.1c-0.1-0.1-0.2-0.4-0.1-0.6c-0.4-0.1-0.6,1.2-1.1,0.7l0-0.3c-0.1,0.1,0,0.6-0.2,0.3
						c0-0.1,0-0.3-0.1-0.3c0,0.1-0.1,0.6-0.2,0.4l0-0.3c-0.5-0.3-0.4,0.9-0.7,1.2c-0.2-0.9-0.6-1.1-0.7-1.2l0-0.1
						c-0.5,0-0.6,0.9-0.9,1.3c-0.5-0.9-1-0.2-1.5-0.6c0.1,0.1,0.1,0.7,0.1,0.8c-0.1-0.2-0.1,0.7-0.3-0.1l0,0
						c-0.3-0.8-0.4-0.5-0.6-0.5l0.2,1c-0.8-1.4-0.9,0.8-1.5-0.5c0,0.3-0.2,0.3-0.2,0.6l-0.1-0.6c-0.3-0.1-0.5-0.1-0.8,0.1l0-0.4
						c-0.2,0,0.1,1.6,0,1.7l-0.2-0.8c-0.3,0.1-0.8-0.6-1,0.3c0-0.1-0.1-0.4,0-0.4c-0.2,0-0.7-0.4-0.4,0.7c-0.2-0.7-0.4,0-0.5,0.4
						l-0.1-0.5c0,0.7,0.1,0.9-0.1,1.2c-0.1-0.1-0.1-0.4,0-0.3c-0.2-0.2,0,0.5-0.3,0.3l0-0.4c-0.2,0-0.1,0.2-0.1,0.6
						c-0.1,0.2-0.4-0.1-0.5-0.5c0,0.3,0,0.7-0.1,0.6c-0.1-0.2,0-0.3,0-0.4c-0.4-0.3-0.3,0.7-0.6,0.2c0-0.2-0.1-0.3-0.1-0.3
						c0.2,0,0.4-0.1,0.4,0c-0.1-0.5-0.3-0.5-0.3-1.3c-0.1,0.4-0.1,1.3-0.3,1.1c0,0,0-0.1-0.1-0.2l0-0.1c-0.1,0-0.1,0-0.1,0.1
						c-0.1-0.1-0.1-0.1-0.2-0.1c-0.1-0.4-0.3-0.2-0.4-0.2c0.1,0.5,0,0.5,0.2,0.9c0,0,0-0.1,0.1-0.1c0,0,0,0,0-0.1l0,0
						c0.1,0,0.1-0.1,0.2-0.1c0,0.3,0,0.5-0.2,0.3c0,0.4,0.1,0.7,0.1,0.9c-0.3-0.7-0.6-1.1-0.8-1.6c-0.2,0.4-0.6,0.4-0.5,1.4
						c0,0.2-0.2-0.3-0.2-0.4c0-0.1,0.1-0.1,0.1-0.3c-0.1,0.3-0.4,0.2-0.3,0.9c-0.3-0.3,0-0.7-0.3-0.5l0-0.2c-0.8-1-0.4,2-1.4,0.7
						c0.1,0.1,0.1,0.1,0.1,0.2c-0.8-0.5-1.3,0.9-2.2,0.1c-0.2-0.2-0.2,0.3-0.2,0.7l-0.2-0.6l0,0.7c-0.2,0.6-0.8-1.3-1-0.3l0.1,0.4
						c-0.1,0-0.3,0.3-0.4-0.1c0,0.1,0.1,0.4,0,0.2l-0.1-0.3l-0.2,0.6c-0.3-0.2-0.2-1.2-0.6-1.2c-0.1,0.1-0.2,1-0.1,1.2
						c0.1,0,0.2,0.2,0.3,0.5l-0.1,0.2c0.2,0.9,0.3,1.9,0.8,2.4l0.1-0.6l0.2,0.4l-0.2,0.1c0.2,0.4,0.2,0,0.2-0.3
						c0.1,0.2,0.1,0.4,0.2,0.5l0-0.9c0.1,0.3,0.1,0.7,0.3,0.9c0-0.4-0.3-0.8-0.2-1.1c0.2,0.4,0.2,0.7,0.3,0.4
						c0.1,0.2,0.1,0.4,0.1,0.5c0-0.3,0.2-0.2,0.2-0.7c0.2,0.5,0.3-0.2,0.5,0.6c0-0.2,0-0.7,0.1-0.8c0.1,1.1,0.4,0,0.6,1.1
						c-0.1-1,0.4-0.5,0.5-1.1c0,0.1,0,0.2,0,0.2c0.1,0,0.2,0.3,0.4,0.5c-0.2-0.8,0-1,0-1.5c0.3,0.7,0.1,0.9,0.3,1.6
						c-0.2-0.6,0.1-0.7,0-1.2c0.2,0.4,0.2,0.2,0.4,0.8c-0.2-1,0.1-0.2,0-0.8c0.3,0.4,0.3,0.9,0.4,0.5
						C300.2,93.8,300.2,94.1,300.2,94.1z M304.3,91.4C304.3,91.4,304.3,91.5,304.3,91.4C304.3,91.5,304.2,91.5,304.3,91.4
						C304.2,91.5,304.3,91.5,304.3,91.4z M304.7,91.3c-0.1,0-0.1,0-0.2,0c-0.1-0.2-0.1-0.4,0-0.4C304.5,91.1,304.6,91.2,304.7,91.3z
						 M303,87.7c0-0.1,0.1,0,0.1,0.1c0,0-0.1,0-0.1,0.1c0,0,0,0,0,0.1C303,87.9,303,87.8,303,87.7z"/>
					<path fill="#5C8EB7" d="M303,88.5C303,88.5,303,88.5,303,88.5c0,0.1,0,0.1,0,0.2L303,88.5L303,88.5z"/>
					<path fill="#5C8EB7" d="M321.8,102.9L321.8,102.9C321.8,102.9,321.8,102.9,321.8,102.9C321.8,102.9,321.8,102.9,321.8,102.9z"
						/>
					<polygon fill="#5C8EB7" points="310.2,91.2 310.1,91 310.1,91.2 					"/>
					<path fill="#5C8EB7" d="M319.6,104.8c0,0-0.1,0-0.1,0C319.5,104.8,319.5,104.8,319.6,104.8z"/>
					<path fill="#5C8EB7" d="M319.4,105.7l-0.2,0.1C319.3,105.7,319.3,105.7,319.4,105.7z"/>
					<path fill="#5C8EB7" d="M319,106.4c0.1,0,0.2,0,0.2,0l0,0L319,106.4z"/>
					<path fill="#5C8EB7" d="M320.2,95C320.2,95,320.2,95,320.2,95C320,94.9,320.1,94.9,320.2,95z"/>
					<path fill="#5C8EB7" d="M320.9,98.5c-0.1-0.1-0.2-0.1-0.2-0.2C320.6,98.4,320.6,98.5,320.9,98.5z"/>
					<path fill="#5C8EB7" d="M320,91.3L320,91.3C320,91.3,320,91.3,320,91.3L320,91.3z"/>
					<path fill="#5C8EB7" d="M320.7,98.2c-0.1,0-0.1,0.1,0,0.2C320.7,98.3,320.8,98.3,320.7,98.2z"/>
					<path fill="#5C8EB7" d="M318.6,109.8L318.6,109.8C318.6,109.8,318.6,109.8,318.6,109.8L318.6,109.8z"/>
					<path fill="#5C8EB7" d="M318.6,109.8L318.6,109.8C318.7,109.8,318.7,109.8,318.6,109.8z"/>
					<path fill="#5C8EB7" d="M318.8,109.9l-0.1-0.1C318.7,109.9,318.7,109.9,318.8,109.9z"/>
					<path fill="#5C8EB7" d="M318.8,108.6l-0.2,0C318.6,108.6,318.7,108.6,318.8,108.6z"/>
					<path fill="#5C8EB7" d="M318.8,108.3c-0.1,0.1-0.4,0.2-0.3,0.3l0.2,0C318.3,108.6,319.1,108.4,318.8,108.3z"/>
					<path fill="#5C8EB7" d="M321.4,107.3l-0.2,0.2c0.2,0,0.5,0,0.6,0.1C322.4,107.3,321.2,107.6,321.4,107.3z"/>
					<path fill="#5C8EB7" d="M321.8,106.6c0.1,0.1,0.3,0,0.4,0.1C322,106.6,322,106.5,321.8,106.6z"/>
					<path fill="#5C8EB7" d="M322.6,101.3l0.5,0.1C323,101.3,322.9,101.4,322.6,101.3z"/>
					<polygon fill="#5C8EB7" points="320.1,99.9 319.8,99.9 320.3,100 					"/>
					<polygon fill="#5C8EB7" points="323.8,99.9 323.9,100 323.7,99.8 					"/>
					<path fill="#5C8EB7" d="M325,90.6l-0.6,0C324.5,90.7,325.2,90.8,325,90.6z"/>
					<path fill="#5C8EB7" d="M322.8,85.7c0.2-0.3,0.2-0.6-0.1-0.4C322.8,85.5,322.7,85.7,322.8,85.7z"/>
					<polygon fill="#5C8EB7" points="310,86 310.1,85.8 310,86 					"/>
				</g>
			</g>
		</g>
	</g>
</g>
</svg>
