<svg version="1.1" id="gallbladderSVG" xmlns="http://www.w3.org/2000/svg" xmlns:xlink="http://www.w3.org/1999/xlink" x="0px" y="0px"
	 viewBox="0 0 174.8 230.5" enable-background="new 0 0 174.8 230.5" xml:space="preserve">
<path id="gallbladder" fill="#0400E9" stroke="#2400E9" stroke-miterlimit="10" d="M158.1,177c-1.2-21.1-2.9-37.2-5.6-39
	c-5.1-3.3-40.4-10.1-50.5,1.7C91.9,151.5,66.7,202,53.2,212s-33.6,26.9-43.6,13.4c-10.1-13.5-15.1-37,0-48.8
	c15.1-11.8,43.7-38.7,62.3-42.1c18.5-3.3,32-5.1,50.5-15.1c18.5-10.1,33.7-15.1,30.3-38.7s-13.5-42.1-23.5-53.9
	c-10-11.8-20.4-26.9-12-26.9s33.7,37,33.7,37s6.7-35.3,13.5-38.7c6.8-3.3,11.8-5.1,10.1,5.1s-11.9,35.2-10.1,48.7
	c1.7,13.5,5.1,102.7,6.7,116.1c0.3,2,0.4,4.2,0.6,6.7L158.1,177z"/>
</svg>


<svg version="1.1" id="pancreas_buttonSVG" xmlns="http://www.w3.org/2000/svg" xmlns:xlink="http://www.w3.org/1999/xlink" x="0px" y="0px"
	 viewBox="0 0 39.3 42" enable-background="new 0 0 39.3 42" xml:space="preserve">
<path id="pancreas_button" fill="#7638B2" stroke="#54069F" stroke-width="0.1" stroke-miterlimit="10" d="M39.3,18.7
	c0,11.6-8.7,23.3-19.6,23.3C8.9,42,0,32.6,0,21S8.7,0,19.6,0S39.3,7.1,39.3,18.7z"/>
</svg>



