
<svg id= "other_organs" version="1.1" xmlns="http://www.w3.org/2000/svg" xmlns:xlink="http://www.w3.org/1999/xlink" x="0px" y="0px"
	 viewBox="0 0 874.9 800.1" enable-background="new 0 0 874.9 800.1" xml:space="preserve">
<g id="liver">
	<path fill="#E2869C" d="M34.5,566.3c0,0-24.6,45.7-28.1-98.5S-7.7,246.3,9.9,190S62.6,52.9,154.1,24.8S273.6,0.1,291.2,0.1
		c17.6,0,102,10.6,126.6,17.6c24.6,7,98.5,17.6,116.1,21.1c17.6,3.5,95,7,133.6,7s137.2,7,158.3,17.6s38.7,38.7,38.7,38.7
		s-33.7,10.7-68.7,25.1c-18.1,7.4-36.5,15.8-50.9,24.2c-42.2,24.6-77.4,52.8-95,66.8c-17.6,14.1-52.8,70.3-95,77.4
		c-42.2,7-7,31.7-24.6,45.7c-17.6,14.1-63.3,49.2-87.9,59.8c-24.6,10.6-109-7-140.7,10.6c-31.7,17.6-38.7,35.2-66.8,59.8
		s-119.6,80.9-144.2,91.4S34.5,566.3,34.5,566.3z"/>
</g>
<g id="gallbladder_tube">
	<g>
		<circle id="5bubble" class="bubble" fill="#AEE0E8" stroke="#FFFFCC" stroke-miterlimit="10" cx="252.3" cy="769" r="15"/>

		<circle id="2bubble" class="bubble" fill="#AEE0E8" stroke="#FFFFCC" stroke-miterlimit="10" cx="270.3" cy="749.4" r="13.7"/>

		<circle id="3bubble" class="bubble" fill="#AEE0E8" stroke="#FFFFCC" stroke-miterlimit="10" cx="271.2" cy="768.5" r="11.5"/>

		<circle id="7bubble" class="bubble" fill="#AEE0E8" stroke="#FFFFCC" stroke-miterlimit="10" cx="226.4" cy="759.6" r="7.9"/>

		<circle id="1bubble" class="bubble" fill="#AEE0E8" stroke="#FFFFCC" stroke-miterlimit="10" cx="281.7" cy="738.6" r="7.1"/>

		<circle id="6bubble" class="bubble" fill="#AEE0E8" stroke="#FFFFCC" stroke-miterlimit="10" cx="238.8" cy="766.7" r="11.9"/>

		<circle id="7bubble" class="bubble" fill="#AEE0E8" stroke="#FFFFCC" stroke-miterlimit="10" cx="275.3" cy="755" r="10.6"/>
	</g>
	<path fill="#0400E9" stroke="#2400E9" stroke-miterlimit="10" d="M363.1,512.6l-32.3,121c-4,14.2-17.3,54.7-24.7,69.3
		c-1.6,3.3-18.4,3.3-28.3,5.2c-4.1,0.8-3.5,25.3,0.1,26c7.8,1.7,11.1,2.2,13.4-0.3c2.6-2.9,3.5-17,3.5-17s14.7,2.5,18-3
		c9-15,26-64.3,28.5-70.5c6.1-15,26.1-90.5,31.5-102.5c1.1-2.5,2.6-10.4,4.2-20.8L363.1,512.6z"/>
</g>
<g id="pancreas">
	<path fill="#54069F" stroke="#2400E9" stroke-miterlimit="10" d="M399.4,512.7c0,0-29.9,22.9-38.7,3.5
		c-8.8-19.3-45.7-86.2,5.3-107.3s80.9-12.3,89.7-7c8.8,5.3-7-19.3,12.3-19.3s42.2,3.5,47.5,10.6c5.3,7,12.3-1.8,31.7-5.3
		c19.3-3.5,38.7,10.6,38.7,10.6s0-3.5,17.6-5.3c17.6-1.8,49.2,3.5,49.2,3.5s15.8-1.8,26.4-5.3c10.6-3.5,31.7-10.6,36.9-5.3
		c5.3,5.3,26.4-3.5,33.4-5.3c7-1.8,28.1-10.6,38.7-3.5c10.6,7,29.9,14.1,26.4,24.6c-3.5,10.6,12.3,44-7,56.3
		c-19.3,12.3-61.5,38.7-82.6,40.4c-21.1,1.8-40.4,12.3-59.8,7s-8.8,7-31.7,5.3c-22.9-1.8-31.7-14.1-36.9-12.3
		c-5.3,1.8,8.8,15.8-8.8,17.6c-17.6,1.8-29.9,21.1-49.2,8.8c-19.3-12.3-17.6-7-33.4,1.8c-15.8,8.8-28.1,12.3-33.4,5.3
		c-5.3-7,10.6-1.8-21.1-1.8s-61.5,0-56.3-8.8S399.4,512.7,399.4,512.7z"/>
</g>
<g id="pancreas_slide">
	<g>
		<g>
			<path fill="#CBD6E0" d="M353.9,652c-2.5-4.2,6.9-9.6,9.9-10.2c4.7-0.9,31.3-0.2,19.5,18.7c-11.8,18.9-33.4,37-40,44.7
				c-7.2,8.4-28.5,25.7-28.5,25.7l-13.3,0.7c0,0,6.2-3.9,15.3-14.7c10.2-12,23.9-20.4,32.7-30.7s30.9-23.5,29.5-28.4
				s-10.1-15.1-15.1-11.2s1.7,12.3,5.7,10.3C361.9,657.7,354.8,658.2,353.9,652z"/>
		</g>
		<g>
			<path fill="#CBD6E0" d="M410.5,602.5c-6-6.4-25.1-17.6-25.1-17.6v11.3c4.4,3.4,24.6,6.4,22.1,14.2L410.5,602.5z"/>
		</g>
		<g>
			<path fill="#AEE0E8" d="M391,586.3c6-1.5,8.5-0.8,18.3-11c9.8-10.2,43.4-83.4,45.9-88.9c0.9-2,25.8-49.1,24.2-45.2l-7-4.1
				c0,0-56.1,130.4-69.4,133c-6.2,1.2-22.1,7.8-21.4,15.4c0.3,3.6,0.4,8,4.8,11.4C386.4,596.8,384.3,587.9,391,586.3z"/>
		</g>
		<g>
			<path fill="#CBD6E0" d="M405,621.1c0.5-9.6-3-13.5-15.2-15.1c-7.3-0.9-15.3,5.9-18.3,9.4c-1.6,1.8-1.1,6,1.5,10.1l9.6,5.2
				c-6.1-1.5-3.6-9.6,1.7-12.9c5.3-3.3,6.7-3.3,12.5,4.1c1.4,1.7,2.4,4,2.6,5.6L405,621.1z"/>
		</g>
		<path fill="#AEE0E8" d="M405,606c-1.1,2.2-6.1,8.5-7,9.5s-5,9.6-13.6,9.6c-2.6,0-11.4,0.5-11.4,0.5c2.3,3.7,6.6,6.6,12,8.9
			c14.1,6.1,30.5-18.7,28.9-26.6c-0.8-3.8-5.9-6.8-8.8-10C405,597.8,406,603.8,405,606z"/>
		<g>
			<path fill="#AEE0E8" d="M353.9,652c0.3,2.9,2.9,8.3,11.5,10.3c20.4,4.9,35.8-20.6,39.5-33.1c0.5-1.6-0.1-7.1,0-8.2l-5.6,6.4
				c0.5,5.4-4.8,9.6-7.6,13.3c-3.7,4.9-20.3,13.1-24.3,15.1C367.5,655.9,358.4,659.4,353.9,652"/>
		</g>
	</g>
	<g>
		<path id="splat" fill="#7638B2" d="M297.8,745.6c16.3,1.7,17.1-0.4-1.9,29c19.9-22.8,22.6-25.6,17.3,0c10.7-20.5,11.9-23.5,22.2,4
			c-9.4-26.5-8.6-27.3,9.8-5.9c-17.2-24.2-16.7-25.9,5.2-19.1c-21.3-10.5-22.5-11.6-10.3-15.8c-16.2,2.3-19.4,1.9-27.4-11.1
			c5.1,9.7,5.9,6.8-1.7-24.4c8.8,29.4,4.6,35.5-15.1,21.6C315.5,737.9,317.8,739,297.8,745.6z"/>
	</g>
	<path id="splat_mask" fill="none" stroke-width="62" stroke-linecap="round" stroke-miterlimit="10" d="M306.5,700.9
		c0,0-10.7,25,0,36c10.7,11,36.3,35,36.3,35l10.7,6.8"/>
</g>
</svg>
