
<svg id="saliva_top" version="1.1" xmlns="http://www.w3.org/2000/svg" xmlns:xlink="http://www.w3.org/1999/xlink" x="0px" y="0px"
	 viewBox="0 0 285 343.1" enable-background="new 0 0 285 343.1" xml:space="preserve">
<path id="top_glandTube" fill="#AEE0E8" d="M187,115.9c0,0-11.1,133.4-21.4,138.5s-92.3,5.1-92.3,5.1l-12,1.7v23.9h8.5l1.7-12l106-5.1
	c5.1-20.5,20.5-143.6,20.5-143.6L187,115.9z"/>
<path id="top_gland" class="gland" fill="#AEE0E8" d="M274.6,81.5c0.5-5.9-0.8-11.4-3.5-15.7c1.6-3.5,2.7-7.4,3-11.5c1.8-19.8-12.7-37.3-32.5-39.2
	c-1.1-0.1-2.3-0.2-3.4-0.1C235.6,7.6,229.1,2,221,1.2c-9.7-0.9-18.5,5.5-21.3,14.8c-18.1,0.2-33.2,12.5-34.7,29
	c-0.2,2.4-0.1,4.7,0.2,7c-8.7,2.5-15.3,9.7-16.1,18.7c-0.2,2.4,0,4.7,0.5,6.8c-8.9-0.6-16.8,6.3-17.7,15.7
	c-0.9,9.5,5.8,17.9,14.8,18.7c2.5,0.2,4.9-0.2,7.2-1c-0.9,1.9-1.4,3.9-1.6,6.1c-1.1,11.5,8.8,21.9,22,23.1c0.1,0,0.1,0,0.2,0
	c0.3,8.5,6.9,15.7,15.6,16.5c9.3,0.9,17.6-5.9,18.7-15.1c0.7,0.2,1.5,0.4,2.2,0.5c7.8,0.7,15-7,15.9-17.4c0.1-1.4,0.1-2.8,0-4.2
	c2.6,2.4,5.6,3.9,9,4.3c9.9,0.9,19.1-8.9,21.5-22.5C266.3,100.9,273.6,92.4,274.6,81.5z"/>

<path id="salivaTop" fill="#73D7F2" d="M20.1,244.5c0,0-12,13.7-6.8,18.8c5.1,5.1,5.1,12,10.3,17.1c5.1,5.1-22.2,10.3-18.8,17.1
	c3.4,6.8,3.4,6.8,3.4,6.8s18.8-5.1,22.2,1.7c3.4,6.8-3.4,13.7,1.7,13.7s29.1,1.7,29.1-6.8s8.5-27.4,8.5-27.4h-8.5l-13.1,14.8
	c0,0-9.1-2.8-5.7-19.9c3.4-17.1,18.8-16,15.4-26.8c-3.4-10.8-10.3-24.5-18.8-17.7C30.4,242.8,20.1,244.5,20.1,244.5z"/>
<path id="saliva_maskTop" fill="none" stroke-width="40" stroke-linecap="round" stroke-linejoin="round" stroke-miterlimit="10" d="
	M70.5,284.2c0,0-0.5,31.4-16.2,30.7c-10.5-0.5-12.3-2.8-23-11c-13-10-5.5-21-5.5-21s4.5-29.5,21.3-36.7"/>
</svg>
