
<svg id="saliva_bottom" version="1.1" xmlns="http://www.w3.org/2000/svg" xmlns:xlink="http://www.w3.org/1999/xlink" x="0px" y="0px"
	 viewBox="0 0 308 296.8" enable-background="new 0 0 308 296.8" xml:space="preserve">
<g id="fxAH3q.tif">
	<g>
		<path id="bottom_gland" class="gland" fill="#AEE0E8" d="M79.9,286.5c-1.9,1.7-3.4,3.4-5.2,4.7c-7,5.4-14.8,6.7-23.1,3.8c-1.8-0.6-3.2-0.6-4.9,0.3
			c-4.6,2.4-9,1.8-13.2-1.2c-1.4-1-3.2-1.7-4.8-1.8c-12.6-0.4-21.4-11.6-17.5-23c0.9-2.7,3.2-4.9,4.6-7.4c0.6-1,1.2-2.4,1-3.4
			c-2.4-9.7-0.2-18.2,7.4-24.7c7.8-6.7,16.8-7.7,26.4-4.5c1.8,0.6,3.6,1.4,5.2,2.1c2.6-4,4.7-8.3,7.8-11.7c8.1-8.7,18.4-11.2,29.7-8
			c11.2,3.1,18.2,10.6,20.2,22.2c0.5,3,1.6,4.1,4.7,4.6c7.5,1.2,13,5.4,15,13c0.8,3,2.9,3.3,5.1,3.9c13.7,4.3,19.1,20.4,10.5,31.3
			c-7.2,9.1-20.6,11.2-29.9,4.2c-3.1-2.3-5-2.2-8,0c-8.5,6.1-19.4,5.3-27.5-1.5C82.3,288.5,81.2,287.6,79.9,286.5z"/>
	</g>
</g>
<path id="bottom_rightGland" class="gland" fill="#AEE0E8" d="M276.8,170.7c-0.3,0-0.5,0-0.8,0c-3.7-12.2-13.7-21-25.5-21c-13.3,0-24.4,11.3-26.6,26.1
	c-1.8-0.4-3.7-0.6-5.7-0.6c-16.2,0-29.2,13.4-29.2,30c0,16.6,13.1,30,29.2,30c7,0,13.4-2.5,18.4-6.7c3.9,3.2,9,5.2,14.6,5.2
	c11.3,0,20.6-8.1,21.7-18.4c1.2,0.2,2.5,0.4,3.8,0.4c12,0,21.7-10.1,21.7-22.5S288.8,170.7,276.8,170.7z"/>
<polygon id="bottom_glandTubeLeft" fill="#AEE0E8" points="55.6,238.2 64.6,83.7 82.6,82.2 84.1,67.2 93.1,65.7 88.6,88.2 69.1,89.7 60.1,244.2 "/>
<polygon id="bottom_glandTubeRight" fill="#AEE0E8" points="237.1,187.2 106.5,252.1 111,255.1 238.6,190.2 "/>
<path id="salivaBottom" fill="#73D7F2" d="M83.9,66.2c0,0,8.4-18.7,1.4-20.7s-1,4-12,2s-17-7-10-13s14-12,5-14s-4-17,6-16s24,5,21,17s-18,10-11,14
	s11,3,10,13s-1.4,16.2-1.4,16.2L83.9,66.2z"/>
<path id="saliva_maskBottom" fill="none" stroke-width="20" stroke-linecap="round" stroke-linejoin="round" stroke-miterlimit="10" d="
	M86.7,70.3c0,0,5.3-19.8,2.7-23.2L64.7,41l18-16.7l10-10l-22.7-2"/>
</svg>
