
<svg version="1.1" id="intestineSVG" xmlns="http://www.w3.org/2000/svg" xmlns:xlink="http://www.w3.org/1999/xlink" x="0px"
	 y="0px" viewBox="0 0 1200 1200" enable-background="new 0 0 1200 1200" xml:space="preserve">
<g id="intestine_background">
	<path fill="#53D82E" d="M42.3,360.5c0,0,26.8-180.3,79.5-219.5S321.4,33.3,386.9,21.9s332.3-6.8,420.5,0.7s230.7,85.3,264.6,118.2
		c34,32.9,77.8,125.9,82.2,148c4.4,22,30,331,13.4,359.4c-16.6,28.4-44.9,132.1-94.6,188C1023.4,892,995.2,951.6,930.4,961
		c-64.8,9.4-159,43.6-164.5,36.2c-5.5-7.3-356.1-3.6-394.9-8.8s-159.3-55.3-234.3-164.2S15.5,521.3,42.3,360.5z"/>
</g>
<g id="jujunom" class="maze">
	<path fill="#00FFE3" d="M1056.6,364.6c-1.8-51.5-8.9-151-65.7-175.9c-56.9-24.9-83.5,26.6-103,51.5s71.1,97.7,49.7,115.5
		c-21.3,17.8-28.4-23.1-51.5-60.4s-32-26.6-60.4-16c-28.4,10.7-32,48-44.4,76.4c-12.4,28.4-32,51.5-65.7,64
		c-33.8,12.4-53.3,1.8-67.5-5.3c-14.2-7.1-10.7-49.7-10.7-49.7l-71.1,48c0,0,21.3,67.5,32,87.1c10.7,19.5,46.2,51.5,129.7,65.7
		s127.9-26.6,149.2-55.1c21.3-28.4-14.2-60.4,1.8-81.7c14.7-19.5,57.5,50.1,76.9,75.8c1.3,7.4,2.5,17.9,3,32.6
		c1.8,44.4-21.3,81.7-53.3,108.4c-32,26.6-108.4-35.5-147.5-49.7c-30.2-11-115.5-40.9-138.6-3.6c-23.1,37.3-48,72.8-23.1,99.5
		c24.9,26.6,95.4,15.5,91.8,49.2s0.5,92.9-51,107.1c-2.5,0.7-4.7,1.4-6.8,2.3c-12.2,3.7-36.9,1.2-36.9,1.2s-94.6,0-147.9-21.3
		c-53.3-21.3-89.3-42.6-127.9-56c-38.6-13.3-44,2.7-77.3,22.7c-33.3,20-48-9.3-48-9.3s-5.9,12.2-5.9,34.8
		c0,22.7-33.8,47.5-23.1,51.5s52.9-10.4,108.9-27.7c56-17.3,118.6,55.7,198.5,78.6c72.9,21,108.5,10.3,152.9,1.4
		c30.2-7.1,48.9-9.2,91.5-40.9c62.2-46.2,88.8-108.4,71.1-142.1c-17.8-33.8-81.1-76.5-74.4-88c6.8-11.5,49.5,43.6,104.6,63.2
		s97.7,74.6,149.2,42.6c51.5-32,71.1-94.2,81.7-156.3c8.4-49.5,10.2-125.9,10.6-155.1C1063,423.8,1057.9,398.9,1056.6,364.6z"/>
</g>
<g id="duo">
	<path fill="#EDD9B7" stroke="#FFD394" stroke-width="6" stroke-miterlimit="10" d="M347.2,63.4c0,0-130.8,17-178.8,66.2
		s-51.8,118.5-33.3,140.1c18.5,21.6,33.8,44.2,101.2,48.2c51.5,3.1,112.3,16.4,179.4-37.1s108.5-44.2,118.9-15.4
		c5.9,16.3,13.9,72.4,25.3,119.4c9,36.5,26.1,79.4,26.1,79.4s77.4-41.7,69.8-43.4c-12-2.7-17.9-75.4-18.5-95
		c-1.3-40.5-23.3-107.5-44.2-125.8c-30.3-26.4-68.2-51.3-116-32.6s-78.6,60.4-131,36s-65.7-66.4-22.2-71.2
		c43.5-4.8,85.5-35.7,85.5-35.7L347.2,63.4z"/>
</g>
<g id="large_intestine">
	<path fill="#E4FFBF" stroke="#A4FF55" stroke-miterlimit="10" d="M1071.2,88.4c-19.7-15.9-233.6,78.1-322.5,129.9
		S407.7,329.7,358.3,333.7c-28.5,2.3-94.7-0.8-153.1-3.9c-42.6-2.2-81.2-4.4-97.9-4.4c-39.5,0-48.1,1.4-48.1,1.4s-12,7.7-25.1,167.8
		C19.3,675.5,162.5,872.9,162.5,872.9s56.6-69.1,13.8-127.5c-39.1-53.3-68.6-123.8-62.2-247.6c4.1-80.1,13.1-63.9,32.9-83.8
		c19.7-19.9,232.9,29,336.6,21.1c103.7-7.9,333.3-174.6,367.8-198.5s149-84.7,183.6-40.9c34.6,43.8,56.1,159.3,56.1,258.8
		s-29.7,246.9-69.1,326.5c-39.5,79.7-83.9,63.7-197.6,91.6c-113.6,27.9-217.3,55.8-276.5,83.6c-24.6,11.5-33.3,68.2-38.4,92.2
		c-21.2,10.3-28.7,20.7-30.3,41.6c-1.5,18.6,13.5,22.5,30.3,39.1c6.8,49.2,29.4,71.5,43.3,30.3c3.5-10.3-5.8-22.5-5.7-36.9
		c13.7-9.3,25.7-1.2,38.6-30c0,0-13.9-25.8-34.3-43.7c7.1-19,34.8-61.9,55.8-76.6c74.1-51.8,261.8-31.9,360.6-75.7
		c98.8-43.8,74.1-51.8,108.6-91.6c34.6-39.8,85.5-225.3,96.4-294C1182.4,448.9,1091,104.3,1071.2,88.4z"/>
</g>

<path id="nutrient_path" fill="none" d="M618,447c0,0,25,39,65,42s69,10,93-12s40-53,53-83s16-59,33-43s51,64,72,54s27-29,28-38s-10.4-48.6-11-67c-1-29,47-47,66,8c0,0,9,91,9,186s-19,159-34,175s-45,62-102,42s-143-94-195-89s-86,45-57,60s61-11,86,32s12,102-3,119s-80,64-142,63s-215-65-248-70s-68-10-96,0s-54,17-54,17"/>
</svg>
