<svg version="1.1" id="sphincterSVG" xmlns="http://www.w3.org/2000/svg" xmlns:xlink="http://www.w3.org/1999/xlink" x="0px" y="0px"
	 viewBox="0 0 376.5 217.5" enable-background="new 0 0 376.5 217.5" xml:space="preserve">
<g id="sphincter">
	<g>
		<path fill="#73D7F2" d="M303,140.8c-1.4-2-0.7-4.7,1.4-5.8l0.8-0.4l1.1-0.6c2-1.1,4.5-0.2,5.5,1.8l1.6,3.2l1.5,3.2
			c1,2.1,0.1,4.5-2,5.4l-0.1,0.1l-0.9,0.4c-1.8,0.8-3.8,0.2-4.9-1.4l-2.3-3.4L303,140.8z"/>
		<path fill="#73D7F2" d="M264.1,29.8c1.9,1.5,2.1,4.3,0.3,6l-0.6,0.6l-0.9,0.9c-1.6,1.6-4.2,1.5-5.8-0.1l-2.5-2.6l-2.4-2.6
			c-1.6-1.7-1.4-4.3,0.3-5.8l0.1,0l0.8-0.7c1.5-1.2,3.6-1.3,5.1-0.1l3.3,2.6L264.1,29.8z"/>
		<path fill="#73D7F2" d="M350.7,89.4c-2.4,0.1-4.4-1.9-4.2-4.3l0.1-0.8l0.1-1.2c0.2-2.3,2.1-3.9,4.4-3.7l3.7,0.4l3.6,0.3
			c2.3,0.2,3.9,2.3,3.6,4.6l0,0l-0.1,1c-0.3,1.9-1.9,3.3-3.8,3.4l-4.3,0.2L350.7,89.4z"/>
		<path fill="#73D7F2" d="M341.5,113.6c-2.3-0.7-3.5-3.3-2.5-5.5l0.3-0.7l0.5-1.2c0.9-2.1,3.3-3,5.4-2l3.4,1.6l3.2,1.5
			c2.1,1,2.9,3.5,1.8,5.6l0,0l-0.5,0.9c-0.9,1.7-2.9,2.5-4.7,1.9l-4.1-1.2L341.5,113.6z"/>
		<path fill="#73D7F2" d="M325.4,129.1c-2.1-1.2-2.7-4-1.2-5.9l0.5-0.7l0.8-1c1.4-1.8,3.9-2.1,5.7-0.7l2.9,2.3l2.8,2.2
			c1.8,1.4,2,4.1,0.5,5.8l0,0l-0.7,0.8c-1.3,1.4-3.4,1.8-5,0.8l-3.7-2.1L325.4,129.1z"/>
		<path fill="#73D7F2" d="M280.7,139.8c0.1-2.4,2.2-4.2,4.5-3.9l1,0.1l1.2,0.1c2.3,0.3,3.9,2.4,3.5,4.7l-0.6,3.5l-0.7,3.6
			c-0.4,2.2-2.6,3.7-4.8,3.2l-0.2,0l-0.9-0.2c-1.9-0.4-3.3-2.1-3.2-4.1l0.1-4.1L280.7,139.8z"/>
		<path fill="#73D7F2" d="M258.8,130.2c1.1-2.1,3.8-2.7,5.8-1.4l0.8,0.5l0.9,0.6c1.9,1.3,2.4,3.9,1,5.8l-2.2,2.9l-2.3,3
			c-1.4,1.8-3.9,2.1-5.7,0.7l-0.1-0.1l-0.7-0.5c-1.5-1.2-2-3.4-1-5.1l2-3.6L258.8,130.2z"/>
		<path fill="#73D7F2" d="M242.1,111c2.1-1.2,4.7-0.4,5.7,1.8l0.4,0.8l0.5,1c1,2.1,0,4.5-2.1,5.4l-3.4,1.4l-3.4,1.4
			c-2.1,0.9-4.5-0.2-5.3-2.3l0,0l-0.3-0.8c-0.7-1.8,0.1-3.9,1.7-4.8l3.7-2.2L242.1,111z"/>
		<path fill="#73D7F2" d="M233.5,87.5c2.3-0.8,4.7,0.5,5.3,2.8l0.2,0.8l0.3,1.1c0.6,2.2-0.8,4.4-3.1,4.9l-3.6,0.8l-3.6,0.8
			c-2.2,0.5-4.4-1-4.8-3.3l0,0l-0.2-0.9c-0.3-1.9,0.8-3.8,2.6-4.4l4-1.5L233.5,87.5z"/>
		<path fill="#73D7F2" d="M234.5,65.5c2.4-0.2,4.4,1.9,4.3,4.3l0,0.8l-0.1,1.2c-0.1,2.3-2.1,4-4.4,3.8l-3.7-0.3l-3.6-0.3
			c-2.3-0.2-4-2.3-3.6-4.6l0,0l0.1-1c0.3-1.9,1.8-3.3,3.7-3.5l4.3-0.3L234.5,65.5z"/>
		<path fill="#73D7F2" d="M247.3,45c2.3,0.7,3.5,3.3,2.5,5.5l-0.3,0.7l-0.5,1.2c-0.9,2.1-3.4,2.9-5.4,2l-3.3-1.6l-3.2-1.5
			c-2.1-1-2.9-3.5-1.8-5.6l0,0l0.5-0.9c0.9-1.7,2.9-2.5,4.7-1.9l4.1,1.2L247.3,45z"/>
		<path fill="#73D7F2" d="M294.2,24.4c0.8,2.3-0.5,4.7-2.9,5.3l-0.9,0.2l-1.2,0.3c-2.2,0.5-4.5-0.9-4.9-3.2l-0.7-3.5L283,20
			c-0.4-2.2,1.1-4.4,3.3-4.7l0.2,0l1-0.2c1.9-0.3,3.8,0.8,4.4,2.6l1.4,3.9L294.2,24.4z"/>
		<path fill="#73D7F2" d="M348.8,63.8c-1.9,1.4-4.6,0.8-5.9-1.2l-0.4-0.8l-0.6-1c-1.2-2-0.4-4.5,1.6-5.6l3.3-1.7l3.3-1.7
			c2-1.1,4.5-0.2,5.5,1.8l0,0.1l0.4,0.8c0.8,1.8,0.3,3.9-1.3,5l-3.4,2.5L348.8,63.8z"/>
		<path fill="#73D7F2" d="M337.2,46.1c-1.6,1.7-4.4,1.7-6-0.1l-0.6-0.7l-0.7-0.8c-1.5-1.7-1.3-4.4,0.5-5.8l2.9-2.3l2.9-2.3
			c1.8-1.4,4.4-1.1,5.7,0.8l0.1,0.1l0.5,0.7c1.2,1.6,1,3.7-0.3,5.2l-2.9,3.1L337.2,46.1z"/>
		<path fill="#73D7F2" d="M319.9,31.3c-0.9,2.2-3.5,3.2-5.6,2.1l-0.9-0.4l-1-0.5c-2.1-1.1-2.8-3.6-1.6-5.6l1.8-3.1l1.9-3.2
			c1.1-1.9,3.7-2.6,5.6-1.4l0.1,0.1l0.7,0.5c1.7,1,2.4,3.1,1.6,4.9l-1.5,3.8L319.9,31.3z"/>
	</g>
	<path fill="#73D7F2" d="M312.4,138.2c-0.4,0.2-0.8,0.4-1.3,0.4c-2.9,0.5-14.9,2.3-28.6-0.3c-15.8-3-34-11.8-43.6-35
		s-1.6-41.4,8.7-53.8c9.2-11.1,20.3-17.5,22.6-18.7c0.3-0.2,0.6-0.3,0.9-0.4c2.5-0.7,15-3.8,29.5-2.1c16.2,1.9,34.9,9.8,44.8,34
		c9.9,24.1,1.5,43.2-9.4,56.2C326.5,129.9,315.1,136.7,312.4,138.2z"/>
	<path fill="#FDE92B" d="M307.8,125.1c-0.4,0.2-0.9,0.4-1.3,0.5c-2.5,0.4-11.4,1.7-21.5-0.3c-12-2.3-25.9-9-33.1-26.6
		s-1.2-31.5,6.6-40.9c6.8-8.2,15.1-13.1,17-14.2c0.3-0.2,0.6-0.3,0.9-0.4c2.2-0.6,11.5-2.8,22.3-1.6c12.3,1.4,26.6,7.5,34.1,25.8
		c7.5,18.3,1.1,32.8-7.2,42.7C318.6,118.7,310.2,123.8,307.8,125.1z"/>
	<polygon fill="#ED6F86" points="314.3,98.8 290.4,110.4 268.5,95.5 270.4,69 294.3,57.4 316.3,72.4 	"/>
</g>
</svg>
