
<svg version="1.1" id="sponge_pressed" xmlns="http://www.w3.org/2000/svg" xmlns:xlink="http://www.w3.org/1999/xlink" x="0px" y="0px"
	 viewBox="0 0 224 110" enable-background="new 0 0 224 110" xml:space="preserve">
<g>
	<g>
		<path fill="#FFED66" d="M212.7,44c0-2.4,2.4-4.3,5.4-4.3c0.6,0,1.2,0.1,1.7,0.2l0-4.9l-1.7,0.4l-60-23.6L8.7,42.5l-1.3-0.7l0,1
			l-0.7,0.2l0.7,0.4L7.2,66.7c0,0,1,0.9,2.7,2.2c1.1-2.4,3.6-4.1,6.4-4.1c3.9,0,7.1,3.1,7.1,6.9c0,2.2-1.1,4.2-2.7,5.4
			c2.5,1.8,5,3.5,7.2,4.9c0.2,0.1,0.4,0.2,0.5,0.3c0.1-2.1,1.5-3.7,3.3-3.7c1.8,0,3.3,1.8,3.3,4c0,1-0.3,2-0.9,2.7
			c1.9,0.9,4,1.8,6.1,2.8c0.6-1.3,2.1-2.2,3.9-2.2c2.3,0,4.1,1.5,4.1,3.3c0,0.7-0.3,1.4-0.8,1.9c2.1,0.9,4.2,1.7,6.1,2.5
			c0.2-0.7,0.5-1.3,1.1-1.8c-0.9-0.7-1.4-1.6-1.4-2.6c0-2,2-3.6,4.6-3.6c2.5,0,4.6,1.6,4.6,3.6c0,1-0.5,1.9-1.4,2.6
			c0.7,0.7,1.2,1.7,1.2,2.7c0,0.8-0.3,1.6-0.7,2.2c1.6,0.6,2.6,1,2.6,1v0c0,0,3.3-0.5,8.7-1.2c-0.1-0.4-0.2-0.7-0.2-1.1
			c0-2.2,2-4,4.4-4c2.4,0,4.3,1.7,4.3,3.9c5.9-0.9,12.8-1.9,20-3c-0.8-0.7-1.3-1.7-1.3-2.8c0-2.2,2-4,4.4-4s4.4,1.8,4.4,4
			c0,0.6-0.2,1.2-0.4,1.7c3.1-0.5,6.2-1,9.2-1.5c0.2-2,2-3.7,4.3-3.7c1.7,0,3.2,0.9,3.9,2.2c6.7-1.2,12.9-2.4,17.9-3.6
			c-0.9-0.7-1.4-1.6-1.4-2.6c0-2,2-3.6,4.6-3.6s4.6,1.6,4.6,3.6c0,0.2,0,0.4-0.1,0.7c8.3-2.3,18.5-5.4,28.5-8.6
			c-0.5-0.8-0.7-1.7-0.7-2.7c0-3.7,3.8-6.7,8.4-6.7c3.6,0,6.6,1.8,7.8,4.3c13.7-4.6,24.2-8.3,24.2-8.3l0-1.4
			c-1.9-0.2-3.3-1.4-3.3-2.9c0-1.6,1.5-2.8,3.5-3l0.1-5.2c-0.5,0.1-1,0.2-1.5,0.2C215.1,48.2,212.7,46.3,212.7,44z M66.1,73.6
			L66.1,73.6l-2,24L66.1,73.6z"/>
		<path fill="#FFED66" d="M138.6,31.7c0,0-9.7,2-9.7,6.9s12.3,2.1,15.3,0C147.1,36.5,138.6,31.7,138.6,31.7z"/>
	</g>
	<path fill="#F7D53E" d="M64.3,49.8c-0.6,4.4-4.1,7.7-7.8,7.4s-6.2-4.1-5.6-8.5s4.1-7.7,7.8-7.4C62.4,41.6,64.9,45.4,64.3,49.8z"/>
	<path fill="#F7D53E" d="M66.8,70.6c-0.6,4.4-4.1,7.7-7.8,7.4c-3.7-0.3-6.2-4.1-5.6-8.5c0.6-4.4,4.1-7.7,7.8-7.4
		C64.9,62.4,67.4,66.2,66.8,70.6z"/>
	<path fill="#F7D53E" d="M110.4,70.2c-1.9,3.8-8,5.5-13.7,3.8c-5.7-1.8-8.8-6.3-7-10.1c1.9-3.8,8-5.5,13.7-3.8
		C109.1,61.9,112.2,66.4,110.4,70.2z"/>
	<path fill="#F7D53E" d="M118.2,37.1c-0.6,4.4-4.8,7.7-9.3,7.3s-7.7-4.3-7.1-8.7c0.6-4.4,4.8-7.7,9.3-7.3
		C115.6,28.8,118.8,32.7,118.2,37.1z"/>
	<path fill="#F7D53E" d="M166.5,33c-0.6,4.4-4.1,7.7-7.8,7.4s-6.2-4.1-5.6-8.5s4.1-7.7,7.8-7.4C164.6,24.7,167.1,28.6,166.5,33z"/>
	<ellipse fill="#F7D53E" cx="156.1" cy="64" rx="9.3" ry="8"/>
	<ellipse fill="#F7D53E" cx="184.7" cy="43.5" rx="7" ry="6.2"/>
	<ellipse fill="#F7D53E" cx="132.4" cy="49.2" rx="9.3" ry="8"/>
</g>
</svg>
