
<svg id="spongeSVG" version="1.1"  xmlns="http://www.w3.org/2000/svg" xmlns:xlink="http://www.w3.org/1999/xlink" x="0px" y="0px"
	 viewBox="0 284 1200 618" enable-background="new 0 284 1200 618" xml:space="preserve">
<g>
	<g>
		<path id="spongePath" fill="#FFED66" d="M1168.4,491.8c3.2,0,6.4,0.5,9.1,1.6v-32.7l-9.3,2.9L846.4,304.8L46.6,510.3l-7-4.6l0,6.4l-4.2,1.1
			l4.2,2.8l-1,157.4c0,0,5.4,5.9,14.5,15c5.9-16.1,19.3-27.9,34.3-27.9c20.9,0,38,20.9,38,46.6c0,15-5.9,28.4-14.5,36.4
			c13.4,11.8,26.8,23.6,38.6,32.7c1.1,0.5,2.1,1.6,2.7,2.1c0.5-13.9,8-24.6,17.7-24.6c9.6,0,17.7,11.8,17.7,26.8
			c0,7-1.6,13.4-4.8,18.2c10.2,5.9,21.4,12.3,32.7,18.8c3.2-8.6,11.2-14.5,20.9-14.5c12.3,0,22,10.2,22,22c0,4.8-1.6,9.1-4.3,12.9
			c11.2,5.9,22.5,11.2,32.7,16.6c1.1-4.8,2.7-8.6,5.9-12.3c-4.8-4.3-7.5-10.7-7.5-17.7c0-13.4,10.7-24.6,24.6-24.6
			c13.4,0,24.6,10.7,24.6,24.6c0,7-2.7,12.9-7.5,17.7c3.8,4.8,6.4,11.2,6.4,18.2c0,5.4-1.6,10.7-3.8,15c8.6,4.3,13.9,6.4,13.9,6.4
			l10.8-161.4l0.2-0.1l-11,162c0,0,17.7-3.2,46.6-8c-0.5-2.7-1.1-4.8-1.1-7.5c0-15,10.7-26.8,23.6-26.8c12.9,0,23,11.8,23,26.2
			c31.6-5.9,68.6-12.9,107.1-20.4c-4.3-4.8-7-11.8-7-19.3c0-15,10.7-26.8,23.6-26.8c12.9,0,23.6,11.8,23.6,26.8
			c0,4.3-1.1,8-2.1,11.8c16.6-3.2,33.2-7,49.3-10.2c1.1-13.9,10.7-24.6,23-24.6c9.1,0,17.1,5.9,20.9,15c35.9-8,69.1-16.6,95.9-24.1
			c-4.8-4.3-7.5-10.7-7.5-17.7c0-13.4,10.7-24.6,24.6-24.6s24.6,10.7,24.6,24.6c0,1.6,0,3.2-0.5,4.3c44.5-15,99.1-36.4,152.7-58.4
			c-2.7-5.4-3.8-11.8-3.8-18.2c0-24.6,20.4-45,45-45c19.3,0,35.4,11.8,41.8,28.9c73.4-31.1,129.6-55.7,129.6-55.7V623
			c-11.2-1.6-19.3-10.2-19.3-20.4c0-10.7,8-19.3,18.8-19.8l0.5-34.8c-2.7,0.5-5.4,1.6-8,1.6c-16.1,0-28.9-12.9-28.9-28.9
			C1139.5,504.6,1152.3,491.8,1168.4,491.8z"/>
		<path fill="#FFED66" d="M742.5,438.2c0,0-52,13.4-52,46.6s65.9,14.5,82,0C788,470.4,742.5,438.2,742.5,438.2z"/>
	</g>
	
		<ellipse transform="matrix(0.1075 -0.9942 0.9942 0.1075 -277.408 803.0621)" fill="#F7D53E" cx="308.6" cy="556" rx="54.1" ry="35.9"/>
	
		<ellipse transform="matrix(0.1075 -0.9942 0.9942 0.1075 -405.0301 941.6174)" fill="#F7D53E" cx="321.9" cy="696.4" rx="54.1" ry="35.9"/>
	
		<ellipse transform="matrix(0.3595 -0.9332 0.9332 0.3595 -287.7436 933.0186)" fill="#F7D53E" cx="535.8" cy="676.1" rx="49.8" ry="59.5"/>
	
		<ellipse transform="matrix(0.1075 -0.9942 0.9942 0.1075 58.9464 1004.1609)" fill="#F7D53E" cx="588.8" cy="469.2" rx="54.1" ry="44.5"/>
	
		<ellipse transform="matrix(0.1075 -0.9942 0.9942 0.1075 324.1278 1246.0558)" fill="#F7D53E" cx="856.1" cy="442.5" rx="54.1" ry="35.9"/>
	<ellipse fill="#F7D53E" cx="836.3" cy="655.7" rx="49.8" ry="54.1"/>
	<ellipse fill="#F7D53E" cx="989.5" cy="529.8" rx="37.5" ry="40.7"/>
	<ellipse fill="#F7D53E" cx="709.3" cy="556.1" rx="49.8" ry="54.1"/>
</g>
</svg>


