
<svg id="stomachSVG" version="1.1" xmlns="http://www.w3.org/2000/svg" xmlns:xlink="http://www.w3.org/1999/xlink" x="0px" y="0px"
	 viewBox="0 0 931.6 648.7" enable-background="new 0 0 931.6 648.7" xml:space="preserve">
<g id="stomach">
	<path fill="#70E4CE" d="M408,49.1c3.8-3.6,8.6-6,13.9-6.7C464.9,36.6,603.3-6.2,652.7,8c53,15.1,213.8,80.3,244.1,140.8
		c30.3,60.6,49,139.7,21.2,219.6c-25,71.6-89,234.4-195,264.7c-106,30.3-377.1-22.1-468-60c-20.2-8.4-39.3-15.3-56.8-20.6
		c-4.4-1.3-8.7-2.5-12.9-3.6c-25.4-5.5-52.4-13.5-77.4-4.7c-2.1,0.8-4.1,1.7-5.9,2.7c-7.2,4.1-16.1,9.2-18.1,17.6
		c-4.4,18.8-10.9,26.1-12,25c-1.8-1.8-10.6-5.3-13-6c-15.9-4.6-45-12.7-53.5-23c-13.5-16.5-0.3-25.2,22.4-63s60.6-53,128.7-53
		s181.7,15.1,219.6-7.6s106-143.8,60.6-204.4c-27.3-36.4-89.9-75.5-133.9-132.2c-6.4-8.2,0.6-20,10.9-18.4
		c14.4,2.3,41.9,8.2,56.3,3.6C389.8,79,398.7,57.9,408,49.1z"/>
</g>
<g id="landscape">
	<g>
		<path fill="#065500" d="M468.7,619.6c0,0,18.1-30.4,48.4-25.4c32,5.3,45.7,37.6,44.4,43.4C561.4,637.6,520.5,646.2,468.7,619.6z"
			/>
	</g>
	<g>
		<path fill="#065500" d="M594.5,639.3c0,0,11.7-33.4,42.4-34.6c32.4-1.2,52.2,27.7,52.1,33.7C689,638.5,650.6,655,594.5,639.3z"/>
	</g>
	<g>
		<path fill="#33922D" d="M527.8,636.6c0,0,13.6-38.5,47.2-39.2c35.5-0.8,63.2,42.1,62.9,49C638,646.4,589,655.9,527.8,636.6z"/>
	</g>
	<g>
		<path fill="#33922D" d="M389.7,613.8c0,0,19-36.1,52.4-32c35.3,4.4,51.2,41,49.9,47.9C492,629.7,447.4,641.8,389.7,613.8z"/>
	</g>
	<g>
		<path fill="#065500" d="M330.9,604.9c0,0,15.7-27.7,44.4-24c30.3,3.9,44.5,32.6,43.5,37.9C418.9,618.8,380.8,627.5,330.9,604.9z"
			/>
	</g>
	<g>
		<path fill="#33922D" d="M234.5,570c0,0,27.9-31.4,69.6-18.6c44,13.5,60.2,54.4,57.8,61C361.9,612.4,304.3,613,234.5,570z"/>
	</g>
	<path fill="#73D7F2" d="M870,246.2c-12.7-0.3-23.2,9.7-23.6,22.4c-0.1,2.1,0.2,4.1,0.6,6c-7.2,4.4-12.1,12.2-12.3,21.2
		c-0.3,13.9,10.6,25.5,24.4,26.1c0.5,8,6.3,14.5,14,16.1c0.5,0.4,1.1,0.8,1.6,1.1c0.9,8.6,8,15.4,16.8,15.6
		c9.6,0.2,17.6-7.3,17.8-16.9c0.1-3-0.6-5.9-1.9-8.4c1.3-2.7,2-5.8,2.1-9c0.1-5.7-1.9-11-5.3-15.1c9.1-4.2,15.5-13.2,15.7-23.9
		c0.2-8.2-3.3-15.6-8.9-20.7c2.9-3.7,4.6-8.4,4.7-13.4c0.3-12.7-9.7-23.2-22.4-23.6C880.9,223.5,870.3,233.5,870,246.2z"/>
	<path fill="#73D7F2" d="M853.3,399.1c-9.4-4.3-20.5-0.1-24.8,9.3c-0.7,1.5-1.2,3.1-1.4,4.7c-6.8,1-12.9,5.3-16,12
		c-4.7,10.3-0.2,22.5,10,27.3c-2.2,6.1,0.1,12.9,5.4,16.5c0.3,0.5,0.6,0.9,0.9,1.4c-2.1,6.7,1.1,14,7.7,17c7.1,3.2,15.5,0.1,18.7-7
		c1-2.2,1.4-4.6,1.2-6.9c1.8-1.6,3.3-3.7,4.4-6.1c1.9-4.3,2.1-8.8,0.9-13c8.1-0.2,15.8-5,19.4-12.9c2.7-6.1,2.5-12.7-0.1-18.3
		c3.3-1.9,6.1-4.8,7.8-8.5c4.3-9.4,0.1-20.5-9.3-24.8C868.6,385.6,857.5,389.7,853.3,399.1z"/>
	<path fill="#C8EAF5" d="M878.1,323c-9.3-2.4-18.8,3.2-21.2,12.5c-0.4,1.5-0.6,3-0.6,4.5c-6,2-11,6.9-12.7,13.5
		c-2.6,10.2,3.4,20.6,13.5,23.4c-1,5.9,2.1,11.8,7.5,14.2c0.3,0.4,0.7,0.8,1,1.1c-0.8,6.5,3.2,12.7,9.7,14.4c7,1.8,14.2-2.4,16-9.4
		c0.6-2.2,0.5-4.4,0-6.5c1.4-1.8,2.5-3.9,3.1-6.3c1.1-4.2,0.5-8.4-1.3-12c7.4-1.5,13.7-7.1,15.7-14.9c1.6-6,0.3-12-3-16.7
		c2.7-2.3,4.8-5.4,5.8-9.1c2.4-9.3-3.2-18.8-12.5-21.2S880.5,313.7,878.1,323z"/>
	<path fill="#73D7F2" d="M792.9,521.8c-7.5-4.9-17.6-2.7-22.4,4.8c-0.8,1.2-1.4,2.5-1.8,3.9c-5.9,0-11.8,2.9-15.2,8.2
		c-5.3,8.3-3,19.3,5.1,24.7c-2.6,5-1.6,11.1,2.5,14.8c0.2,0.4,0.4,0.9,0.6,1.3c-2.6,5.5-0.8,12.2,4.4,15.6c5.7,3.7,13.3,2,17-3.7
		c1.2-1.8,1.8-3.8,1.9-5.8c1.8-1.2,3.3-2.7,4.6-4.6c2.2-3.4,2.9-7.3,2.4-11.1c7,0.8,14.2-2.3,18.3-8.6c3.1-4.9,3.8-10.6,2.3-15.7
		c3.1-1.2,5.9-3.3,7.8-6.3c4.9-7.5,2.7-17.6-4.8-22.4C807.8,512.1,797.7,514.2,792.9,521.8z"/>
	<g>
		<path fill="#33922D" d="M656.9,644.2c0,0,5.7-49.8,49.1-57.6c45.9-8.3,82.9,2.6,83.9,9.8C790,596.4,739.7,651.1,656.9,644.2z"/>
	</g>
	<path fill="#C8EAF5" d="M788.7,522.8c-6.9-5.8-7.9-16.1-2.1-23c0.9-1.1,2-2.1,3.2-2.9c-1.8-5.7-0.8-12.2,3.3-17.1
		c6.3-7.6,17.6-8.7,25.3-2.5c4-4,10.2-4.8,15-2c0.5,0,0.9,0.1,1.4,0.2c4.5-4.2,11.5-4.5,16.3-0.5c5.2,4.4,5.9,12.1,1.6,17.4
		c-1.4,1.6-3.1,2.8-4.9,3.6c-0.6,2.1-1.6,4-3.1,5.8c-2.6,3.1-6.2,5-9.9,5.6c2.9,6.5,2.1,14.3-2.8,20.1c-3.7,4.5-9,6.8-14.4,6.9
		c-0.2,3.3-1.4,6.6-3.7,9.4c-5.8,6.9-16.1,7.9-23,2.1C783.8,540.1,782.9,529.8,788.7,522.8z"/>
</g>
<g id="umbrellas">
	<g>
		<path fill="#602D91" d="M388.7,442.3l11.1,12.9l-0.7,1.2l-15.7-17.2c0,0-2.9-2.9-1-4.8s3.9-3.5,6.2-3.2s2.6,1.8,2.6,1.8l-2,0.9
			c0,0-1.1-1-2.2-0.7c-1.1,0.3-3.1,2.7-2.6,3.7L388.7,442.3l-3.8-4"/>
		<g id="NQNdQC.tif">
			<g>
				<path fill="#7F43A8" d="M387.2,458c0.8-0.4,1.5-1,2.3-1.3c4.3-1.5,8.4-3.3,11-7.2c1-1.6,2.4-2.9,3.6-4.4
					c4.2,5,7.5,10.6,9.9,16.7c1.3,3.5,2,7.1,1.1,10.9c-0.1,0.5-0.3,1-0.4,1.5c-0.5-0.1-0.9-0.1-1.3-0.2c-1.5-0.3-3-0.5-4.4-1
					c-6.8-2.1-12-6.3-17.2-10.7C390.1,461,388.7,459.4,387.2,458z"/>
				<path fill="#7F43A8" d="M387.2,458c1.5,1.5,2.9,3,4.5,4.4c5.2,4.3,10.4,8.6,17.2,10.7c1.4,0.4,2.9,0.6,4.4,1
					c-0.2,0.4-0.3,0.7-0.5,1.1c-3.6,0.3-7.2,0.9-10.7,1c-6.1,0.1-11.6-1.5-16.8-4.2c-1.8-0.9-3.6-1.8-5.4-2.7c1.5-2,3.1-3.9,4.5-5.9
					c0.8-1.3,1.3-2.8,1.9-4.2C386.5,458.6,386.9,458.3,387.2,458z"/>
				<path fill="#7F43A8" d="M415.1,472.7c0.9-3.8,0.2-7.5-1.1-10.9c-2.4-6.1-5.7-11.7-9.9-16.7c1.6-0.3,3.3-0.4,4.9-0.9
					c2-0.7,3.9-1.8,5.8-2.7c0.5-0.2,1.1-0.4,1.6-0.6c1.1,2.9,2.4,5.7,3.2,8.7c1.5,5.5,1.3,11.2-0.9,16.8c-0.8,2.1-1.5,4.1-2.3,6.2
					c-0.1,0.1-0.2,0.2-0.3,0.3C415.7,472.8,415.4,472.7,415.1,472.7z"/>
				<path fill="#7F43A8" d="M379.9,469.1c1.8,0.9,3.6,1.7,5.4,2.7c5.1,2.7,10.7,4.4,16.8,4.2c3.6-0.1,7.2-0.6,10.7-1
					c-0.3,0.4-0.6,0.8-1,1.2c-11.8,6.8-26.4,4.1-33.4-0.2C379,473.7,379.5,471.4,379.9,469.1z"/>
				<path fill="#7F43A8" d="M416.4,472.5c0.8-2.1,1.5-4.1,2.3-6.2c2.2-5.6,2.4-11.3,0.9-16.8c-0.8-3-2.1-5.8-3.2-8.7
					c0.1-0.1,0.1-0.3,0.2-0.3c2.7,0.3,5.4,0.6,8.4,1C428.5,452.6,426,463.2,416.4,472.5z"/>
				<path fill="#602D91" d="M411.6,476.4c0.1-0.5-0.7-2,1.5-3.3c2.4-1.4,2.7-0.3,3-0.3c0.2,1.1,0,2.7,0.3,4.3
					C415.3,477.1,411.1,476.3,411.6,476.4z"/>
			</g>
		</g>
	</g>
	<g>
		<path fill="#602D91" d="M403.6,176.3l3-18.1l1.4-0.3l-3.4,24.9c0,0-0.5,4.4-3.2,4.3s-5.2-0.6-6.5-2.5s-0.3-3.4-0.3-3.4l2,0.9
			c0,0-0.1,1.6,0.8,2.2s4.1,0.5,4.6-0.7L403.6,176.3l-0.7,5.9"/>
		<g id="NQNdQC.tif_16_">
			<g>
				<path fill="#7F43A8" d="M416.8,166.1c-0.8-0.3-1.7-0.4-2.5-0.9c-3.9-2.4-8-4.2-12.8-3.4c-1.9,0.3-3.8,0.3-5.7,0.4
					c1.3-7,3.5-13.6,6.8-19.9c1.9-3.6,4.3-6.7,7.9-8.8c0.5-0.3,0.9-0.5,1.4-0.8c0.2,0.4,0.5,0.8,0.7,1.2c0.7,1.4,1.5,2.7,2.1,4.1
					c2.7,6.9,2.8,14.1,2.7,21.3C417.4,161.6,417,163.8,416.8,166.1z"/>
				<path fill="#3BA200" d="M416.8,166.1c0.2-2.2,0.5-4.5,0.6-6.7c0.1-7.2,0-14.4-2.7-21.3c-0.6-1.4-1.4-2.8-2.1-4.1
					c0.4-0.1,0.8-0.3,1.2-0.4c2.6,2.6,5.3,5,7.7,7.7c4,4.7,6.3,10.2,7.5,16.3c0.4,2.1,0.9,4.1,1.4,6.2c-2.5,0.3-5.1,0.4-7.5,0.8
					c-1.5,0.3-3,1-4.5,1.5C417.8,166.1,417.3,166.1,416.8,166.1z"/>
				<path fill="#7F43A8" d="M410.5,133.5c-3.6,2.1-6,5.3-7.9,8.8c-3.3,6.3-5.5,12.9-6.8,19.9c-1.3-1.1-2.5-2.3-3.9-3.2
					c-1.8-1-3.9-1.7-5.9-2.6c-0.5-0.2-1-0.6-1.5-0.9c1.6-3,2.9-6.1,4.8-8.9c3.4-5.2,7.9-9.2,13.8-11.5c2.1-0.9,4.2-1.8,6.4-2.7
					c0.1,0,0.3,0,0.4,0.1C410.1,132.9,410.3,133.2,410.5,133.5z"/>
				<path fill="#7F43A8" d="M430.3,163.7c-0.5-2.1-1-4.1-1.4-6.2c-1.1-6-3.4-11.6-7.5-16.3c-2.4-2.7-5.1-5.2-7.7-7.7
					c0.5-0.1,1.1-0.1,1.6-0.2c12.9,4.4,20.2,17.8,21.3,26.4C434.5,161.1,432.4,162.4,430.3,163.7z"/>
				<path fill="#3BA200" d="M409.5,132.6c-2.1,0.9-4.2,1.8-6.4,2.7c-5.8,2.3-10.4,6.3-13.8,11.5c-1.8,2.8-3.2,5.9-4.8,8.9
					c-0.1,0-0.3,0.1-0.4,0.1c-1.5-2.4-3-4.7-4.6-7.3C386.1,137.5,396,131.8,409.5,132.6z"/>
				<path fill="#602D91" d="M415.7,133.6c-0.5,0.3-1.1,2-3.5,1.2c-2.6-0.9-2-1.8-2.2-2.1c0.7-0.9,2.1-2,3.2-3.4
					C413.8,130.1,415.9,134,415.7,133.6z"/>
			</g>
		</g>
	</g>
	<g>
		<path fill="#602D91" d="M475,188.3l-16.8,7.4l-1-1l22.7-10.8c0,0,3.9-2,5.3,0.3c1.4,2.3,2.4,4.7,1.5,6.8s-2.6,2.1-2.6,2.1
			l-0.3-2.2c0,0,1.4-0.8,1.4-1.9c0-1.1-1.8-3.7-3.1-3.5L475,188.3l5.3-2.7"/>
		<g id="NQNdQC.tif_17_">
			<g>
				<path fill="#7F43A8" d="M459.2,182.8c0.2,0.8,0.6,1.7,0.6,2.5c0.2,4.6,0.8,9,4.2,12.5c1.3,1.4,2.3,3,3.5,4.6
					c-6.5,2.8-13.3,4.5-20.4,5.2c-4,0.4-8,0.1-11.7-1.7c-0.5-0.2-0.9-0.5-1.4-0.8c0.2-0.4,0.4-0.8,0.6-1.2c0.8-1.3,1.4-2.7,2.3-4
					c4.2-6,10.3-10,16.3-13.9C455.2,184.8,457.2,183.9,459.2,182.8z"/>
				<path fill="#F46508" d="M459.2,182.8c-2,1.1-4,2-5.9,3.2c-6.1,3.9-12.1,7.9-16.3,13.9c-0.9,1.3-1.6,2.7-2.3,4
					c-0.3-0.2-0.7-0.5-1-0.7c0.7-3.6,1.2-7.2,2.2-10.6c1.7-5.9,5.1-10.9,9.5-15.2c1.5-1.5,3-3,4.4-4.6c1.6,2,3.1,4,4.8,5.9
					c1.1,1.1,2.5,1.9,3.7,3C458.7,181.9,458.9,182.4,459.2,182.8z"/>
				<path fill="#FFE000" d="M435.4,205.9c3.7,1.8,7.7,2.1,11.7,1.7c7-0.7,13.8-2.5,20.4-5.2c-0.2,1.7-0.6,3.3-0.5,5
					c0.1,2.1,0.7,4.2,1.1,6.3c0.1,0.6,0.1,1.1,0.1,1.7c-3.3,0.3-6.7,0.9-10,0.9c-6.2,0-12-1.6-17.2-5.2c-1.9-1.3-3.8-2.6-5.7-3.8
					c-0.1-0.1-0.1-0.3-0.2-0.4C435.1,206.6,435.3,206.2,435.4,205.9z"/>
				<path fill="#7F43A8" d="M449.8,172.8c-1.5,1.5-2.9,3.1-4.4,4.6c-4.4,4.3-7.8,9.2-9.5,15.2c-1,3.5-1.5,7.1-2.2,10.6
					c-0.3-0.4-0.7-0.8-1-1.2c-3.4-13.2,3.8-26.6,10.4-32.3C445.3,170.7,447.6,171.8,449.8,172.8z"/>
				<path fill="#7F43A8" d="M435.2,207.3c1.9,1.3,3.9,2.5,5.7,3.8c5.2,3.6,11,5.2,17.2,5.2c3.3,0,6.7-0.6,10-0.9
					c0.1,0.1,0.3,0.2,0.3,0.2c-1.1,2.6-2.3,5.1-3.5,7.9C452.2,224.1,441.9,219,435.2,207.3z"/>
				<path fill="#602D91" d="M432.7,201.6c0.5,0.3,2.3-0.2,2.9,2.3c0.7,2.6-0.5,2.7-0.6,3c-1.2-0.1-2.9-0.7-4.6-0.8
					C430.7,205,432.9,201.2,432.7,201.6z"/>
			</g>
		</g>
	</g>
	<g>
		<path fill="#602D91" d="M466.9,264.4l13.8-12.1l1.2,0.6L463.5,270c0,0-3.1,3.1-5.2,1.3s-3.7-3.8-3.4-6.1s1.9-2.8,1.9-2.8l1,2
			c0,0-1.1,1.1-0.8,2.2c0.3,1.1,2.8,2.9,4,2.4L466.9,264.4l-4.3,4.2"/>
		<g id="NQNdQC.tif_18_">
			<g>
				<path fill="#FFE000" d="M483.6,264.9c-0.5-0.7-1.1-1.4-1.4-2.2c-1.6-4.3-3.5-8.3-7.7-10.7c-1.7-0.9-3.1-2.2-4.7-3.3
					c5.4-4.6,11.4-8.3,17.9-11.1c3.7-1.6,7.6-2.5,11.7-1.8c0.5,0.1,1,0.2,1.6,0.3c-0.1,0.5-0.2,0.9-0.2,1.4c-0.3,1.5-0.6,3.1-1,4.5
					c-2.2,7-6.8,12.6-11.4,18.1C486.9,261.8,485.2,263.3,483.6,264.9z"/>
				<path fill="#F46508" d="M483.6,264.9c1.6-1.6,3.3-3.1,4.7-4.8c4.6-5.5,9.2-11.1,11.4-18.1c0.5-1.5,0.7-3,1-4.5
					c0.4,0.1,0.8,0.3,1.2,0.4c0.4,3.6,1,7.2,1,10.8c0.1,6.2-1.6,11.9-4.5,17.3c-1,1.9-1.9,3.8-2.9,5.7c-2.1-1.4-4.2-2.9-6.4-4.2
					c-1.4-0.8-3-1.1-4.4-1.7C484.3,265.6,484,265.2,483.6,264.9z"/>
				<path fill="#F46508" d="M499.4,235.8c-4.1-0.6-8,0.3-11.7,1.8c-6.5,2.8-12.5,6.5-17.9,11.1c-0.3-1.6-0.4-3.4-1-4.9
					c-0.8-2-1.9-3.8-2.9-5.7c-0.3-0.5-0.4-1.1-0.6-1.6c3.1-1.3,6.1-2.8,9.3-3.9c5.9-1.9,11.9-2.1,17.9-0.2c2.2,0.7,4.4,1.3,6.6,1.9
					c0.1,0.1,0.2,0.2,0.3,0.3C499.5,235.1,499.4,235.4,499.4,235.8z"/>
				<path fill="#F46508" d="M495.6,271.6c1-1.9,1.9-3.8,2.9-5.7c2.9-5.4,4.7-11.1,4.5-17.3c-0.1-3.6-0.7-7.2-1-10.8
					c0.4,0.3,0.9,0.6,1.3,0.9c7.2,11.6,4.3,26.6-0.2,33.9C500.5,272.3,498,272,495.6,271.6z"/>
				<path fill="#FFE000" d="M499.2,234.4c-2.2-0.6-4.4-1.3-6.6-1.9c-6-1.9-12-1.7-17.9,0.2c-3.2,1-6.2,2.6-9.3,3.9
					c-0.1-0.1-0.4-0.1-0.3-0.2c0.3-2.8,0.7-5.6,1-8.6C478,223.4,489.3,225.3,499.2,234.4z"/>
				<path fill="#602D91" d="M503.3,239c-0.6-0.1-2.1,0.9-3.5-1.3c-1.5-2.3-0.4-2.7-0.3-3c1.2-0.2,2.9-0.2,4.6-0.6
					C504.1,235.2,503.2,239.5,503.3,239z"/>
			</g>
		</g>
	</g>
	<g>
		<path fill="#602D91" d="M354.4,503.6l-4.5-17.8l1.1-0.8l6.8,24.2c0,0,1.3,4.2-1.2,5.2s-5,1.6-7,0.3s-1.6-3-1.6-3l2.2,0
			c0,0,0.5,1.5,1.6,1.7c1.1,0.2,3.9-1.2,3.9-2.4L354.4,503.6l1.8,5.7"/>
		<g id="NQNdQC.tif_22_">
			<g>
				<path fill="#FFE000" d="M362.4,488.9c-0.9,0.1-1.8,0.3-2.6,0.2c-4.5-0.6-9-0.7-13,2c-1.6,1.1-3.4,1.8-5.1,2.7
					c-1.6-6.9-2.2-13.9-1.7-21c0.3-4,1.3-7.9,3.7-11.2c0.3-0.4,0.6-0.8,1-1.3c0.4,0.3,0.7,0.6,1.1,0.8c1.2,1,2.5,1.9,3.6,3
					c5.2,5.2,8.2,11.8,11,18.4C361.1,484.6,361.7,486.8,362.4,488.9z"/>
				<path fill="#F46508" d="M362.4,488.9c-0.7-2.1-1.3-4.3-2.2-6.4c-2.8-6.6-5.7-13.2-11-18.4c-1.1-1.1-2.4-2-3.6-3
					c0.3-0.3,0.6-0.6,0.9-0.9c3.4,1.3,6.9,2.4,10.1,4c5.6,2.7,9.9,6.8,13.4,11.9c1.2,1.7,2.5,3.4,3.7,5.1c-2.2,1.2-4.5,2.4-6.6,3.8
					c-1.3,0.9-2.3,2.1-3.5,3.2C363.3,488.6,362.8,488.7,362.4,488.9z"/>
				<path fill="#F46508" d="M343.6,461.6c-2.4,3.4-3.4,7.2-3.7,11.2c-0.5,7.1,0.1,14.1,1.7,21c-1.6-0.5-3.2-1.2-4.8-1.3
					c-2.1-0.2-4.3,0-6.4,0c-0.6,0-1.1-0.1-1.7-0.2c0.2-3.4,0.3-6.7,0.8-10c1-6.1,3.6-11.6,8-16.1c1.6-1.6,3.2-3.3,4.7-5
					c0.1,0,0.3-0.1,0.4-0.1C343,461.2,343.3,461.4,343.6,461.6z"/>
				<path fill="#F46508" d="M373.8,481.3c-1.3-1.7-2.5-3.4-3.7-5.1c-3.5-5.1-7.8-9.2-13.4-11.9c-3.3-1.6-6.7-2.7-10.1-4
					c0.5-0.3,0.9-0.5,1.4-0.8c13.6-1.2,25.6,8.2,30.1,15.6C376.6,477.2,375.2,479.3,373.8,481.3z"/>
				<path fill="#FFE000" d="M342.3,461.1c-1.6,1.7-3.1,3.4-4.7,5c-4.4,4.5-7,9.9-8,16.1c-0.5,3.3-0.5,6.7-0.8,10
					c-0.1,0.1-0.3,0.3-0.3,0.2c-2.3-1.6-4.6-3.1-7.2-4.8C322.9,475,329.7,465.8,342.3,461.1z"/>
				<path fill="#602D91" d="M348.3,459.6c-0.4,0.5-0.2,2.3-2.8,2.5c-2.7,0.3-2.6-0.9-2.9-1.1c0.3-1.1,1.1-2.7,1.6-4.4
					C345.3,457.1,348.7,459.9,348.3,459.6z"/>
			</g>
		</g>
	</g>
	<g>
		<path fill="#602D91" d="M459.4,354.9l16.7,7.6l-0.1,1.4l-23.1-9.8c0,0-4.1-1.6-3.3-4.2c0.8-2.6,1.9-4.9,4.1-5.6
			c2.2-0.7,3.3,0.6,3.3,0.6l-1.4,1.7c0,0-1.5-0.5-2.4,0.2c-0.9,0.7-1.5,3.8-0.6,4.6L459.4,354.9l-5.5-2.2"/>
		<g id="NQNdQC.tif_21_">
			<g>
				<path fill="#7F43A8" d="M465.8,370.4c0.5-0.7,0.9-1.6,1.5-2.2c3.3-3.2,6.1-6.6,6.6-11.4c0.2-1.9,0.7-3.8,1.1-5.6
					c6.4,3,12.2,7,17.4,11.8c3,2.7,5.4,5.9,6.5,9.9c0.1,0.5,0.2,1,0.4,1.6c-0.5,0.1-0.9,0.2-1.3,0.3c-1.5,0.3-3,0.7-4.5,0.9
					c-7.3,0.8-14.3-1-21.2-3C470,372.1,467.9,371.2,465.8,370.4z"/>
				<path fill="#7F43A8" d="M465.8,370.4c2.1,0.8,4.2,1.7,6.3,2.3c6.9,2,13.9,3.8,21.2,3c1.5-0.2,3-0.6,4.5-0.9
					c0,0.4,0.1,0.8,0.1,1.2c-3.1,1.8-6.2,3.8-9.5,5.4c-5.6,2.7-11.5,3.4-17.6,2.9c-2.1-0.2-4.2-0.2-6.4-0.3c0.4-2.5,1-5,1.2-7.5
					c0.1-1.6-0.2-3.2-0.3-4.7C465.5,371.3,465.7,370.9,465.8,370.4z"/>
				<path fill="#7F43A8" d="M498.8,372.9c-1.1-4-3.5-7.2-6.5-9.9c-5.2-4.8-11-8.7-17.4-11.8c1.4-1,2.9-1.8,4.1-2.9
					c1.5-1.5,2.7-3.3,4-5c0.4-0.4,0.8-0.8,1.2-1.2c2.5,2.3,5.1,4.4,7.3,6.9c4.2,4.6,6.8,10.1,7.5,16.3c0.3,2.3,0.6,4.6,0.9,6.8
					c-0.1,0.1-0.1,0.3-0.2,0.4C499.5,372.6,499.2,372.7,498.8,372.9z"/>
				<path fill="#7F43A8" d="M464.5,384c2.1,0.1,4.2,0.1,6.4,0.3c6.1,0.5,12.1-0.3,17.6-2.9c3.3-1.6,6.3-3.6,9.5-5.4
					c-0.1,0.5-0.2,1-0.3,1.6c-7.6,11.3-22.5,14.8-31.1,13.7C465.9,388.8,465.2,386.4,464.5,384z"/>
				<path fill="#7F43A8" d="M500,372.1c-0.3-2.3-0.7-4.6-0.9-6.8c-0.7-6.3-3.4-11.7-7.5-16.3c-2.2-2.5-4.9-4.6-7.3-6.9
					c0-0.1,0-0.4,0-0.4c2.7-0.8,5.3-1.7,8.2-2.6C501.4,348.3,504.3,359.3,500,372.1z"/>
				<path fill="#602D91" d="M497.4,377.8c-0.1-0.6-1.6-1.6-0.2-3.7c1.5-2.3,2.3-1.4,2.6-1.5c0.7,1,1.4,2.6,2.4,4
					C501.3,376.9,497,377.9,497.4,377.8z"/>
			</g>
		</g>
	</g>
	<g>
		<path fill="#602D91" d="M511,302l-17.8,4.6l-0.8-1.1l24.1-6.9c0,0,4.2-1.3,5.2,1.2c1,2.5,1.6,5,0.3,7c-1.3,1.9-3,1.6-3,1.6l0-2.2
			c0,0,1.5-0.5,1.7-1.6s-1.2-3.9-2.5-3.9L511,302l5.7-1.8"/>
		<g id="NQNdQC.tif_19_">
			<g>
				<path fill="#3BA200" d="M496.3,294c0.1,0.9,0.3,1.8,0.2,2.6c-0.6,4.5-0.6,9,2,13c1.1,1.6,1.8,3.4,2.7,5.1
					c-6.9,1.6-13.9,2.3-21,1.8c-4-0.3-7.9-1.2-11.3-3.6c-0.4-0.3-0.8-0.6-1.3-1c0.3-0.4,0.6-0.7,0.8-1.1c1-1.2,1.9-2.5,3-3.6
					c5.2-5.2,11.8-8.2,18.4-11C492,295.3,494.2,294.7,496.3,294z"/>
				<path fill="#FFE000" d="M496.3,294c-2.1,0.7-4.3,1.3-6.4,2.2c-6.6,2.8-13.2,5.8-18.4,11c-1.1,1.1-2,2.4-3,3.6
					c-0.3-0.3-0.6-0.6-0.9-0.9c1.3-3.4,2.4-6.9,4-10.1c2.7-5.6,6.8-9.9,11.9-13.4c1.7-1.2,3.4-2.5,5.1-3.8c1.2,2.2,2.4,4.5,3.8,6.6
					c0.9,1.3,2.1,2.3,3.2,3.5C496,293.1,496.1,293.6,496.3,294z"/>
				<path fill="#F46508" d="M469,312.9c3.4,2.4,7.2,3.4,11.3,3.6c7.1,0.5,14.1-0.1,21-1.8c-0.5,1.6-1.2,3.2-1.3,4.8
					c-0.2,2.1,0,4.3,0,6.4c0,0.6-0.1,1.1-0.2,1.7c-3.4-0.2-6.7-0.2-10-0.8c-6.1-1-11.6-3.6-16.1-8c-1.6-1.6-3.3-3.2-5-4.7
					c0-0.1-0.1-0.3-0.1-0.4C468.7,313.5,468.9,313.2,469,312.9z"/>
				<path fill="#3BA200" d="M488.7,282.6c-1.7,1.3-3.4,2.6-5.1,3.8c-5.1,3.5-9.2,7.8-11.9,13.4c-1.6,3.3-2.7,6.7-4,10.1
					c-0.3-0.5-0.5-0.9-0.8-1.4c-1.2-13.6,8.2-25.6,15.6-30.2C484.6,279.8,486.7,281.2,488.7,282.6z"/>
				<path fill="#3BA200" d="M468.6,314.2c1.7,1.6,3.4,3.1,5,4.7c4.5,4.4,9.9,7,16.1,8c3.3,0.5,6.7,0.5,10,0.8
					c0.1,0.1,0.3,0.3,0.2,0.3c-1.5,2.3-3.1,4.7-4.8,7.2C482.5,333.6,473.3,326.8,468.6,314.2z"/>
				<path fill="#602D91" d="M467,308.1c0.5,0.4,2.3,0.2,2.5,2.7c0.3,2.7-0.9,2.6-1.1,2.9c-1.1-0.3-2.7-1.1-4.4-1.6
					C464.6,311.2,467.3,307.8,467,308.1z"/>
			</g>
		</g>
	</g>
	<g>
		<path fill="#602D91" d="M461.2,430.2l-15-10.6l0.3-1.4l20.9,13.9c0,0,3.7,2.3,2.5,4.7c-1.3,2.4-2.8,4.5-5.1,4.8s-3.2-1.2-3.2-1.2
			l1.7-1.4c0,0,1.4,0.8,2.4,0.2c1-0.5,2.2-3.4,1.4-4.4L461.2,430.2l5,3.2"/>
		<g id="NQNdQC.tif_20_">
			<g>
				<path fill="#FFE000" d="M458.8,411.8c-0.6,0.6-1.1,1.4-1.8,1.8c-3.8,2.5-7.2,5.3-8.6,10c-0.5,1.8-1.4,3.6-2.1,5.3
					c-5.7-4.2-10.7-9.1-15-14.8c-2.4-3.2-4.2-6.8-4.5-10.9c0-0.5-0.1-1-0.1-1.6c0.5,0,0.9-0.1,1.4-0.1c1.5,0,3.1-0.2,4.6-0.1
					c7.4,0.5,13.9,3.6,20.3,6.9C455,409.4,456.8,410.7,458.8,411.8z"/>
				<path fill="#F46508" d="M458.8,411.8c-1.9-1.2-3.8-2.4-5.8-3.4c-6.5-3.2-13-6.3-20.3-6.9c-1.5-0.1-3.1,0-4.6,0.1
					c0-0.4,0.1-0.8,0.1-1.2c3.4-1.2,6.8-2.6,10.3-3.6c6-1.6,11.9-1.2,17.9,0.4c2,0.6,4.1,1,6.2,1.5c-0.9,2.4-1.9,4.7-2.6,7.1
					c-0.4,1.5-0.4,3.1-0.6,4.7C459.3,411,459,411.4,458.8,411.8z"/>
				<path fill="#F46508" d="M426.7,403.3c0.4,4.1,2.1,7.7,4.5,10.9c4.2,5.7,9.2,10.6,15,14.8c-1.5,0.7-3.2,1.2-4.5,2.1
					c-1.7,1.2-3.2,2.8-4.9,4.2c-0.4,0.4-0.9,0.7-1.4,1c-2-2.7-4.2-5.3-5.9-8.1c-3.2-5.3-4.8-11.1-4.4-17.4c0.2-2.3,0.2-4.6,0.3-6.9
					c0.1-0.1,0.2-0.3,0.2-0.4C426,403.4,426.4,403.4,426.7,403.3z"/>
				<path fill="#3BA200" d="M462.5,398.6c-2.1-0.5-4.1-0.9-6.2-1.5c-5.9-1.6-11.9-1.9-17.9-0.4c-3.5,0.9-6.9,2.4-10.3,3.6
					c0.2-0.5,0.4-1,0.6-1.5c9.6-9.7,24.8-10.4,33-7.7C462,393.7,462.2,396.2,462.5,398.6z"/>
				<path fill="#3BA200" d="M425.4,403.8c-0.1,2.3-0.2,4.6-0.3,6.9c-0.4,6.3,1.1,12.1,4.4,17.4c1.7,2.9,3.9,5.4,5.9,8.1
					c0,0.1,0,0.4-0.1,0.4c-2.8,0.3-5.6,0.7-8.6,1C419.7,427,418.9,415.6,425.4,403.8z"/>
				<path fill="#602D91" d="M429,398.7c0,0.6,1.3,1.8-0.5,3.7c-1.9,2-2.5,1-2.9,1c-0.5-1.1-0.9-2.8-1.6-4.3
					C425.1,398.9,429.5,398.7,429,398.7z"/>
			</g>
		</g>
	</g>
	<g>
		<path fill="#FFE000" d="M844.3,124.8l-11.5,18.9l-1.6-0.3l15-26.2c0,0,2.5-4.7,5.5-3.4c3,1.3,5.6,3,6.1,5.7
			c0.5,2.7-1.2,3.9-1.2,3.9l-1.8-1.9c0,0,0.8-1.7,0.1-2.8c-0.7-1.1-4.3-2.4-5.4-1.3L844.3,124.8l3.4-6.3"/>
		<g id="NQNdQC.tif_1_">
			<g>
				<path fill="#73D7F2" d="M825.9,131.8c0.7,0.6,1.6,1.1,2.2,1.9c3.1,4,6.4,7.6,11.7,8.7c2.1,0.4,4,1.3,6.1,2
					c-4.2,6.6-9.3,12.5-15.2,17.6c-3.4,2.9-7.2,5.1-11.7,5.8c-0.6,0.1-1.1,0.1-1.8,0.2c-0.1-0.5-0.1-1-0.2-1.5
					c-0.1-1.7-0.4-3.4-0.4-5.1c0.1-8.2,3-15.6,6.1-22.9C823.5,136.2,824.8,134.1,825.9,131.8z"/>
				<path fill="#CE097E" d="M825.9,131.8c-1.1,2.2-2.4,4.4-3.4,6.7c-3.1,7.4-6,14.8-6.1,22.9c0,1.7,0.3,3.4,0.4,5.1
					c-0.5,0-0.9,0-1.4,0c-1.6-3.7-3.4-7.3-4.7-11.1c-2.2-6.5-2.2-13.1-0.9-19.8c0.5-2.3,0.8-4.6,1.2-6.9c2.7,0.8,5.3,1.7,8.1,2.3
					c1.7,0.4,3.5,0.2,5.3,0.3C824.9,131.4,825.4,131.7,825.9,131.8z"/>
				<path fill="#CE097E" d="M818.8,167.8c4.5-0.7,8.3-2.9,11.7-5.8c6-5.1,11-11,15.2-17.6c0.9,1.6,1.5,3.4,2.7,4.8
					c1.5,1.8,3.3,3.4,4.9,5.1c0.4,0.5,0.8,1,1.2,1.5c-2.8,2.4-5.5,5-8.6,7.1c-5.6,4-11.9,6.1-18.9,6.1c-2.5,0-5.1,0.1-7.6,0.1
					c-0.1-0.1-0.3-0.2-0.4-0.2C819,168.6,818.9,168.2,818.8,167.8z"/>
				<path fill="#73D7F2" d="M811.1,128.7c-0.4,2.3-0.7,4.6-1.2,6.9c-1.3,6.7-1.3,13.3,0.9,19.8c1.3,3.8,3.1,7.4,4.7,11.1
					c-0.6-0.2-1.1-0.3-1.7-0.5c-11.4-9.8-13.3-26.6-10.9-35.9C805.7,129.6,808.4,129.2,811.1,128.7z"/>
				<path fill="#73D7F2" d="M819.5,169.2c2.5,0,5.1-0.1,7.6-0.1c7,0,13.3-2.1,18.9-6.1c3-2.1,5.7-4.7,8.6-7.1c0.1,0,0.4,0,0.4,0
					c0.6,3,1.1,6.1,1.7,9.4C845.5,173.8,833,175.6,819.5,169.2z"/>
				<path fill="#73D7F2" d="M813.6,165.6c0.6-0.1,1.9-1.6,4.1,0.2c2.3,1.9,1.3,2.7,1.4,3.1c-1.1,0.6-3,1.2-4.7,2.1
					C814,170,813.5,165.1,813.6,165.6z"/>
			</g>
		</g>
	</g>
	<g>
		<path fill="#FFE000" d="M895.9,179.6l-15.3,11.8l-1.3-1l20.5-16.7c0,0,3.5-3.1,5.6-0.6s3.7,5,3.3,7.7c-0.4,2.6-2.2,2.9-2.2,2.9
			l-0.9-2.5c0,0,1.2-1.1,0.9-2.5c-0.3-1.3-2.8-3.9-4.1-3.5L895.9,179.6l4.8-4.1"/>
		<g id="NQNdQC.tif_3_">
			<g>
				<path fill="#CE097E" d="M879.1,177.7c0.4,0.9,1,1.7,1.2,2.6c1.2,4.9,2.9,9.5,7.3,12.7c1.7,1.2,3.2,2.8,4.8,4.2
					c-6.5,4.4-13.5,7.8-20.9,10.1c-4.3,1.3-8.6,1.8-13.1,0.7c-0.6-0.2-1.1-0.3-1.7-0.5c0.1-0.5,0.3-1,0.4-1.5c0.5-1.6,1-3.3,1.6-4.8
					c3.3-7.5,8.9-13.1,14.7-18.6C875.2,180.8,877.2,179.3,879.1,177.7z"/>
				<path fill="#E45758" d="M879.1,177.7c-1.9,1.6-3.9,3.1-5.7,4.8c-5.7,5.5-11.4,11.2-14.7,18.6c-0.7,1.6-1.1,3.2-1.6,4.8
					c-0.4-0.2-0.8-0.4-1.2-0.6c0-4-0.2-8,0.1-12c0.6-6.8,3.1-12.9,7-18.5c1.3-1.9,2.5-3.9,3.8-5.9c2.2,1.8,4.2,3.7,6.5,5.3
					c1.4,1,3.1,1.6,4.7,2.4C878.4,176.9,878.7,177.4,879.1,177.7z"/>
				<path fill="#E45758" d="M858.4,208c4.4,1.2,8.8,0.6,13.1-0.7c7.5-2.3,14.5-5.7,20.9-10.1c0.2,1.8,0.1,3.7,0.5,5.5
					c0.6,2.3,1.7,4.4,2.5,6.6c0.2,0.6,0.3,1.2,0.5,1.8c-3.6,1.1-7.1,2.4-10.7,3.2c-6.7,1.4-13.4,0.9-19.8-1.9
					c-2.3-1-4.7-1.9-7.1-2.9c-0.1-0.1-0.2-0.3-0.3-0.4C858.3,208.7,858.3,208.4,858.4,208z"/>
				<path fill="#CE097E" d="M866.8,169c-1.3,2-2.5,4-3.8,5.9c-3.9,5.6-6.4,11.7-7,18.5c-0.3,4-0.1,8-0.1,12
					c-0.5-0.4-0.9-0.8-1.4-1.1c-6.6-13.6-1.7-29.7,4.2-37.3C861.5,167.7,864.1,168.3,866.8,169z"/>
				<path fill="#CE097E" d="M858.5,209.5c2.4,1,4.7,1.9,7.1,2.9c6.4,2.8,13,3.3,19.8,1.9c3.6-0.8,7.1-2.1,10.7-3.2
					c0.1,0.1,0.4,0.2,0.4,0.2c-0.7,3-1.4,6-2.1,9.3C880.5,224.1,868.3,220.7,858.5,209.5z"/>
				<path fill="#73D7F2" d="M854.5,203.9c0.6,0.2,2.4-0.7,3.7,1.8c1.3,2.7,0.1,3,0,3.4c-1.3,0.1-3.2-0.1-5.1,0.1
					C853.2,208,854.6,203.4,854.5,203.9z"/>
			</g>
		</g>
	</g>
	<g>
		<path fill="#FFE000" d="M787.3,89.5l-11,21.7l-1.7,0l14.2-29.9c0,0,2.4-5.3,5.5-4.4c3.2,0.9,6,2.2,6.7,5c0.7,2.8-1,4.3-1,4.3
			l-2-1.7c0,0,0.8-1.9-0.1-3c-0.8-1.1-4.6-1.8-5.7-0.5L787.3,89.5l3.2-7.2"/>
		<g id="NQNdQC.tif_2_">
			<g>
				<path fill="#CE097E" d="M768.2,100.2c0.8,0.5,1.7,1,2.4,1.7c3.5,3.7,7.2,6.9,12.5,7.5c2.1,0.2,4.2,0.9,6.2,1.3
					c-3.5,7-7.9,13.4-13.3,19.1c-3.1,3.2-6.6,5.8-11.1,7c-0.6,0.1-1.1,0.3-1.8,0.4c-0.1-0.5-0.2-1-0.4-1.5c-0.3-1.7-0.8-3.3-0.9-5
					c-0.8-8.1,1.4-15.8,3.6-23.4C766.3,104.8,767.3,102.6,768.2,100.2z"/>
				<path fill="#E45758" d="M768.2,100.2c-0.9,2.3-1.9,4.6-2.6,7c-2.3,7.6-4.4,15.3-3.6,23.4c0.2,1.7,0.6,3.4,0.9,5
					c-0.5,0-0.9,0.1-1.4,0.1c-2-3.5-4.1-6.9-5.8-10.5c-2.8-6.2-3.6-12.8-3-19.6c0.2-2.3,0.3-4.7,0.4-7c2.8,0.5,5.5,1.1,8.3,1.4
					c1.7,0.2,3.5-0.2,5.3-0.2C767.2,99.9,767.7,100.1,768.2,100.2z"/>
				<path fill="#E45758" d="M765,136.8c4.4-1.2,8-3.8,11.1-7c5.4-5.7,9.8-12.1,13.3-19.1c1,1.5,1.9,3.2,3.2,4.5
					c1.6,1.7,3.6,3,5.4,4.5c0.5,0.4,0.9,0.9,1.3,1.4c-2.6,2.7-5,5.6-7.8,8c-5.2,4.5-11.2,7.3-18.1,8c-2.5,0.3-5.1,0.6-7.6,0.9
					c-0.2-0.1-0.3-0.1-0.5-0.2C765.2,137.5,765.1,137.1,765,136.8z"/>
				<path fill="#CE097E" d="M753.1,98.7c-0.1,2.3-0.2,4.7-0.4,7c-0.6,6.8,0.1,13.4,3,19.6c1.7,3.6,3.9,7,5.8,10.5
					c-0.6-0.1-1.2-0.2-1.7-0.3c-12.4-8.6-16-25.1-14.6-34.6C747.9,100.1,750.5,99.4,753.1,98.7z"/>
				<path fill="#CE097E" d="M765.8,138.1c2.5-0.3,5-0.7,7.6-0.9c6.9-0.7,13-3.5,18.1-8c2.8-2.4,5.2-5.3,7.8-8c0.1,0,0.4,0,0.4,0
					c0.9,3,1.8,5.9,2.7,9.1C792.1,140,779.8,143,765.8,138.1z"/>
				<path fill="#73D7F2" d="M759.5,135.1c0.6-0.1,1.8-1.8,4.1-0.2c2.5,1.7,1.6,2.6,1.7,2.9c-1.1,0.8-2.9,1.5-4.4,2.6
					C760.4,139.4,759.4,134.6,759.5,135.1z"/>
			</g>
		</g>
	</g>
	<g>
		<path fill="#FFE000" d="M664.1,39.6l-8.6,27.6l-1.8,0.5l10.9-37.7c0,0,1.8-6.6,5.2-6.7c3.4,0,6.5,0.6,7.6,3.4s-0.5,5.1-0.5,5.1
			l-2.3-1.3c0,0,0.5-2.4-0.5-3.3c-1-0.9-5.1-0.5-6,1.2L664.1,39.6l2.4-9"/>
		<g id="NQNdQC.tif_5_">
			<g>
				<path fill="#CE097E" d="M645.2,58.2c0.9,0.4,1.9,0.6,2.6,1.1c4.1,2.9,8.4,5.3,13.8,4.8c2.1-0.2,4.2,0,6.4,0
					c-2,7.6-5,14.7-9.2,21.4c-2.4,3.8-5.3,7.1-9.4,9.1c-0.5,0.2-1.1,0.5-1.6,0.7c-0.2-0.5-0.4-0.9-0.7-1.4c-0.7-1.6-1.4-3.1-1.9-4.7
					c-2.4-7.8-1.9-15.7-1.2-23.7C644.2,63.1,644.8,60.7,645.2,58.2z"/>
				<path fill="#E45758" d="M645.2,58.2c-0.4,2.5-1,4.9-1.2,7.4c-0.7,7.9-1.3,15.9,1.2,23.7c0.5,1.6,1.3,3.2,1.9,4.7
					c-0.4,0.1-0.9,0.3-1.3,0.4c-2.6-3-5.4-5.9-7.8-9.1c-4-5.5-6.1-11.8-6.9-18.6c-0.3-2.3-0.7-4.6-1-7c2.8-0.1,5.6,0,8.4-0.3
					c1.7-0.2,3.4-0.9,5.1-1.3C644.1,58.1,644.7,58.2,645.2,58.2z"/>
				<path fill="#E45758" d="M649.4,94.7c4.1-2,7.1-5.3,9.4-9.1c4.1-6.6,7.2-13.8,9.2-21.4c1.3,1.3,2.5,2.8,4,3.8
					c1.9,1.3,4.2,2.2,6.2,3.3c0.6,0.3,1.1,0.7,1.6,1.1c-2,3.1-3.7,6.5-6,9.4c-4.2,5.5-9.5,9.4-16.1,11.5c-2.4,0.8-4.8,1.6-7.2,2.4
					c-0.2,0-0.3-0.1-0.5-0.1C649.8,95.3,649.6,95,649.4,94.7z"/>
				<path fill="#CE097E" d="M630.1,59.7c0.3,2.3,0.7,4.6,1,7c0.8,6.8,2.8,13.1,6.9,18.6c2.4,3.2,5.2,6.1,7.8,9.1c-0.6,0-1.2,0-1.8,0
					c-13.9-5.9-20.7-21.3-21.3-30.9C625.3,62.2,627.7,61,630.1,59.7z"/>
				<path fill="#CE097E" d="M650.5,95.8c2.4-0.8,4.8-1.7,7.2-2.4c6.6-2.1,12-6.1,16.1-11.5c2.2-2.9,4-6.3,6-9.4
					c0.1,0,0.4-0.1,0.4-0.1c1.5,2.7,2.9,5.5,4.5,8.4C676.7,92.3,665.2,97.8,650.5,95.8z"/>
				<path fill="#73D7F2" d="M643.8,94.2c0.6-0.3,1.4-2.1,4-1c2.8,1.2,2,2.2,2.2,2.5c-0.9,1-2.5,2.1-3.8,3.4
					C645.5,98.2,643.5,93.7,643.8,94.2z"/>
			</g>
		</g>
	</g>
	<g>
		<path fill="#FFE000" d="M520.1,40.1l5.2,28.4l-1.4,1.3L516,31.3c0,0-1.5-6.7,1.5-8.3c3-1.6,6.1-2.5,8.3-0.5c2.3,2,1.9,4.7,1.9,4.7
			l-2.7-0.1c0,0-0.6-2.3-1.9-2.7s-4.7,1.9-4.8,3.9L520.1,40.1l-2-9.1"/>
		<g id="NQNdQC.tif_14_">
			<g>
				<path fill="#CE097E" d="M512,65.4c1-0.1,1.9-0.3,2.9-0.2c5,0.7,9.9,0.8,14.4-2.2c1.8-1.2,3.8-2,5.7-2.9
					c1.8,7.6,2.4,15.4,1.8,23.2c-0.3,4.5-1.4,8.7-4.1,12.4c-0.4,0.5-0.7,0.9-1.1,1.4c-0.4-0.3-0.8-0.6-1.2-0.9
					c-1.3-1.1-2.7-2.1-3.9-3.3c-5.8-5.8-9-13.1-12-20.4C513.4,70.1,512.8,67.7,512,65.4z"/>
				<path fill="#E45758" d="M512,65.4c0.8,2.4,1.4,4.8,2.4,7.1c3.1,7.4,6.3,14.7,12,20.4c1.2,1.2,2.6,2.2,3.9,3.3
					c-0.3,0.3-0.7,0.6-1,0.9c-3.7-1.5-7.6-2.7-11.2-4.5c-6.1-3-10.9-7.6-14.7-13.2c-1.3-1.9-2.7-3.8-4.1-5.7c2.4-1.4,5-2.6,7.3-4.1
					c1.5-0.9,2.6-2.4,3.9-3.5C511,65.7,511.5,65.6,512,65.4z"/>
				<path fill="#E45758" d="M532.7,95.7c2.7-3.7,3.8-8,4.1-12.4c0.6-7.8,0-15.5-1.8-23.2c1.8,0.5,3.5,1.3,5.3,1.5
					c2.3,0.3,4.7,0,7.1,0c0.6,0,1.3,0.1,1.9,0.2c-0.3,3.7-0.3,7.5-0.9,11.1c-1.1,6.8-4,12.8-8.9,17.7c-1.8,1.8-3.5,3.7-5.3,5.5
					c-0.2,0-0.3,0.1-0.5,0.1C533.3,96.1,533,95.9,532.7,95.7z"/>
				<path fill="#CE097E" d="M499.4,73.7c1.4,1.9,2.8,3.8,4.1,5.7c3.8,5.6,8.6,10.3,14.7,13.2c3.6,1.8,7.4,3,11.2,4.5
					c-0.5,0.3-1,0.6-1.5,0.9c-15,1.2-28.3-9.2-33.2-17.4C496.2,78.2,497.8,75.9,499.4,73.7z"/>
				<path fill="#CE097E" d="M534.1,96.2c1.8-1.8,3.5-3.7,5.3-5.5c4.9-4.9,7.8-10.9,8.9-17.7c0.6-3.7,0.6-7.4,0.9-11.1
					c0.1-0.1,0.3-0.3,0.3-0.3c2.6,1.7,5.1,3.5,7.9,5.4C555.7,80.9,548.1,91,534.1,96.2z"/>
				<path fill="#73D7F2" d="M527.4,97.8c0.4-0.5,0.2-2.5,3.1-2.8c3-0.3,2.8,1,3.2,1.2c-0.3,1.3-1.3,3-1.8,4.8
					C530.8,100.6,527,97.5,527.4,97.8z"/>
			</g>
		</g>
	</g>
	<g>
		<path fill="#FFE000" d="M725.6,59.5l-9.3,27.3l-1.8,0.5l11.9-37.5c0,0,1.9-6.6,5.4-6.5s6.5,0.7,7.5,3.6s-0.6,5-0.6,5l-2.3-1.3
			c0,0,0.6-2.4-0.4-3.3s-5-0.6-6,1.1L725.6,59.5l2.7-8.9"/>
		<g id="NQNdQC.tif_4_">
			<g>
				<path fill="#73D7F2" d="M706.3,77.7c0.9,0.4,1.9,0.7,2.6,1.2c4.1,3,8.3,5.5,13.7,5.1c2.1-0.1,4.2,0.1,6.4,0.2
					c-2.2,7.5-5.4,14.6-9.7,21.1c-2.5,3.7-5.5,6.9-9.6,8.8c-0.5,0.2-1.1,0.4-1.7,0.7c-0.2-0.5-0.4-0.9-0.6-1.4
					c-0.6-1.6-1.4-3.2-1.8-4.8c-2.2-7.8-1.5-15.8-0.6-23.7C705.2,82.5,705.8,80.1,706.3,77.7z"/>
				<path fill="#CE097E" d="M706.3,77.7c-0.5,2.4-1.1,4.9-1.4,7.3c-0.9,7.9-1.7,15.9,0.6,23.7c0.5,1.6,1.2,3.2,1.8,4.8
					c-0.4,0.1-0.9,0.2-1.3,0.4c-2.5-3.1-5.3-6.1-7.6-9.3c-3.9-5.6-5.8-11.9-6.4-18.7c-0.2-2.3-0.5-4.7-0.8-7c2.8,0,5.6,0.1,8.4-0.1
					c1.7-0.1,3.4-0.8,5.1-1.1C705.2,77.5,705.8,77.6,706.3,77.7z"/>
				<path fill="#CE097E" d="M709.6,114.2c4.2-1.9,7.2-5.1,9.6-8.8c4.3-6.5,7.5-13.6,9.7-21.1c1.3,1.3,2.4,2.8,3.9,3.9
					c1.9,1.4,4.1,2.3,6.2,3.5c0.6,0.3,1,0.7,1.6,1.1c-2.1,3.1-3.9,6.4-6.2,9.2c-4.3,5.4-9.7,9.2-16.4,11.1c-2.4,0.7-4.9,1.5-7.3,2.3
					c-0.2,0-0.3-0.1-0.5-0.1C709.9,114.9,709.8,114.5,709.6,114.2z"/>
				<path fill="#73D7F2" d="M691.2,78.8c0.3,2.3,0.6,4.7,0.8,7c0.6,6.8,2.5,13.1,6.4,18.7c2.3,3.3,5,6.2,7.6,9.3c-0.6,0-1.2,0-1.8,0
					c-13.7-6.3-20.2-21.8-20.5-31.4C686.3,81.2,688.7,80,691.2,78.8z"/>
				<path fill="#73D7F2" d="M710.6,115.4c2.4-0.8,4.8-1.6,7.3-2.3c6.7-1.9,12.1-5.8,16.4-11.1c2.3-2.9,4.2-6.2,6.2-9.2
					c0.1,0,0.4-0.1,0.4-0.1c1.4,2.8,2.8,5.5,4.3,8.5C736.9,112.5,725.3,117.7,710.6,115.4z"/>
				<path fill="#73D7F2" d="M703.9,113.6c0.6-0.3,1.4-2.1,4-0.9c2.8,1.2,2,2.3,2.2,2.6c-0.9,0.9-2.6,2-3.9,3.3
					C705.6,117.6,703.7,113.1,703.9,113.6z"/>
			</g>
		</g>
	</g>
	<g>
		<path fill="#FFE000" d="M590.8,30.5l-0.2,28.9l-1.6,1l-0.5-39.3c0,0-0.2-6.9,3-7.9s6.4-1.4,8.3,1.1c1.9,2.4,1,5,1,5l-2.6-0.6
			c0,0-0.2-2.4-1.4-3c-1.2-0.6-5,1-5.4,2.9L590.8,30.5l-0.3-9.3"/>
		<g id="NQNdQC.tif_6_">
			<g>
				<path fill="#73D7F2" d="M578.1,53.8c1,0.1,2,0,2.9,0.3c4.8,1.6,9.6,2.6,14.6,0.6c2-0.8,4.1-1.2,6.1-1.8
					c0.3,7.8-0.5,15.6-2.6,23.1c-1.2,4.3-3,8.3-6.4,11.4c-0.4,0.4-0.9,0.8-1.4,1.2c-0.4-0.4-0.7-0.8-1-1.1c-1.1-1.3-2.3-2.6-3.2-4
					c-4.6-6.7-6.3-14.5-8-22.3C578.6,58.8,578.5,56.3,578.1,53.8z"/>
				<path fill="#CE097E" d="M578.1,53.8c0.3,2.5,0.5,5,1,7.4c1.6,7.8,3.4,15.6,8,22.3c1,1.4,2.1,2.7,3.2,4c-0.4,0.2-0.8,0.5-1.1,0.7
					c-3.4-2.1-6.9-4.1-10.1-6.5c-5.5-4.1-9.3-9.5-12-15.8c-0.9-2.2-2-4.3-3-6.4c2.7-0.9,5.4-1.6,8-2.7c1.6-0.7,3-1.8,4.5-2.7
					C577.1,54,577.6,54,578.1,53.8z"/>
				<path fill="#CE097E" d="M592.8,87.5c3.3-3.1,5.2-7.1,6.4-11.4c2-7.6,2.9-15.3,2.6-23.1c1.6,0.8,3.2,1.9,4.9,2.5
					c2.2,0.7,4.6,0.9,6.9,1.4c0.6,0.1,1.2,0.4,1.8,0.6c-1,3.6-1.7,7.3-3,10.7c-2.4,6.4-6.4,11.8-12.1,15.7c-2.1,1.4-4.1,3-6.2,4.4
					c-0.2,0-0.3,0-0.5,0C593.3,88,593,87.7,592.8,87.5z"/>
				<path fill="#73D7F2" d="M564.2,59.7c1,2.1,2,4.2,3,6.4c2.7,6.2,6.5,11.7,12,15.8c3.2,2.4,6.7,4.3,10.1,6.5
					c-0.6,0.2-1.1,0.4-1.7,0.5c-15-1.6-26-14.4-29.4-23.4C560.2,63.5,562.2,61.6,564.2,59.7z"/>
				<path fill="#73D7F2" d="M594.1,88.2c2.1-1.5,4.1-3,6.2-4.4c5.7-3.9,9.7-9.3,12.1-15.7c1.3-3.5,2-7.2,3-10.7
					c0.1-0.1,0.3-0.2,0.4-0.2c2.2,2.2,4.4,4.4,6.7,6.7C618.1,77.3,608.8,85.8,594.1,88.2z"/>
				<path fill="#73D7F2" d="M587.2,88.6c0.5-0.4,0.7-2.4,3.5-2.1c3,0.3,2.6,1.5,2.9,1.8c-0.6,1.2-1.8,2.7-2.7,4.4
					C590,92,586.9,88.3,587.2,88.6z"/>
			</g>
		</g>
	</g>
	<g>
		<path fill="#FFE000" d="M457.3,53.8l5.5,28.3l-1.3,1.3l-8.3-38.4c0,0-1.6-6.7,1.4-8.3c3-1.6,6-2.6,8.3-0.6s2,4.7,2,4.7l-2.7,0
			c0,0-0.6-2.3-2-2.7c-1.3-0.3-4.7,2-4.7,4L457.3,53.8l-2.1-9.1"/>
		<g id="NQNdQC.tif_15_">
			<g>
				<path fill="#73D7F2" d="M449.5,79.2c1-0.1,1.9-0.4,2.9-0.2c5,0.6,9.9,0.7,14.4-2.3c1.8-1.2,3.7-2,5.6-3
					c1.9,7.6,2.6,15.3,2.1,23.2c-0.3,4.5-1.3,8.7-4,12.5c-0.4,0.5-0.7,0.9-1.1,1.4c-0.4-0.3-0.8-0.6-1.2-0.9c-1.3-1.1-2.7-2.1-4-3.3
					c-5.8-5.7-9.1-13-12.3-20.3C451,84,450.3,81.6,449.5,79.2z"/>
				<path fill="#CE097E" d="M449.5,79.2c0.8,2.4,1.5,4.8,2.5,7c3.2,7.3,6.4,14.6,12.3,20.3c1.2,1.2,2.6,2.2,4,3.3
					c-0.3,0.3-0.6,0.6-1,1c-3.8-1.4-7.6-2.6-11.2-4.3c-6.2-2.9-11-7.5-14.9-13.1c-1.3-1.9-2.8-3.8-4.2-5.7c2.4-1.4,4.9-2.7,7.3-4.2
					c1.4-1,2.6-2.4,3.9-3.5C448.5,79.6,449.1,79.5,449.5,79.2z"/>
				<path fill="#CE097E" d="M470.5,109.3c2.6-3.7,3.7-8,4-12.5c0.5-7.8-0.2-15.5-2.1-23.2c1.8,0.5,3.5,1.3,5.3,1.4
					c2.3,0.2,4.7,0,7.1,0c0.6,0,1.3,0.1,1.9,0.2c-0.3,3.7-0.2,7.5-0.8,11.1c-1.1,6.8-3.9,12.8-8.7,17.8c-1.8,1.8-3.5,3.7-5.2,5.6
					c-0.2,0-0.3,0.1-0.5,0.1C471.2,109.7,470.9,109.5,470.5,109.3z"/>
				<path fill="#73D7F2" d="M437,87.7c1.4,1.9,2.8,3.7,4.2,5.7c3.9,5.6,8.7,10.2,14.9,13.1c3.6,1.7,7.5,2.9,11.2,4.3
					c-0.5,0.3-1,0.6-1.5,0.9c-15,1.4-28.4-8.9-33.4-17.1C433.9,92.2,435.4,90,437,87.7z"/>
				<path fill="#73D7F2" d="M472,109.8c1.7-1.9,3.4-3.8,5.2-5.6c4.8-5,7.7-11,8.7-17.8c0.6-3.7,0.6-7.4,0.8-11.1
					c0.1-0.1,0.3-0.3,0.3-0.3c2.6,1.7,5.2,3.4,7.9,5.3C493.4,94.3,485.9,104.5,472,109.8z"/>
				<path fill="#73D7F2" d="M465.3,111.5c0.4-0.5,0.2-2.5,3-2.8c3-0.3,2.8,1,3.2,1.2c-0.3,1.3-1.2,3-1.7,4.8
					C468.7,114.2,464.9,111.2,465.3,111.5z"/>
			</g>
		</g>
	</g>
</g>
</svg>