
<svg version="1.1" xmlns="http://www.w3.org/2000/svg" xmlns:xlink="http://www.w3.org/1999/xlink" x="0px" y="0px"
	 viewBox="0 0 154.9 155.6" enable-background="new 0 0 154.9 155.6" xml:space="preserve">
<g id="top_x5F_gland">
	<path fill="#AEE0E8" d="M149.9,80.5c0.5-5.9-0.8-11.4-3.5-15.7c1.6-3.5,2.7-7.4,3-11.5c1.8-19.8-12.7-37.3-32.5-39.2
		c-1.1-0.1-2.3-0.2-3.4-0.1C111,6.6,104.4,1,96.3,0.2C86.6-0.7,77.8,5.7,75.1,15C57,15.2,41.9,27.5,40.3,44c-0.2,2.4-0.1,4.7,0.2,7
		c-8.7,2.5-15.3,9.7-16.1,18.7c-0.2,2.4,0,4.7,0.5,6.8C16,75.9,8.1,82.8,7.2,92.2c-0.9,9.5,5.8,17.9,14.8,18.7
		c2.5,0.2,4.9-0.2,7.2-1c-0.9,1.9-1.4,3.9-1.6,6.1c-1.1,11.5,8.8,21.9,22,23.1c0.1,0,0.1,0,0.2,0c0.3,8.5,6.9,15.7,15.6,16.5
		c9.3,0.9,17.6-5.9,18.7-15.1c0.7,0.2,1.5,0.4,2.2,0.5c7.8,0.7,15-7,15.9-17.4c0.1-1.4,0.1-2.8,0-4.2c2.6,2.4,5.6,3.9,9,4.3
		c9.9,0.9,19.1-8.9,21.5-22.5C141.6,99.9,148.9,91.4,149.9,80.5z"/>
</g>
<g id="saliva_x5F_maskTop">
	<path fill="#ED1C24" d="M132.5,79.5c0.6-5.9-0.2-11.3-2.1-15.6c1.3-3.6,2.3-7.4,2.7-11.5c2.1-19.8-8.4-37.1-23.4-38.7
		c-0.9-0.1-1.7-0.1-2.6-0.1c-1.7-7.4-6.4-12.9-12.6-13.6c-7.4-0.8-14.3,5.7-16.7,15c-13.7,0.4-25.7,12.8-27.5,29.3
		c-0.3,2.4-0.3,4.7-0.1,6.9c-6.7,2.6-12,9.8-12.9,18.8c-0.2,2.4-0.2,4.6,0.2,6.8c-6.8-0.5-13,6.5-14,15.8c-1,9.5,3.8,17.7,10.6,18.5
		c1.9,0.2,3.8-0.2,5.5-1.1c-0.7,1.9-1.2,3.9-1.4,6.1c-1.2,11.5,5.9,21.7,15.9,22.8c0,0,0.1,0,0.1,0c-0.1,8.5,4.7,15.6,11.3,16.3
		c7.1,0.8,13.6-6.1,14.8-15.3c0.5,0.2,1.1,0.4,1.7,0.4c5.9,0.6,11.6-7.2,12.7-17.5c0.2-1.4,0.2-2.8,0.2-4.2c1.9,2.4,4.1,3.9,6.7,4.1
		c7.5,0.8,14.9-9.1,17.2-22.7C125.5,98.9,131.4,90.4,132.5,79.5z"/>
</g>
</svg>
