
<svg version="1.1" id="water_bottleLeft" xmlns="http://www.w3.org/2000/svg" xmlns:xlink="http://www.w3.org/1999/xlink" x="0px" y="0px"
	 viewBox="0 0 401.9 1192.1" enable-background="new 0 0 401.9 1192.1" xml:space="preserve">
<g>
	<polygon fill="#58BCED" points="151.4,247.3 306.3,8.7 387.3,8.7 383.5,35.3 317.7,39.1 177.2,255.5 	"/>
	<g>
		<path fill="#AEE0E8" d="M116.9,233.5c0,0,0,16.1-9.2,32.2s-85.3,90.4-92.2,173.2c-5.1,60.6,17.3,122.6,17.3,122.6s3.5,84,1.2,90.9
			c-2.3,6.9-2.3,94.3-2.3,94.3l-6.9,18.4c0,0,0,326.8,4.6,340.7s13.7,53,46,57.6s179.6-4.6,179.6-4.6s34.5-18.5,34.5-39.2
			s-5.8-136.9-5.8-136.9l-11.5-230.2l-3.4-15l-4.6-87.5l-0.1-79.9c0,0,28.2-39.2,26.5-123.8s-95.4-185.3-95.4-185.3l-4.6-27.6
			c0,0-16.1,13.8-39.1,13.8S116.9,233.5,116.9,233.5z"/>
		<polygon fill="#58BCED" points="32.8,571.9 264.1,571.9 267.6,744.5 36.2,744.5 		"/>
		<path fill="#AEE0E8" d="M116.9,233.5c0,0,40.4-15,73.7,0c0,0-12.7,26.6-26.6,28.8C150.2,264.6,104.3,260,116.9,233.5z"/>
		<text transform="matrix(1 0 0 1 41.414 685.0134)" fill="#FFFFFF" font-family="'Chalkduster'" font-size="72.9118">water</text>
	</g>
</g>
</svg>

<svg version="1.1" id="water_bottleRight" xmlns="http://www.w3.org/2000/svg" xmlns:xlink="http://www.w3.org/1999/xlink" x="0px" y="0px"
	 viewBox="0 0 440.7 1192.1" enable-background="new 0 0 440.7 1192.1" xml:space="preserve">
<g>
	<polygon fill="#58BCED" points="259.5,241.5 90.8,9.8 9.3,14.2 14.5,40.7 81,41 234.1,251.1 	"/>
	<g>
		<path fill="#AEE0E8" d="M293.6,225.7c0,0,0.9,16.2,11,31.9c10.1,15.7,90.7,86.3,102.1,169.4c8.4,60.7-10.7,124.3-10.7,124.3
			s1,84.8,3.7,91.6c2.7,6.8,7.4,94.8,7.4,94.8l7.9,18.2c0,0,17.6,328.9,13.8,343.1c-3.9,14.2-11,54.1-43.2,60.5
			c-32.2,6.4-181,5.1-181,5.1s-35.7-16.7-36.9-37.5c-1.1-20.8-1.5-138.1-1.5-138.1l-0.9-232.3l2.6-15.3l-0.1-88.3l-4.2-80.5
			c0,0-30.5-37.9-33.3-123.1c-2.8-85.2,86-191.7,86-191.7l3.2-28.1c0,0,16.9,13.1,40.1,11.8C282.7,240.3,293.6,225.7,293.6,225.7z"
			/>
		<polygon fill="#58BCED" points="396.5,561.7 163.7,574.3 169.6,748.2 402.4,735.7 		"/>
		<path fill="#AEE0E8" d="M293.6,225.7c0,0-41.4-12.9-74.1,4c0,0,14.3,26,28.3,27.6C261.7,258.8,307.6,251.7,293.6,225.7z"/>
		
			<text transform="matrix(1 1.889986e-03 -1.889986e-03 1 174.666 674.3068)" fill="#FFFFFF" font-family="'Chalkduster'" font-size="73.4851">water</text>
	</g>
</g>
</svg>